/* XPM */
static char *result[] = {
/* columns rows colors chars-per-pixel */
"64 64 251 2 ",
"   c #03284C",
".  c #022D56",
"X  c #043858",
"o  c #123A56",
"O  c #092F53",
"+  c #2C3759",
"@  c #053A64",
"#  c #0D3966",
"$  c #1C2D54",
"%  c #0D415B",
"&  c #014164",
"*  c #074569",
"=  c #1C4D6B",
"-  c #164967",
";  c #1D516C",
":  c #15506F",
">  c #064B74",
",  c #09517A",
"<  c #1C5373",
"1  c #1C5A7B",
"2  c #165579",
"3  c #194F74",
"4  c #25496A",
"5  c #28566E",
"6  c #274C76",
"7  c #225573",
"8  c #245A75",
"9  c #255C7C",
"0  c #2A5D7C",
"q  c #295779",
"w  c #385776",
"e  c #3B4E6A",
"r  c #2B617D",
"t  c #26607B",
"y  c #35627E",
"u  c #1D617F",
"i  c #4A647D",
"p  c #42526E",
"a  c #155C82",
"s  c #1B5C83",
"d  c #125E8A",
"f  c #0D5B86",
"g  c #215C83",
"h  c #2C5B84",
"j  c #355C86",
"k  c #1C648B",
"l  c #186289",
"z  c #1B6994",
"x  c #096091",
"c  c #246383",
"v  c #2C6483",
"b  c #2C6985",
"n  c #23648B",
"m  c #256B8C",
"M  c #2D6B8C",
"N  c #2A668B",
"B  c #336582",
"V  c #336A86",
"C  c #336D8C",
"Z  c #386689",
"A  c #3E738C",
"S  c #236C94",
"D  c #2A6B94",
"F  c #336D91",
"G  c #3C6D99",
"H  c #2C7195",
"J  c #2D749B",
"K  c #28769D",
"L  c #347293",
"P  c #3A7594",
"I  c #34759B",
"U  c #3D759B",
"Y  c #3B7A9B",
"T  c #387A9A",
"R  c #2E708E",
"E  c #1E75A3",
"W  c #297AA7",
"Q  c #347CA3",
"!  c #3A7DA2",
"~  c #3378A4",
"^  c #257BB0",
"/  c #405F80",
"(  c #486885",
")  c #427C9B",
"_  c #497A96",
"`  c #577993",
"'  c #53728C",
"]  c #447DA4",
"[  c #697C8C",
"{  c #3D81A5",
"}  c #3D84AB",
"|  c #3684AA",
" . c #3D8AB3",
".. c #3689B5",
"X. c #3389B4",
"o. c #44819D",
"O. c #4A829B",
"+. c #58849A",
"@. c #58909D",
"#. c #698599",
"$. c #4383A5",
"%. c #4D8AA4",
"&. c #4386AA",
"*. c #458AAC",
"=. c #4B8BAC",
"-. c #4985A6",
";. c #5A8CA5",
":. c #558AA6",
">. c #5892AC",
",. c #448DB3",
"<. c #4B8EB3",
"1. c #438CB7",
"2. c #528EB3",
"3. c #4C91B4",
"4. c #4492BB",
"5. c #4D95BB",
"6. c #4B94B8",
"7. c #5493B3",
"8. c #5B95B4",
"9. c #5395B9",
"0. c #549BBC",
"q. c #5B9CBA",
"w. c #5B9AB5",
"e. c #688DA7",
"r. c #6795AA",
"t. c #7496A8",
"y. c #6A9DB4",
"u. c #649BB8",
"i. c #759DB5",
"p. c #708BA7",
"a. c #6CA3BC",
"s. c #6AA1B8",
"d. c #7AA2B4",
"f. c #7BA5BA",
"g. c #77A7BB",
"h. c #5CA0BC",
"j. c #3D92C5",
"k. c #4D9AC2",
"l. c #499BC8",
"z. c #549DC4",
"x. c #5B9EC3",
"c. c #539FCB",
"v. c #54A3CB",
"b. c #5CA4CB",
"n. c #5BA3C7",
"m. c #4CA9D8",
"M. c #59A9D4",
"N. c #5DB0DA",
"B. c #4DA5CF",
"V. c #65A4C4",
"C. c #63A6CA",
"Z. c #6CADCB",
"A. c #69A8C6",
"S. c #7CADC4",
"D. c #75ABC6",
"F. c #79B5CB",
"G. c #63ADD3",
"H. c #65ACD4",
"J. c #68B4DA",
"K. c #74BADC",
"L. c #77B9D5",
"P. c #6DB0CB",
"I. c #5EB6E3",
"U. c #6EBBE4",
"Y. c #68B8E4",
"T. c #73BCE3",
"R. c #79BCE4",
"E. c #609BC3",
"W. c #7CC3DE",
"Q. c #6EC2ED",
"!. c #7AC3E5",
"~. c #7BC6ED",
"^. c #75C3EB",
"/. c #75C4F1",
"(. c #7DCCF4",
"). c #77C9F4",
"_. c #7FD2FE",
"`. c #83ABBB",
"'. c #8DADBD",
"]. c #87A5B6",
"[. c #92A8B9",
"{. c #899CB1",
"}. c #82AEC1",
"|. c #84B3C5",
" X c #8ABBCD",
".X c #89B6C9",
"XX c #9CBCCB",
"oX c #96B8C7",
"OX c #87BCD6",
"+X c #94BFD5",
"@X c #A1BAC7",
"#X c #8BC1D5",
"$X c #8CC4DB",
"%X c #86C3D8",
"&X c #93C5D9",
"*X c #97C6D7",
"=X c #A5C1CD",
"-X c #B7C7CC",
";X c #A4CBDB",
":X c #A8C8D5",
">X c #B5CDD7",
",X c #AAD1DC",
"<X c #B7D5DE",
"1X c #87C9E9",
"2X c #97CBE3",
"3X c #93D3ED",
"4X c #9BD3E6",
"5X c #84CEF4",
"6X c #87D5FB",
"7X c #96DAF9",
"8X c #8FD2E9",
"9X c #A6CEE1",
"0X c #ABD4E4",
"qX c #A6D7E8",
"wX c #B5D6E3",
"eX c #B7DBE7",
"rX c #A4DCF6",
"tX c #9AE4FF",
"yX c #B8E2EB",
"uX c #A9E7FC",
"iX c #B7E8F6",
"pX c #BAF7FF",
"aX c #AEF5FF",
"sX c #C8D7DB",
"dX c #D0DADF",
"fX c #CBDDE3",
"gX c #C2DDE6",
"hX c #D1DEE5",
"jX c #C4E5ED",
"kX c #CBE3ED",
"lX c #CCE8EA",
"zX c #DBEAEB",
"xX c #D6E6E9",
"cX c #CCEDF6",
"vX c #C7EAF6",
"bX c #D7EDF4",
"nX c #CAF5FE",
"mX c #DDFBFE",
"MX c #D7F5FA",
"NX c #E3EDEE",
"BX c #ECEEEC",
"VX c #E6EEF1",
"CX c #E4F2F5",
"ZX c #E5FDFE",
"AX c #ECFCFE",
"SX c #E9F5F8",
"DX c #F4FFFF",
"FX c #FEFFFF",
"GX c #F5F7F5",
"HX c #EBF1ED",
"JX c None",
/* pixels */
"JXJXJXJXJXJXJXJXJXJXJXJXJXJXJXJXJXJXJXJXJXJXJXJXJXJXJXJXJXJXJXJXJXJXJXJXJXJXJXJXJXJXJXJXJXJXJXJXJXJXJXJXJXJXJXJXJXJXJXJXJXJXJXJX",
"JXJXJXJXJXJXJXJXJXJXJXJXJXJXJXJXJXJXJXJXJXJXJXJXJXJXJX,.JXJXJXJXJXJXJXJXJXJXJXJXJXJXJXJXJXJXJXJXJXJXJXJXJXJXJXJXJXJXJXJXJXJXJXJX",
"JXJXJXJXJXJXJXJXJXJXJXJXJXJXJXJXJXJXJXJXJXJXJXJX} j.I.JXJXJXJXJXJXJXJXJXJXJXJXJXJXJXJXJXJXJXJXJXJXJXJXJXJXJXJXJXJXJXJXJXJXJXJXJX",
"JXJXJXJXJXJXJXJXJXJXJXJXJXJXJXJXJXJXJXJXJXJXx.&.5.).JXJXJXJXJXJXJXJXJXJXJXJXJXJXJXJXJXJXJXJXJXJXJXJXJXJXJXJXJXJXJXJXJXJXJXJXJXJX",
"JXJXJXJXJXJXJXJXJXJXJXJXJXJXJXJXJXJXJXJXx.M.T L /.6.JXJXJXJXJXJXJXJXJXJXJXJXJX=.C.JXJXJXJXJXJXJXJXU ] JXJXJXJXJXJXJXJXJXJXJXJXJX",
"JXJXJXJXJXJXJXJXJXJXJXJXJXJXJXJXJXJXJXQ.b.M < J.J.JXJXJXJXJXJXJXJXJXJXJXJX:XDX7X1.JXJXJXJXJXJXJXJX] E.JXJXJXJXJXJXJXJXJXJXJXJXJX",
"JXJXJXJXJXJXJXJXJXJXJXJXJXJXJXJXJXb.(.3.9 = 3.).JXJXJXJXJXJXJXJXJXJXi.gXFXFX9Xn J L.S.D.JXJXJXJXJX] C.JXJXJXJXJXJXJXJXJXJXJXJXJX",
"JXJXJXJXJXJXJXJXJXJXJXJXJXJXJXJXU.!.P ; 0 v U.k.JXJXJXJXJXJXJXJX:XDXFXFXGXS.1 s J.FXFXvXJXJXJXJXJX&.5.JXJXJXJXJXJXJXJXJXJXJXJXJX",
"JXJXJXJXJXJXJXJXJXJXJXJXJXJXJX).G.1 ~ z.0 <.U.JXJXJXJXJXJXoXbXFXFXFXFX;X4.X.~ 3.DXFXCXQ JXJXJXJXJX$.L JXJXJXJXJXJXJXJXJXJXJXJXJX",
"JXJXJXJXJXJXJXJXJXJXJXJXJXJX/.z.W OXuXz.L /.! JXJXJX'.kXFXFXFXFXFX,X7.^ Y.(.1.L <XkXk.8XqXJXJXJXJXP t JXJXJXJXJXJXJXJXJXJXJXJXJX",
"JXJXJXJXJXJXJXJXJXJXJXJX=.).1. .uXFXAX! | m.L i.kXFXFXFXFXFXzX;XE.^ l.7XuXx.! L H E 2XFXFXnXJXJXJXL 4 JXJXJXJXJXJXJXJXJXJXJXJXJX",
"JXJXJXJXJXJXJXJXJXJXJXP 5Xl.1.nXFXFX9Xx H.9XAXFXFXFXAX>Xf.7.} ^ l.5XuX7X0.$.Y.G.Y 3 i.AXcX&XJXJXJXV 5 6 JXJXJXJXJXJXJXJXJXJXJXJX",
"JXJXJXJXJXJXJXJXJXJXJX/.c.z.MXFXFXCXZ.&XFXFXFXAXwXS.T s z | v.5XrX7XT.1.} ^.~.,.L v M z.0.JXJXJX] C V q JXJXJXJXJXJXJXJXJXJXJXJX",
"JXJXJXJXJXJXJXJXJXJXU.J.c.mXFXFXkXwXSXFXFX>Xy.&.S k I z.J.~.7XtX5XN.k.5.z.n.9.b.v.I , g dXgXi.|.9.v T 0 JXJXJXJXJXJXJXJXJXJXJXJX",
"JXJXJXJXJXJXJXJXJXn./.l.vXFXGXwXgXFXFX*X-.a s F 5.H.U.(.~.J.0.U M L ) V < - a ..J O.].<XCXyX%X9.8 T z.B JXJXJXJXJXJXJXJXJXJXJXJX",
"JXJXJXJXJXJXJXJX*.5Xl.3XFXBXwXCXFXhX%.> s >.U U F =.b.! 9 = - - - # X X : A g.:XCXDXbX*Xn.J 4 q M Y.G.0 JXJXJXJXJXJXJXJXJXJXJXJX",
"JXJXJXJXJXJXJXJX^.v.K.FXxX<XFXFX.Xn a e.h h Z g o % 0 8 b V c 2 u ) f.,XSXFXFXFX<X8.4.j.X.P w r ! 6XU.9 JXJXJXJXJXJXJXJXJXJXJXJX",
"JXJXJXJXJXJXJX9.Y.M.ZXxXfXFXbXh.z L n r.j @ v h C v $.9.C k ! }.kXFXFXFXGXeXZ.~ K K.1X9XjXY.I 9 b.uXR.9 JXJXJXJXJXJXJXJXJXJXJXJX",
"JXJXJXJXJXJXJXY.N.iXxXxXFX>XQ B.M.P # # _ 2.} 9.$.z.0.g H &XDXFXFXFXAX$Xv.z f z l.7XQ '.FXvXl.n R.pX!.r JXJXJXJXJXJXJXJXJXJXJXJX",
"JXJXJXJXJXJX<.Y.3XlXxXFX+XX.Y.(.3.t v Y f.:.Z.8.< 0.k ! mXFXFXCXwX X5.d F.>X@X;X;X&X.XS.<XlXK. .x.OX!.Z JXJXJXJXJXJXJXJXJXJXJXJX",
"JXJXJXJXJXJXY./.yXzXFXOX^ c.J.T.T M >.`.5.x.*Xa.F d ] F.vXS.] &.W W Y ~ 1.2XeX9XOX XOXOXA.8.}.5.<.0X8XB JXJXJXJXJXJXJXJXJXJXJXJX",
"JXJXJXJXJX*.Y.7XbXFX0Xl 9 v M F T g.yX4X .z. Xr.;.r.FXoX=.V.S 4.k.c.v.~.H.S z ^ c.v... .> '.FX$X} AXiXh JXJXJXJXJXJXJXJXJXJXJXJX",
"JXJXJXJXJXB.Q.cXGXZXW ( @.z.<.* a.uX| l |.+.{.e.eXFX|.Y <.T.).6X5X(.Y.6XiXF.P.L.1XC.C 6.4.%.FXAX} bXiXq JXJXJXJXJXJXJXJXJXJXJXJX",
"JXJXJXJX) m.rXAXFX2Xl =.J.Q.b.9.4.,.@X' [.[.w :XoXa |.mX,.H F ` ;.t.e.G _ r.q.q.V.L.z.g b.z ].FXa.yX,XJXJXJXJXJXJXJXJXJXJXJXJXJX",
"JXJXJXJXk.U.MXBXDXC.~ Y.J.4.z u.].V ;X-X  + 8.;X_ v FX&Xk.8Xy.O JXJXJXJXJXJXp g { P.h.-.o.5.$.FX.XqX XJXJXJXJXJXJXJXJXJXJXJXJXJX",
"JXJXJXJXl.3XAXGXZX&.! &.l O.`. XvXy.E v p # e.jXt DXjXW ).tXtXH JXJXJXJXJXJXJXi H &.w.>.L b.,.zXoX&Xs.JXJXJXJXJXJXJXJXJXJXJXJXJX",
"JXJXJXJXm.iXCXFXnXd . f.y.*XGXiXz.1 5.F + u.,Xr.=XDXl  .b.{ t JXJXJXJXJXJXJXJXJX_ F.g.n.M 7.k.gX*XP._ JXJXJXJXJXJXJXJXJXJXJXJXJX",
"JXJXJX} I.AXNX:X8.) @.D.mXCXGXDXq.: =.=.X '.:X+.FXM X r 6 JXJXJXJXJXJXJXJXJXJXJX_ *X.XF.%.*.n.yX;Xh.JXJXJXJXJXJXJXJXJXJXJXJXJXJX",
"JXJXJX .(.FXGX`.oX.X&X:XGXFXFXZXK < T 0.$X:.r.AXO.  e JXJXJXJXJXJXJXJXJXJXJXJXJXF &X;X#X=.! C.0X*X%.JXJXJXJXJXJXJXJXJXJXJXJXJXJX",
"JXJXJXl.rXFXFXFX#XJ 0.AXAXFXDX0.1 0 C S jX`.#Xs.  JXJXJXJXJXJXJXJXJXJXJXi.JXJXZ 0.g.u.i.s.*.A.L.W.O.JXJXJXJXJXJXJXJXJXJXJXJXJXJX",
"JXJXM N.MXFXFXvX^ g P k.iXnXz.1 0 < ( eX_ V.s.JXJXJXJXJXJXJXJXJXJXJXJXJXq.- ( ! A.FXbXMXF.! K.P.A.( JXJXJXJXJXJXJXJXJXJXJXJXJXJX",
"JXJXJ 5XFXFXFXP.m 4 1 P.FX2X, 0 c s J jX8.n + JXJXJXJXJXJXJXJXJXJXJXJXg.& - ;X1X:.y.9.! N =.U.L.r.JXJXJXJXJXJXJXJXJXJXJXJXJXJXJX",
"JXJX..nXFXFXvXJ = L I.DXDX! 8 S z.#XlX$.3.;.$ JXJXJXJXJXJXJXJXJXJXJXf.m V DX*Xq.FXfX:X<X:.z.J.F.' JXJXJXJXJXJXJXJXJXJXJXJXJXJXJX",
"JXJXv.mXFXFXL.: P N.1XFX Xl n 0.DXFXoX7 =.ZX<Xp.( JXJXJXJXJXJX_ A.vXf.7 FXvXl H *X3XR.F.L G.W.g.a.%X*XJXJXJXJXJXJXJXJXJXJXJXJXJX",
"JXJXN.ZXFXAXY : J. .xXFXQ k M CXFXwX> - : :.FXvXL._ g.#XM.k I 7XpXZXt &XrX>  XbXS.a.a.! Y R.|. Xg.| nXsXJXJXJXJXJXJXJXJXJXJXJXJX",
"JXJX!.FXFXeX, 9.5.O.FX&Xn # XXFXvXk c &.) 1 2 P vX X*XeXcX&X$XAXFX@X2 J.I +.a.+XeXyXiX7.~ OX XDX'.> yXDXu.JXJXJXJXJXJXJXJXJXJXJX",
"JXJX!.FXFX>.n ^., -XFX| JX' FXcXS ; B ) &.&.a D.jXP g.NXFXFXXX-XFXr.: k K FXxX;.*.<.I s 8.*X>.MX) & 8.mX2Xt.JXJXJXJXJXJXJXJXJXJX",
"JXg !.FXbX1 v.} = FX3XJXJX2XvX1 JXJXJXJX4 G.&.P `.:.kXFXFXFXB #.FXO.@ g.eX8.OXrX0X&XL N qXe.Z 7XC 1 ) qXmXsXJXJXJXJXJXJXJXJXJXJX",
"JXD 7XFX.XS J.. p.ZX~ JXJXR.g JXJXJXJX4 F.tX{ xXFXoXCXFXFXf.  #.FX_ S x.AX,Xw.0.3.T C O.a.5 a.T.0 v =.P.yX,XJXJXJXJXJXJXJXJXJXJX",
"JXD 7XFXu. .] JXeX3XJXJXJXJXJXJXJX{.BXhXnXn.S.FXBXoXFXFXd.& , oXFX%.L 2X2.Z.4XqXq.1 r b w JXG.v.0 C 3.} :XyX[ JXJXJXJXJXJXJXJXJX",
"JXN W.mX7.4.JXJXpX! JXJXJXJXJXJX<XFXFXxX XS.CXFXd.kXFXd.  Y n._ F.Z.* ,XCX! W ~ v L M $.JXe.J.1.r Y ) +.4XbXJXJXJXJXJXJXJXJXJXJX",
"JXh G.OX5.! JXJX3XJXJXJXJXJXJX-XFXxX>.o.=XGXFX+.:.FX{.X 3.5X%.  9 K.v t eXK.} v Y nXy.z 0.yX3Xn.g $.JX_ tX>XJXJXJXJXJXJXJXJXJXJX",
"JXZ c.1.5.6 JXA.8.JXJXJXJXJX` FXFXA.> i.BX.XM l 0XfX7 H V.Y 7 r - 3.<.= * I ;.JX! nX`.z ZXAXn.o.9 ' JX[ &XJXJXJXJXJXJXJXJXJXJXJX",
"JXZ 5.&.*.JXJXV.JXJXJX~ iXpXMXFXD.> 8 FXFXM   =XzXzX'.3 < r P T r P 0.= q <.( y K x.qXFXNX:. .m ( JXJXJX+.JXJXJXJXJXJXJXJXJXJXJX",
"JXh <.<.F JXJXJXJXJXI nXFXFXFX<Xm : t.FX.XX 1 VXzXH V v T ! &.&.*.P q.$.b T  Xk s.FXFX[.I W c.,.JXJXJXJXJXJXJXJXJXJXJXJXJXJXJXJX",
"JXJX&.<.6 JXJXJXJXJX7XFXFXhXbX;.2 * -XFX! X.0XFXOX& 9 <.z.G.Y././.v.{ $.1 P MXF '.sXL ^ m.u.JXJXJXJXJXJXJXJXJXJXJXJXJXJXJXJXJXJX",
"JXJX,.*.$ JXJXJXJXg iXFXFX`.d.v c 1 zXsXX.vXFXSX1 o ] /.6X5XT.G.*.C t c k.!.qXw q m m.H.JXJXJXJXJXJXJXJXJXJXJXJXJXJXJXJXJXJXJXJX",
"JXJX<.*.JXJXJXJXJX*X#XFX,X1 C b T 1 xX`.z GXFXr.& B F c.9.Y M 9 0 0 k G.5X7Xr.JXi M.n.JXJXJXJXJXJXJXJXJXJXJXJXJXJXJXJXJXJXJXJXJX",
"JXJX=.$.JXJXJXJXoXu.w.FXd.@ c L %.m wXi.1 ZXbXJ z.P 8 t v 9 L o.9 T R.ZXrXB.JXJXJXZ JXJXJXJXJXJXJXJXJXJXJXJXJXJXJXJXJXJXJXJXJXJX",
"JXJXG U JXJXJXJX<X! D.FX;Xs C $.6.} K.G.N %. XA.Y q q v L 4.b.Y & u.FXFX=.2 JXJXq g JXJXJXJXJXJXJXJXJXJXJXJXJXJXJXJXJXJXJXJXJXJX",
"JXJX6 j JXJXJXJX>Xk yXFX*Xa F b.z.T N.z.P < M B ; 4 < r c.7XG.8 = P XXV.J P _ >.1X5Xv.JXJXJXJXJXJXJXJXJXJXJXJXJXJXJXJXJXJXJXJXJX",
"JXJXJXJXJXJXJXJX`. .AXFXr.1 } ).*.t U L V v = - < L b c rXuXH 4 P 0 X OXFXFXDXFXFXnXpX! JXJXJXJXJXJXJXJXJXJXJXJXJXJXJXJXJXJXJXJX",
"JXJXJXJXJXJXJXJX_ OXFXzXs { (.JXJXq { $.b v < L !.J.q Z ZXOXs $.o.8 - g.NXFXFXwXbXFXFX$XJXJXJXJXJXJXJXJXJXJXJXJXJXJXJXJXJXJXJXJX",
"JXJXJXJXJXJXJXJX) AXFX%.S U.JXJXJXJX<.K.$.c H.aX~.c JXJXrXw.} v.b C *.J H P L , >.FXFXg.JXJXJXJXJXJXJXJXJXJXJXJXJXJXJXJXJXJXJXJX",
"JXJXJXJXJXJXJXJX&XFX<Xf z.0.JXJXJXJXJXj ( L ^.L.7 JXJXJXc P 8Xb.= C 3.*.,.,.} I m w.>.JXJXJXJXJXJXJXJXJXJXJXJXJXJXJXJXJXJXJXJXJX",
"JXJXJXJXJXJXJXJX1XAXg.H J z.D.JXJXJXJX( w JXL e JXJXJXJXJXJXJXJX5 P % o 8 $.M.9.B JXJXJXJXJXJXJXJXJXJXJXJXJXJXJXJXJXJXJXJXJXJXJX",
"JXJXJX@XyX%.JXJXJX| T 1 A.L.S.yX'.+.r.+.JXJXJXJXJXJXJXJXJXJXJXJXOXM 8 s.o.; w JXJXJXJXJXJXJXJXJXJXJXJXJXJXJXJXJXJXJXJXJXJXJXJXJX",
"JXJXFXFXR ;.iX! ` _ m A.lXi 3 &.*Xd.' JXJXJXJXJXJXJXJXJX;XJXJXyX%.v a.!.&.JXJXJXJXJXJXJXJXJXJXJXJXJXJXJXJXJXJXJXJXJXJXJXJXJXJXJX",
"JXNXMXP dXFXz =.lXeX .aXt.JXJXJXJXJXJXJXJXJXJXJXJXJX'.FXFXO.,Xr.> $.*.1 JXJXJXJXJXJXJXJXJXJXJXJXJXJXJXJXJXJXJXJXJXJXJXJXJXJXJXJX",
"JXlXX dXDX{ ].GXBXP.,.P.JXJXJXJXJXJXJXJXJXJXJX#.SXt.r.@Xr +. X< .X:XC ( JXJXJXJXJXJXJXJXJXJXJXJXJXJXJXJXJXJXJXJXJXJXJXJXJXJXJXJX",
"e.JXJXZX* t.FXFXvXN Q 9.JXJXJXJXJXJXJXJXJXJXXXDXeX5 2 l & 8 r =XxX'.8 d.%.s.sX=X].JXJXJXJXJXJXJXJXJXJXJXJXJXJXJXJXJXJXJXJXJXJXJX",
"JXJXwXJXJXFX*X-.W >.L.JXJXJXJXJXJXJXJXJXJXt..X0 . O N 9 - - Y A   : DXfXy b DXFXDXCXJXJXJXJXJXJXJXJXJXJXJXJXJXJXJXJXJXJXJXJXJXJX",
"JXJXj JXp.|.JXJXJXq.JXJXJXJXJXJXJXJXJXJXJXJXJXJXJXJXJXJXJXJXJXT X R iXFXFXe.@ XXMXi.r.JXJXJXJXJXJXJXJXJXJXJXJXJXJXJXJXJXJXJXJXJX",
"JXJXJXJXJXJXJXJXJXJXJXJXJXJXJXJXJXJXJXJXJXJXJXJXJXJXJXJXJXJXJXJXJXJXw.vXFXFXJXJX' JXJXJXJXJXJXJXJXJXJXJXJXJXJXJXJXJXJXJXJXJXJXJX"
};
