/* XPM */
static char *_55e8a91651f4374a09f105cb2a16792XmB2e4HaEuKtyTV5[] = {
/* columns rows colors chars-per-pixel */
"64 64 164 2 ",
"   c #555B5B",
".  c #545D5C",
"X  c #565C5C",
"o  c #575D5D",
"O  c #555E5D",
"+  c #565F5E",
"@  c #585E5E",
"#  c #595F5F",
"$  c #57605F",
"%  c #5A6060",
"&  c #5B6161",
"*  c #5A6362",
"=  c #5C6262",
"-  c #5D6363",
";  c #5C6564",
":  c #5F6565",
">  c #626868",
",  c #636969",
"<  c #616A69",
"1  c #646A6A",
"2  c #656B6B",
"3  c #646D6C",
"4  c #666C6C",
"5  c #676D6D",
"6  c #656E6D",
"7  c #686E6E",
"8  c #696F6F",
"9  c #687170",
"0  c #6B7473",
"q  c #6D7675",
"w  c #6F7877",
"e  c #717777",
"r  c #737979",
"t  c #717A79",
"y  c #727B7A",
"u  c #747D7C",
"i  c #767C7C",
"p  c #777D7D",
"a  c #767F7E",
"s  c #787E7E",
"d  c #7A8080",
"f  c #7B8181",
"g  c #7A8382",
"h  c #7C8282",
"j  c #7D8383",
"k  c #7B8483",
"l  c #7C8584",
"z  c #7E8484",
"x  c #7E8786",
"c  c #7F8887",
"v  c #808686",
"b  c #818787",
"n  c #838989",
"m  c #818A89",
"M  c #858B8B",
"N  c #848D8C",
"B  c #878D8D",
"V  c #858E8D",
"C  c #868F8E",
"Z  c #888E8E",
"A  c #898F8F",
"S  c #87908F",
"D  c #889190",
"F  c #8A9090",
"G  c #8B9191",
"H  c #899291",
"J  c #8A9392",
"K  c #8C9292",
"L  c #8D9393",
"P  c #8B9493",
"I  c #8C9594",
"U  c #8E9494",
"Y  c #8F9595",
"T  c #8D9695",
"R  c #8E9796",
"E  c #8F9897",
"W  c #909696",
"Q  c #919797",
"!  c #909998",
"~  c #939999",
"^  c #919A99",
"/  c #929B9A",
"(  c #949A9A",
")  c #939C9B",
"_  c #949D9C",
"`  c #969C9C",
"'  c #959E9D",
"]  c #969F9E",
"[  c #97A09F",
"{  c #98A1A0",
"}  c #9BA1A1",
"|  c #99A2A1",
" . c #9AA3A2",
".. c #9CA2A2",
"X. c #9DA3A3",
"o. c #9BA4A3",
"O. c #9CA5A4",
"+. c #9FA5A5",
"@. c #9DA6A5",
"#. c #9EA7A6",
"$. c #9FA8A7",
"%. c #A0A6A6",
"&. c #A0A9A8",
"*. c #A3A9A9",
"=. c #A1AAA9",
"-. c #A2ABAA",
";. c #A4AAAA",
":. c #A5ABAB",
">. c #A3ACAB",
",. c #A4ADAC",
"<. c #A7ADAD",
"1. c #A5AEAD",
"2. c #A6AFAE",
"3. c #A8AEAE",
"4. c #A9AFAF",
"5. c #A7B0AF",
"6. c #A8B1B0",
"7. c #AAB0B0",
"8. c #ABB1B1",
"9. c #A9B2B1",
"0. c #AAB3B2",
"q. c #ACB2B2",
"w. c #ADB3B3",
"e. c #ABB4B3",
"r. c #ACB5B4",
"t. c #AEB4B4",
"y. c #AFB5B5",
"u. c #ADB6B5",
"i. c #AEB7B6",
"p. c #AFB8B7",
"a. c #B0B6B6",
"s. c #B1B7B7",
"d. c #B0B9B8",
"f. c #B2B8B8",
"g. c #B3B9B9",
"h. c #B1BAB9",
"j. c #B2BBBA",
"k. c #B4BABA",
"l. c #B5BBBB",
"z. c #B3BCBB",
"x. c #B4BDBC",
"c. c #B6BCBC",
"v. c #B7BDBD",
"b. c #B5BEBD",
"n. c #B6BFBE",
"m. c #B8BEBE",
"M. c #B9BFBF",
"N. c #B7C0BF",
"B. c #B8C1C0",
"V. c #BAC0C0",
"C. c #BBC1C1",
"Z. c #B9C2C1",
"A. c #BAC3C2",
"S. c #BCC2C2",
"D. c #BDC3C3",
"F. c #BBC4C3",
"G. c #BCC5C4",
"H. c #BEC4C4",
"J. c #BFC5C5",
"K. c #BDC6C5",
"L. c #BEC7C6",
"P. c #BFC8C7",
"I. c #C0C9C8",
"U. c #C1CAC9",
/* pixels */
"= @ o : 2 > X @ @ @ % @   @ @ @ = 7 4 = @ X @ > > = X = 2 7 7 7 2 > > > = @ > , 2 @ o & @ o & o o * < 6 6 9 0 y u 0 ; O $ $ O * ",
"e i v U ' L v d j j s r r s j j A W W n j j n W ~ L A W } :.%.' U L A j r j A ~ L v s s e e i f f c J [ @.5.p.b.d.$.J g a t w t ",
"*.8.g.v.m.v.k.m.k.k.a.q.q.a.k.m.S.S.m.k.k.v.m.S.m.m.m.k.v.v.m.m.m.m.c.f.q.a.k.k.k.g.t.q.4.4.t.k.j.N.B.B.N.N.N.N.B.B.N.b.b.0. ._ ",
"t.m.V.V.V.m.V.V.S.V.m.k.m.S.S.I.S.m.m.S.S.S.M.m.S.S.m.m.m.m.m.m.k.4.%.+.:.a.m.k.V.S.S.v.k.v.k.m.N.B.B.B.B.B.B.B.Z.Z.B.N.B.B.b.p.",
"t.v.V.V.V.G.N.v.v.m.m.N.S.M.S.M.G.H.I.S.m.v.V.F.S.m.v.v.6.} ~ ~ W D C c d M %.m.v.N.v.g.k.z.g.v.B.N.b.N.b.b.b.b.j.b.N.N.N.N.j.u.",
"<.v.V.B.v.m.B.V.m.V.V.G.I.I.S.I.G.F.S.S.m.m.N.v.c.c.v.v.*.L C J ..<.k.t...~ ..4.j.v.m.V.V.V.v.b.N.b.b.b.b.N.N.N.N.N.N.j.j.B.N.u.",
"' 8.N.V.N.v.B.B.V.V.F.V.F.V.M.S.B.b.v.N.V.B.b.5.:.-.8.j.v.j.g.b.m.V.F.F.V.j.%.D c S $.p.v.V.F.B.N.N.N.N.b.N.N.B.N.N.B.N.b.j.5.! ",
"D ) @.,.p.N.N.v.B.F.F.G.F.V.m.m.N.N.B.N.j.j.h.5.U ' ,.b.G.F.G.G.F.P.P.F.G.G.v.$.c J 5.F.F.Z.F.F.N.N.N.N.N.b.N.B.N.N.F.B.b.p.[ g ",
" .,.@.H E 5.N.B.B.B.N.B.B.B.N.N.B.N.N.N.B.B.N.B.j.b.B.G.G.G.F.F.F.G.F.G.G.G.F.B.N.b.j.Z.G.B.B.N.N.N.b.b.b.b.N.N.N.N.N.B.B.h.,.E ",
"p.F.B.5.[ { ,.j.N.B.N.N.B.B.B.B.B.B.B.B.Z.B.F.F.F.F.F.G.G.F.F.F.V.B.B.F.F.F.G.F.N.B.N.N.h.h.j.N.N.N.N.j.p.d.h.N.B.B.N.N.N.N.N.0.",
"p.b.b.b.d.0.5.9.b.N.b.N.B.B.B.B.B.B.B.B.Z.Z.F.F.G.F.Z.B.B.B.B.B.N.N.N.N.B.F.G.F.G.Z.p.@._ @.u.B.b.B.B.b.j.j.j.h.d.B.B.B.j.j.B.N.",
"J $.j.F.F.B.b.j.b.N.N.N.N.B.B.B.N.N.B.B.B.B.B.B.B.B.N.N.N.B.N.N.B.N.N.N.B.B.B.B.b.B.F.N.d.d.j.b.N.B.B.N.B.B.j.5.,.0.d.b.B.N.j.5.",
"S -.B.G.F.F.B.B.N.N.N.N.N.N.N.N.N.N.B.B.B.B.N.N.B.N.B.B.B.B.B.B.N.N.B.N.N.N.N.N.B.B.B.Z.B.N.b.B.N.B.Z.B.B.B.d.,.E T E $.d.B.b.-.",
"5.d.N.F.K.P.F.N.N.N.N.N.N.N.b.N.N.N.B.B.B.B.B.N.N.B.B.B.N.N.N.N.N.N.B.B.N.N.N.N.F.N.B.F.G.B.N.b.b.B.F.B.B.B.N.j.j.p.9.d.N.N.d.$.",
"N.Z.F.F.G.F.G.P.N.N.N.N.N.N.N.N.N.N.N.j.b.b.N.B.N.N.N.N.N.N.N.b.N.N.B.B.N.N.N.N.N.j.b.b.N.N.b.b.b.N.B.F.F.F.P.P.F.G.G.P.G.N.N.u.",
"j.Z.B.N.F.P.G.B.N.N.N.N.N.N.N.N.b.j.p.p.p.j.b.B.B.N.N.N.N.b.N.N.N.B.B.B.N.N.b.N.j.N.b.j.b.B.Z.B.B.N.N.F.G.P.G.F.P.P.F.G.F.N.b.u.",
"u.b.Z.B.B.B.B.B.N.N.b.N.b.N.N.b.j.$.J H _ 5.N.N.N.N.N.N.N.B.B.N.Z.Z.Z.B.N.b.j.b.N.b.b.N.N.N.N.B.N.N.B.Z.F.F.F.B.F.F.G.F.N.B.N.u.",
"5.p.j.N.N.N.N.B.N.b.N.b.N.b.b.b.d.5.@.$.5.j.j.u.N.N.b.b.j.b.j.b.d.j.B.B.N.N.N.N.N.B.N.N.b.N.B.F.B.F.B.b.h.N.Z.G.B.B.B.N.b.B.N.u.",
"5.d.b.j.N.N.N.N.b.N.N.N.N.N.N.N.B.b.b.N.B.b.0.$.@.,.0.5.| T T ) u.d.b.N.B.B.B.F.F.F.B.B.N.N.j.u.N.b.b.F.F.B.b.N.N.N.N.d.h.N.j.5.",
"j.N.N.N.b.N.N.N.N.N.b.N.N.N.N.b.N.N.N.F.G.F.j.u.@._ E E [ @.0.b.j.N.N.N.N.N.F.G.G.F.B.N.B.B.p.,.! ,.N.b.j.b.B.N.N.b.b.b.b.N.b.0.",
"b.B.F.N.N.B.N.N.N.N.N.N.B.B.N.N.b.b.b.N.B.F.G.P.N.p.u.b.F.F.F.F.F.B.B.N.N.N.B.Z.Z.F.B.N.Z.F.b.0.T { 5.b.N.N.j.b.b.d.h.N.N.B.B.N.",
"u.b.N.N.B.B.N.b.N.N.N.B.B.B.B.N.N.N.N.N.j.N.N.F.G.G.P.P.G.B.B.G.Z.B.N.N.B.B.B.N.B.B.F.N.N.B.B.N.j.$.[ $.p.N.N.b.B.b.N.B.F.F.G.Z.",
"p.j.N.b.N.B.N.N.N.N.N.B.B.B.N.b.j.N.N.j.j.j.N.B.P.F.B.B.F.G.F.B.N.N.N.N.Z.B.B.N.B.B.B.N.b.j.N.N.N.j.,.! ) 5.N.b.j.N.F.F.B.F.B.p.",
"d.N.N.j.j.b.b.N.N.N.N.N.B.B.N.b.N.Z.F.N.j.j.N.Z.B.G.G.B.N.N.N.N.N.B.B.B.B.B.B.Z.F.N.N.N.B.N.N.b.N.b.b.j.5.@._ [ | ,.p.u.u.p.5.{ ",
"j.j.b.b.j.N.N.N.N.N.N.N.N.N.j.b.N.B.G.K.F.B.B.B.B.B.B.N.N.N.N.B.N.B.B.B.N.N.N.B.N.N.F.B.b.j.j.b.B.Z.Z.Z.F.N.0.$.! ) E ) ) ) T c ",
"p.j.b.j.j.b.N.B.N.N.N.N.b.j.b.j.B.G.G.K.F.F.F.F.B.B.N.N.b.N.N.N.N.B.B.B.N.N.N.B.N.B.B.B.N.j.j.b.B.B.Z.Z.F.G.F.N.N.B.N.B.N.N.b.5.",
"! ,.j.N.N.N.b.N.N.N.N.b.b.j.N.B.F.G.G.F.F.Z.Z.F.N.N.N.N.N.N.N.N.B.B.B.B.N.N.N.B.N.B.B.B.N.b.N.N.B.F.F.B.N.F.G.G.Z.F.B.F.B.B.B.h.",
"l @.b.F.G.N.j.N.N.N.b.b.j.N.Z.G.F.B.N.N.B.B.B.N.N.N.N.N.N.N.N.N.N.N.N.N.N.N.N.N.N.N.N.B.N.N.N.N.N.F.G.Z.N.N.N.N.F.B.N.B.Z.B.B.h.",
"_ u.F.F.G.F.N.F.b.j.j.b.N.B.G.G.F.N.N.N.N.N.N.N.N.N.N.N.N.N.N.N.N.N.N.N.N.N.N.b.N.N.N.Z.F.Z.N.N.N.B.Z.F.B.B.N.N.b.b.d.N.N.b.h.5.",
"j.G.G.B.F.F.B.N.N.b.j.b.N.B.B.B.B.B.N.N.N.N.N.N.N.N.N.N.N.N.N.N.N.N.b.N.N.N.b.N.b.N.B.B.B.B.B.N.N.N.N.N.F.F.F.B.b.j.d.j.b.b.d.$.",
"b.B.B.B.B.Z.B.N.N.b.b.N.B.B.B.N.B.N.N.B.B.B.N.N.N.N.N.N.N.N.B.B.N.N.N.N.N.N.N.N.N.N.N.N.N.N.N.N.B.N.N.B.B.Z.B.N.j.b.h.j.j.j.u.{ ",
"p.j.B.B.N.b.B.B.b.b.N.B.B.B.N.N.N.N.B.B.B.N.N.N.N.N.N.N.N.B.B.B.B.B.N.N.B.N.N.b.N.N.N.b.b.j.N.B.G.F.B.F.F.Z.B.N.N.F.N.N.N.N.p. .",
",.b.B.N.N.N.B.N.B.F.F.F.Z.N.N.N.N.N.N.N.N.N.b.N.b.N.B.B.B.B.Z.j.B.N.N.N.b.N.N.N.F.j.j.b.j.N.B.G.P.B.N.N.Z.N.j.b.N.N.B.Z.F.N.d.u.",
"-.j.B.N.N.N.Z.B.B.Z.F.F.B.b.b.j.b.N.b.N.N.N.N.N.B.N.N.N.b.B.Z.N.j.b.B.Z.B.B.b.j.h.-.$.0.N.P.K.F.N.N.B.N.j.u.0.p.b.b.B.B.F.B.b.p.",
",.j.N.B.N.b.B.B.B.B.B.Z.N.N.j.b.b.b.b.N.N.N.N.N.N.N.Z.G.B.b.N.N.B.N.b.j.j.b.b.b.5.9.j.G.G.B.B.N.b.B.N.p.9.5.u.j.N.N.B.B.Z.F.B.b.",
"p.B.B.Z.B.b.B.B.N.B.N.N.N.N.N.N.N.N.N.N.N.N.b.N.N.j.b.b.b.N.B.N.N.N.N.N.N.b.d.p.b.j.N.B.B.B.F.N.j.j.u.5.5.p.N.F.B.F.G.F.F.Z.N.b.",
"j.B.B.B.F.N.N.N.N.N.N.N.B.B.B.B.N.N.N.N.N.b.N.b.F.B.B.b.h.b.h.u.@. .@.-.0.j.N.b.N.N.N.N.b.B.b.u.u.u.u.u.j.B.F.B.K.G.G.F.B.Z.N.j.",
"j.B.b.B.B.N.N.N.N.N.B.B.N.N.B.Z.N.N.N.N.N.N.N.N.j.b.b.,.^ J E _ T J H T [ -.p.j.j.b.d.$.[ $.9.p.u.h.b.N.N.F.F.F.G.F.F.B.B.B.N.h.",
"0.b.b.N.B.N.N.N.N.N.N.N.N.N.B.B.N.N.N.b.N.b.N.N.B.N.d.,.! J { 9.j.j.d.d.h.j.b.N.N.N.N.b.d.b.B.N.N.B.B.B.B.B.G.G.F.B.N.N.B.N.j.u.",
"5.h.b.N.N.N.B.N.N.N.N.N.N.N.B.N.B.N.N.b.b.j.j.b.5.$.-.b.N.j.N.F.G.G.F.B.N.N.N.F.F.B.F.G.F.Z.F.F.F.N.N.B.F.Z.B.N.B.B.b.b.N.N.d.0.",
"p.p.b.B.B.N.N.b.B.B.B.N.N.N.B.N.N.B.Z.N.j.p.) g l [ p.F.F.G.G.F.F.B.B.N.Z.G.G.F.P.P.P.G.F.F.F.F.F.N.j.N.F.N.N.B.N.N.N.N.N.b.N.u.",
"d.b.N.N.N.N.B.B.N.N.N.B.B.F.B.B.F.B.B.B.B.d.{ V @.d.P.K.Z.B.N.b.j.j.b.N.B.B.F.G.G.K.G.F.F.F.F.Z.N.F.F.N.N.b.b.N.N.N.j.N.N.Z.F.p.",
",.j.F.N.N.N.N.N.B.B.N.b.N.N.b.b.b.b.N.N.B.B.j.b.B.G.K.F.B.b.,._ d.j.B.F.F.Z.G.G.Z.F.B.Z.B.B.B.B.B.B.b.d.j.B.B.B.N.N.N.N.B.N.d.-.",
"_ u.N.j.N.B.N.N.N.b.N.N.N.F.F.F.B.N.B.N.N.B.N.Z.N.Z.F.N.N.j.b.d.b.N.F.F.F.Z.F.F.N.N.N.N.N.N.B.N.B.Z.N.N.B.B.b.j.b.N.j.N.N.N.j.$.",
"@.b.F.b.N.N.b.N.N.b.N.N.N.N.j.p.p.5.$. .,.b.N.b.B.j.j.N.N.b.N.G.N.B.B.F.B.B.B.N.N.N.b.N.b.N.N.N.N.B.B.B.j.p.d.B.N.B.N.b.b.N.j.5.",
"[ 0.b.b.N.b.b.j.N.N.N.b.d.0.-.$.E J S H { p.b.b.p.-.$.p.F.P.G.Z.F.Z.N.N.B.B.B.N.N.N.N.N.N.N.N.N.N.N.b.b.p.5.$.5.p.N.N.B.N.b.j.,.",
"V ) ,.d.N.N.N.N.N.N.N.N.b.d.u.0.-.5.d.j.N.B.N.B.G.B.b.b.N.B.F.P.F.B.B.N.B.B.Z.B.N.B.N.N.b.N.N.N.B.N.N.F.F.u. .! 5.p.b.N.B.B.b.,.",
"{ $.p.N.B.N.N.N.N.N.j.j.b.b.b.N.G.B.G.B.N.N.N.G.Z.B.N.B.F.G.F.B.B.B.N.N.B.N.B.N.N.N.N.N.b.b.b.b.b.b.b.N.F.G.B.b.j.B.N.b.b.N.N.5.",
"b.B.F.B.B.Z.B.B.N.N.N.j.b.N.N.N.B.B.B.B.F.F.B.N.N.B.Z.Z.B.B.B.B.B.F.Z.N.b.N.B.N.N.B.B.N.b.N.N.b.j.j.b.B.G.P.K.Z.F.B.N.N.N.N.u.$.",
"j.F.G.B.B.B.B.B.B.B.Z.B.B.Z.B.B.b.b.N.N.N.N.B.N.B.B.N.N.b.N.N.B.B.B.B.b.b.b.j.u.d.b.N.B.B.B.N.N.N.N.B.B.F.G.G.F.B.N.N.b.N.N.u.@.",
"d.N.B.B.B.N.B.B.B.F.F.F.G.G.F.F.N.N.b.b.b.N.N.F.F.N.N.j.j.N.N.B.B.B.N.N.N.N.p.5.,.5.0.b.B.N.N.b.B.B.B.B.N.N.N.N.B.N.b.N.N.N.p.-.",
"h.b.b.N.N.N.N.B.B.B.B.F.F.F.F.F.F.F.F.B.N.N.B.G.F.F.B.B.N.N.N.N.B.B.B.B.F.Z.b.p._ [  .5.p.b.N.F.F.F.F.Z.N.N.N.N.B.N.N.N.B.B.b.u.",
"b.N.N.b.N.B.N.N.N.N.N.N.B.B.B.Z.G.K.K.G.N.N.N.B.Z.F.Z.F.Z.B.N.N.N.N.B.B.Z.F.F.B.Z.b.j.N.B.B.N.N.B.B.F.B.B.N.b.N.N.b.N.N.N.N.N.j.",
"0.j.b.b.B.B.B.Z.B.N.N.N.b.b.N.B.B.F.F.B.B.N.b.b.B.B.F.F.F.B.b.b.N.N.N.B.N.N.Z.F.F.B.N.B.Z.B.N.N.N.B.Z.B.N.N.N.N.N.N.N.N.j.b.N.j.",
"@.0.b.N.N.B.B.B.B.B.N.b.b.N.N.N.N.N.B.B.B.N.N.j.N.B.B.N.N.N.b.b.N.b.N.N.N.N.B.F.G.G.F.N.N.B.N.j.b.N.N.N.B.N.N.N.N.b.N.b.b.N.N.h.",
"| u.B.B.N.N.B.N.N.B.N.b.N.N.N.N.B.N.N.B.Z.B.N.N.B.N.N.b.b.b.b.N.b.N.b.N.N.N.N.B.B.B.N.b.b.N.B.b.N.b.b.N.N.B.B.B.N.b.N.B.N.F.B.j.",
",.j.N.N.N.N.B.N.B.N.N.N.N.N.N.N.N.N.N.B.Z.F.F.N.N.N.N.b.b.b.B.Z.Z.N.b.b.N.N.N.N.F.B.B.N.b.b.N.N.N.N.B.N.B.N.N.N.B.N.B.F.B.B.B.N.",
"b.F.F.B.N.b.N.b.B.B.B.B.F.B.N.N.N.N.B.B.F.F.G.Z.N.N.B.N.N.N.B.B.N.b.j.j.j.b.N.N.B.B.F.F.B.N.b.b.N.N.N.N.N.N.b.b.N.b.B.B.B.B.N.j.",
"h.B.b.N.N.N.N.B.N.N.B.F.F.F.B.B.b.N.N.N.N.N.b.j.b.N.N.N.B.F.Z.B.N.j.j.h.b.j.N.B.N.B.Z.B.B.N.N.b.B.B.N.N.N.b.N.N.N.N.N.N.N.N.b.p.",
"u.B.N.N.b.N.N.N.N.N.N.B.B.B.B.N.N.B.B.B.N.N.b.h.j.j.b.N.B.Z.B.B.B.N.N.b.b.b.N.N.N.N.N.b.N.b.b.N.B.B.B.B.N.N.N.N.N.N.N.N.N.N.b.5.",
"@.d.B.b.j.b.N.b.N.N.N.N.B.B.B.N.N.N.b.d.h.j.b.b.b.b.j.b.B.B.B.N.N.b.j.N.N.b.b.b.N.b.j.j.b.j.N.N.N.N.N.N.B.N.B.B.Z.B.B.N.N.B.j.0.",
"_ 0.b.b.b.N.G.F.F.B.B.B.B.F.Z.F.N.b.p.0.u.d.N.B.F.N.N.N.B.B.B.B.j.j.N.B.B.N.N.N.N.N.N.N.N.N.N.B.B.B.B.B.B.F.F.Z.F.B.F.F.Z.F.B.h.",
"u.F.P.K.P.F.G.P.G.G.G.G.K.K.G.K.G.G.N.b.N.Z.P.P.P.K.F.F.G.G.F.F.Z.Z.F.G.K.G.G.G.Z.F.G.P.G.G.G.F.G.G.K.K.K.K.G.P.G.G.G.P.G.G.G.B.",
"F.P.G.P.P.G.P.P.P.P.P.P.P.P.P.P.G.K.P.P.P.P.P.K.P.P.P.P.P.P.P.P.P.P.P.P.P.P.P.P.P.K.P.P.P.P.P.P.P.P.P.P.P.P.P.P.P.P.P.P.P.P.P.G."
};
