/* XPM */
static char *c22df9740e1946dfc945b37097b7ad3eivPMz8m7HoMmrCls[] = {
/* columns rows colors chars-per-pixel */
"64 64 190 2 ",
"   c None",
".  c #0F0D0E",
"X  c #0C030D",
"o  c #100F0F",
"O  c #0E0711",
"+  c #100F10",
"@  c #111212",
"#  c #141F1E",
"$  c #151B15",
"%  c #14270A",
"&  c #1E2929",
"*  c #182626",
"=  c #18362B",
"-  c #123E3F",
";  c #222A2A",
":  c #253132",
">  c #610A0E",
",  c #1F420E",
"<  c #214E0C",
"1  c #2D5C1C",
"2  c #286D18",
"3  c #153F40",
"4  c #2C3F46",
"5  c #164142",
"6  c #1A4445",
"7  c #1F494A",
"8  c #1E4748",
"9  c #234648",
"0  c #244B4C",
"q  c #2A4E4F",
"w  c #264F50",
"e  c #294F50",
"r  c #354B55",
"t  c #2B5253",
"y  c #2D5758",
"u  c #2D595A",
"i  c #335455",
"p  c #3A5556",
"a  c #305658",
"s  c #385758",
"d  c #335B5C",
"f  c #395B5C",
"g  c #356162",
"h  c #3B6364",
"j  c #3C6668",
"k  c #3E6A6B",
"l  c #415F60",
"z  c #426A6B",
"x  c #4D6767",
"c  c #457273",
"v  c #4A7475",
"b  c #4C7A7C",
"n  c #616C6C",
"m  c #88080B",
"M  c #930A0B",
"N  c #B40809",
"B  c #BD0808",
"V  c #AC3511",
"C  c #C60205",
"Z  c #C80707",
"A  c #C80708",
"S  c #C60B09",
"D  c #C90909",
"F  c #C80B07",
"G  c #CA140A",
"H  c #C81C0C",
"J  c #CE070F",
"K  c #C9240D",
"L  c #C53F0F",
"P  c #CA3B13",
"I  c #CF2C15",
"U  c #C62A25",
"Y  c #C33022",
"T  c #DD3433",
"R  c #C93B38",
"E  c #895211",
"W  c #A15C14",
"Q  c #B04413",
"!  c #9E621A",
"~  c #AC6719",
"^  c #A36012",
"/  c #B57218",
"(  c #B16414",
")  c #B7782C",
"_  c #A27030",
"`  c #CA4514",
"'  c #CD5B15",
"]  c #D44C0F",
"[  c #CD6C1C",
"{  c #C66718",
"}  c #DA6918",
"|  c #C8771B",
" . c #DB771B",
".. c #E87E29",
"X. c #EB4B4E",
"o. c #F55A64",
"O. c #C76F70",
"+. c #FA6B68",
"@. c #359108",
"#. c #3D873E",
"$. c #CC821F",
"%. c #E3831E",
"&. c #CD8320",
"*. c #D48A25",
"=. c #D59223",
"-. c #D89820",
";. c #C88E3D",
":. c #DDA223",
">. c #E7AA24",
",. c #E4B327",
"<. c #F4D22C",
"1. c #F0CA28",
"2. c #BF8B46",
"3. c #C29453",
"4. c #D0AE5B",
"5. c #D8B348",
"6. c #FDA751",
"7. c #C49F62",
"8. c #4F7F81",
"9. c #4F7682",
"0. c #548485",
"q. c #588789",
"w. c #5B8C8D",
"e. c #558788",
"r. c #5E8F91",
"t. c #5D9294",
"y. c #629496",
"u. c #67999B",
"i. c #6A9C9D",
"p. c #639798",
"a. c #6B9FA1",
"s. c #69ACAD",
"d. c #7EADAD",
"f. c #70A4A5",
"g. c #79AEB0",
"h. c #6CBCBC",
"j. c #69B3B4",
"k. c #7DB3B3",
"l. c #7BBCBC",
"z. c #7CB7B8",
"x. c #7AC0BF",
"c. c #7ABFC0",
"v. c #79C3C4",
"b. c #77C7C8",
"n. c #78C7C9",
"m. c #76CCCD",
"M. c #7AC9CA",
"N. c #73C3C4",
"B. c #75CFD0",
"V. c #7CCFD0",
"C. c #6CD4D5",
"Z. c #6ED9DA",
"A. c #75D1D2",
"S. c #7AD3D4",
"D. c #6FC2C3",
"F. c #988E8F",
"G. c #A99898",
"H. c #B89B9C",
"J. c #B9A885",
"K. c #81A8A8",
"L. c #98B8BA",
"P. c #85B6B6",
"I. c #A7B9BA",
"U. c #B1BDBE",
"Y. c gray74",
"T. c #A4A6A6",
"R. c #C79696",
"E. c #CD9FA0",
"W. c #D6ADAD",
"Q. c #D8B4B4",
"!. c #C4ADAD",
"~. c #ECB3B3",
"^. c #C0D8B9",
"/. c #93BFC0",
"(. c #A8BFC0",
"). c #84CCCC",
"_. c #99C4C6",
"`. c #82D3D4",
"'. c #8CD6D7",
"]. c #8ED7D8",
"[. c #85D8D9",
"{. c #9DDADB",
"}. c #97D6D7",
"|. c #B9CFC0",
" X c #A4DCDD",
".X c #A8DADB",
"XX c #B4DEDF",
"oX c #AFCBC4",
"OX c #B0DFE0",
"+X c #B6E0E1",
/* pixels */
"                                                                                                                                ",
"                                                                                                                                ",
"                                                          D A S D D                                                             ",
"                                                      D D m B A D T D D                                                         ",
"                                                      D N > N C J +.T A D                                                       ",
"                                                    Z D m M S S D X.o.J C                                                       ",
"                                                    Z G V Q K S A I 6...G A                                                     ",
"                                                    D P [ / ` H H >.,.>.] C                                                     ",
"                                                    H [ / ^ { { [ <.| >. .C                                                     ",
"                                                    G ' 3.) &.$.=.1.7.5. .C                                                     ",
"                                                    J ` 7.|._ W ^ ^.|.4.} C                                                     ",
"                                                    H { ) _ ~ ~ ~ 3.;.*.%.                                                      ",
"                                                    I [ | ( | | &.,.-.<.%.                                                      ",
"                                                      P ` [ &.&.=.<.:.>.D                                                       ",
"                                                      A G [ $./ &.=.*.} C                                                       ",
"                                                        D P W E E ,.*.I                                                         ",
"                                                          G ` { { } G                                                           ",
"                                                  A.A.Z.L.O.U Y U U R R._.Z.A.A.                                                ",
"                                                A.A.A.A.l.F.H.H.O.E.Q.!.M.A.A.A.A.                                              ",
"                                            b.B.A.A.A.A.l.T.E.W.Q.Q.W.oXA.A.A.A.A.A.M.                                          ",
"                                          v.l.b.A.A.A.A.Z.S._.U.oXU.(.).A.A.A.A.A.A.M.v.                                        ",
"                                          z.l.m.A.A.A.A.A.A.A.C.C.B.B.A.A.A.m.b.m.A.m.v.                                        ",
"                                        l.k.b.A.M.v.v.m.A.A.A.A.A.A.A.A.A.m.l.k.b.A.A.b.l.                                      ",
"                                        k.l.A.A.l.k.k.v.A.A.A.A.A.A.A.A.A.M.g.d.v.m.m.m.v.                                      ",
"                                      l.k.v.A.v.d.k.k.l.A.A.A.A.A.A.A.A.A.m.k.k.k.l.l.m.m.v.                                    ",
"                                    l.d.z.B.m.z.  b.l.x.A.A.A.B.A.A.A.A.A.A.}.b.  k.l.m.B.b.c.                                  ",
"                                    k.K.b.B.b.      z.v.A.A.A.A.A.A.A.A.S.S.XX      z.b.B.m.z.                                  ",
"                                    v.v.B.B.M.      z.k.M.A.m.B.A.A.A.A.'. X.X      l.v.m.S.M.                                  ",
"                                    b.k.b.M.b.      z.k.m.B.m.A.A.A.A.A. X X}.    A.z.z.M.}.XX                                  ",
"                                      c.z.v.M.      v.z.M.A.A.A.A.A.A.A.A.S.XX    m.v.v.S.+X                                    ",
"                                      M.c.z.b.v.    v.k.b.A.A.A.A.A.A.A.A.`.+Xm.A.v.k.b.S.'.                                    ",
"                                        M.l.v.m.    M.d.v.B.B.A.A.A.A.A.A.].}.A.A.M.M.m.S.                                      ",
"                                        m.l.z.M.A.B.m.k.l.A.A.A.A.A.A.A.A.'.'.m.b.l.m.{.OX                                      ",
"                                          b.b.v.M.S.m.z.l.m.A.A.A.A.A.A.A.`.}.A.b.v.V. X                                        ",
"                                          A.b.l.l.m.A.l.k.b.S.A.A.A.A.S.A.`. XA.m.A.S. X                                        ",
"                                            b.x.z.b.).P.K.b.S.S.S.S.A.Z.S.`.OXS.S.'.].                                          ",
"                                              b._.I.I.f.i.s.j.h.h.D.D.h.j.s.j.L._.[. X                                          ",
"                                                U.W.G.x s p f l z c k d t 0 x T.|.                                              ",
"                                                ~.H.F.r - 6 q t q 9 6 6 3 - p G.~.                                              ",
"                                                  n - = 6 t b 0.y 0 0 0 0 6 - n                                                 ",
"                                                  v u 6 6 t b v t 0 0 0 0 t y v                                                 ",
"                                                  t.c 6 6 8 t 6 6 6 6 6 8 0 b r.                                                ",
"                                                  w.c 6 5 0 0 6 6 5 6 5 5 0 b w.                                                ",
"                                                  p.k 6 6 w y 6 5 6 8 6 5 6 b y.                                                ",
"                                                b r.g 6 t v w.g   g b u 6 6 h r.b                                               ",
"                                                b q.t 7 t z 0.      0.h 6 6 d q.b                                               ",
"                                                d g 0 8 t b u.      u.b 0 5 0 g d                                               ",
"                                                y.c 8 9 y w.g.      g.w.8 6 8 c t.                                              ",
"                                                v h 0 0 t w.f.      f.w.0 6 0 h b                                               ",
"                                                u y 0 0 d i.w.      w.u.w 6 0 y y                                               ",
"                                                0.k 0 9 i q.z       z e.t 6 0 k 0.                                              ",
"                                                a.e.t 0 t a y       a a w 6 t e.a.                                              ",
"                                                w.r.a q y h b       b j q 6 d r.r.                                              ",
"                                                7 t 0 t i v f.v   v a.v t 0 0 t 7                                               ",
"                                                u 7 0 t i f b j   z b f i 0 0 0 u                                               ",
"                                              p.0.w 0 i p f u.b   b u.f s q 0 0 0.p.                                            ",
"                                              e.c 0 0 i p h y.      y.l s q w w c e.                                            ",
"                                              r.b 0 0 p f z u.      u.x s t 0 w b r.                                            ",
"                                              0.j 9 9 p p v w.      r.v p t 0 9 h 0.                                            ",
"                                            9.r # * & ; & : 4 0   9 9 : & & & # # r 9.                                          ",
"                                            #.1 X # @ o . % @.=   = @.% O @ @ . X 1 #.                                          ",
"                                            2 < O ; @ o . $ ,       , $ @ @ o @ O < 2                                           ",
"                                                                                                                                ",
"                                                                                                                                "
};
