/* XPM */
static char *result[] = {
/* columns rows colors chars-per-pixel */
"64 64 67 1 ",
"  c #5A5A5A",
". c gray38",
"X c gray39",
"o c #676767",
"O c DimGray",
"+ c #6A6A6A",
"@ c #6D6D6D",
"# c #6F6F6F",
"$ c #727272",
"% c gray45",
"& c #747474",
"* c #767676",
"= c #777777",
"- c gray47",
"; c #797979",
": c gray48",
"> c #7B7B7B",
", c #7C7C7C",
"< c gray49",
"1 c #7E7E7E",
"2 c #808080",
"3 c #818181",
"4 c #838383",
"5 c #848484",
"6 c gray52",
"7 c #868686",
"8 c gray53",
"9 c #898989",
"0 c gray54",
"q c #8B8B8B",
"w c #8D8D8D",
"e c #909090",
"r c #939393",
"t c gray58",
"y c gray59",
"u c gray60",
"i c #9B9B9B",
"p c gray61",
"a c gray62",
"s c #9F9F9F",
"d c gray63",
"f c #A2A2A2",
"g c gray64",
"h c #A4A4A4",
"j c #A5A5A5",
"k c gray65",
"l c #A7A7A7",
"z c gray66",
"x c #AAAAAA",
"c c gray67",
"v c #ACACAC",
"b c gray68",
"n c #AEAEAE",
"m c #AFAFAF",
"M c #B2B2B2",
"N c gray70",
"B c gray74",
"V c gray75",
"C c #C6C6C6",
"Z c gray78",
"A c gray81",
"S c gray82",
"D c #DDDDDD",
"F c #DFDFDF",
"G c #EAEAEA",
"H c #ECECEC",
"J c None",
/* pixels */
"Ze        tC#       tZ$        Za        yA$       yS%        mg",
"FysssssssslD9ssssssslF4ssssssssFzsssssssslG0ssssssslHqssssssssVn",
"FyJJJJJJJJxD,JJJJJJJxF:JJJJJJJJFzJJJJJJJJxG1JJJJJJJxH2JJJJJJJJVn",
"FyJJJJJJJJxD,JJJJJJJxF:JJJJJJJJFzJJJJJJJJxG1JJJJJJJxH2JJJJJJJJVn",
"FyJJJJJJJJxD,JJJJJJJxF:JJJJJJJJFzJJJJJJJJxG1JJJJJJJxH2JJJJJJJJVn",
"FyJJJJJJJJxD,JJJJJJJxF:JJJJJJJJFzJJJJJJJJxG1JJJJJJJxH2JJJJJJJJVn",
"FyJJJJJJJJxD,JJJJJJJxF:JJJJJJJJFzJJJJJJJJxG1JJJJJJJxH2JJJJJJJJVn",
"FyJJJJJJJJxD,JJJJJJJxF:JJJJJJJJFzJJJJJJJJxG1JJJJJJJxH2JJJJJJJJVn",
"FyJJJJJJJJxD,JJJJJJJxF:JJJJJJJJFzJJJJJJJJxG1JJJJJJJxH2JJJJJJJJVn",
"FyJJJJJJJJxD,JJJJJJJxF:JJJJJJJJFzJJJJJJJJxG1JJJJJJJxH2JJJJJJJJVn",
"@oooooooooooooooooooooooooooooooooooooooooooooooooooooooooooooo@",
"pjjjjjjjjjjjjjjjjjjjjjjjjjjjjjjjjjjjjjjjjjjjjjjjjjjjjjjjjjjjjjjp",
"FyJJJJJJJJxD,JJJJJJJxF:JJJJJJJJFzJJJJJJJJxG1JJJJJJJxH2JJJJJJJJVn",
"FyJJJJJJJJxD,JJJJJJJxF:JJJJJJJJFzJJJJJJJJxG1JJJJJJJxH2JJJJJJJJVn",
"FyJJJJJJJJxD,JJJJJJJxF:JJJJJJJJFzJJJJJJJJxG1JJJJJJJxH2JJJJJJJJVn",
"FyJJJJJJJJxD,JJJJJJJxF:JJJJJJJJFzJJJJJJJJxG1JJJJJJJxH2JJJJJJJJVn",
"FyJJJJJJJJxD,JJJJJJJxF:JJJJJJJJFzJJJJJJJJxG1JJJJJJJxH2JJJJJJJJVn",
"FyJJJJJJJJxD,JJJJJJJxF:JJJJJJJJFzJJJJJJJJxG1JJJJJJJxH2JJJJJJJJVn",
"FyJJJJJJJJxD,JJJJJJJxF:JJJJJJJJFzJJJJJJJJxG1JJJJJJJxH2JJJJJJJJVn",
"FyJJJJJJJJxD,JJJJJJJxF:JJJJJJJJFzJJJJJJJJxG1JJJJJJJxH2JJJJJJJJVn",
"Fy........aD&.......aF*........Fz........aG*.......aH=........Vn",
"Fy--------aD>-------aF:--------Fz--------aG,-------aH<--------Vn",
"FyBBBBBBBBnDwBBBBBBBnF6BBBBBBBBFzBBBBBBBBnGeBBBBBBBnHeBBBBBBBBVn",
"FyJJJJJJJJxD,JJJJJJJxF:JJJJJJJJFzJJJJJJJJxG1JJJJJJJxH2JJJJJJJJVn",
"FyJJJJJJJJxD,JJJJJJJxF:JJJJJJJJFzJJJJJJJJxG1JJJJJJJxH2JJJJJJJJVn",
"FyJJJJJJJJxD,JJJJJJJxF:JJJJJJJJFzJJJJJJJJxG1JJJJJJJxH2JJJJJJJJVn",
"FyJJJJJJJJxD,JJJJJJJxF:JJJJJJJJFzJJJJJJJJxG1JJJJJJJxH2JJJJJJJJVn",
"FyJJJJJJJJxD,JJJJJJJxF:JJJJJJJJFzJJJJJJJJxG1JJJJJJJxH2JJJJJJJJVn",
"FyJJJJJJJJxD,JJJJJJJxF:JJJJJJJJFzJJJJJJJJxG1JJJJJJJxH2JJJJJJJJVn",
"FyJJJJJJJJxD,JJJJJJJxF:JJJJJJJJFzJJJJJJJJxG1JJJJJJJxH2JJJJJJJJVn",
"FyJJJJJJJJxD,JJJJJJJxF:JJJJJJJJFzJJJJJJJJxG1JJJJJJJxH2JJJJJJJJVn",
"X                                                              X",
"azzzzzzzzzzzzzzzzzzzzzzzzzzzzzzzzzzzzzzzzzzzzzzzzzzzzzzzzzzzzzza",
"FyJJJJJJJJxD,JJJJJJJxF:JJJJJJJJFzJJJJJJJJxG1JJJJJJJxH2JJJJJJJJVn",
"FyJJJJJJJJxD,JJJJJJJxF:JJJJJJJJFzJJJJJJJJxG1JJJJJJJxH2JJJJJJJJVn",
"FyJJJJJJJJxD,JJJJJJJxF:JJJJJJJJFzJJJJJJJJxG1JJJJJJJxH2JJJJJJJJVn",
"FyJJJJJJJJxD,JJJJJJJxF:JJJJJJJJFzJJJJJJJJxG1JJJJJJJxH2JJJJJJJJVn",
"FyJJJJJJJJxD,JJJJJJJxF:JJJJJJJJFzJJJJJJJJxG1JJJJJJJxH2JJJJJJJJVn",
"FyJJJJJJJJxD,JJJJJJJxF:JJJJJJJJFzJJJJJJJJxG1JJJJJJJxH2JJJJJJJJVn",
"FyJJJJJJJJxD,JJJJJJJxF:JJJJJJJJFzJJJJJJJJxG1JJJJJJJxH2JJJJJJJJVn",
"FyJJJJJJJJxD,JJJJJJJxF:JJJJJJJJFzJJJJJJJJxG1JJJJJJJxH2JJJJJJJJVn",
"Fy++++++++iD*+++++++iF*++++++++Fz++++++++iG=+++++++iH;++++++++Vn",
"FyrrrrrrrrhD5rrrrrrrhF2rrrrrrrrFzrrrrrrrrhG7rrrrrrrhH8rrrrrrrrVn",
"FyJJJJJJJJvD8JJJJJJJvF3JJJJJJJJFzJJJJJJJJvG0JJJJJJJvHqJJJJJJJJVn",
"FyJJJJJJJJxD,JJJJJJJxF:JJJJJJJJFzJJJJJJJJxG1JJJJJJJxH2JJJJJJJJVn",
"FyJJJJJJJJxD,JJJJJJJxF:JJJJJJJJFzJJJJJJJJxG1JJJJJJJxH2JJJJJJJJVn",
"FyJJJJJJJJxD,JJJJJJJxF:JJJJJJJJFzJJJJJJJJxG1JJJJJJJxH2JJJJJJJJVn",
"FyJJJJJJJJxD,JJJJJJJxF:JJJJJJJJFzJJJJJJJJxG1JJJJJJJxH2JJJJJJJJVn",
"FyJJJJJJJJxD,JJJJJJJxF:JJJJJJJJFzJJJJJJJJxG1JJJJJJJxH2JJJJJJJJVn",
"FyJJJJJJJJxD,JJJJJJJxF:JJJJJJJJFzJJJJJJJJxG1JJJJJJJxH2JJJJJJJJVn",
"FyJJJJJJJJxD,JJJJJJJxF:JJJJJJJJFzJJJJJJJJxG1JJJJJJJxH2JJJJJJJJVn",
"c4JJJJJJJJ0c$JJJJJJJ0c$JJJJJJJJcwJJJJJJJJ0M%JJJJJJJ0N&JJJJJJJJue",
"O..............................................................O",
"kgjjjjjjjjjvdjjjjjjjjvdjjjjjjjjvjjjjjjjjjjbfjjjjjjjjbfjjjjjjjjzd",
"FyJJJJJJJJxD,JJJJJJJxF:JJJJJJJJFzJJJJJJJJxG1JJJJJJJxH2JJJJJJJJVn",
"FyJJJJJJJJxD,JJJJJJJxF:JJJJJJJJFzJJJJJJJJxG1JJJJJJJxH2JJJJJJJJVn",
"FyJJJJJJJJxD,JJJJJJJxF:JJJJJJJJFzJJJJJJJJxG1JJJJJJJxH2JJJJJJJJVn",
"FyJJJJJJJJxD,JJJJJJJxF:JJJJJJJJFzJJJJJJJJxG1JJJJJJJxH2JJJJJJJJVn",
"FyJJJJJJJJxD,JJJJJJJxF:JJJJJJJJFzJJJJJJJJxG1JJJJJJJxH2JJJJJJJJVn",
"FyJJJJJJJJxD,JJJJJJJxF:JJJJJJJJFzJJJJJJJJxG1JJJJJJJxH2JJJJJJJJVn",
"FyJJJJJJJJxD,JJJJJJJxF:JJJJJJJJFzJJJJJJJJxG1JJJJJJJxH2JJJJJJJJVn",
"FyJJJJJJJJxD,JJJJJJJxF:JJJJJJJJFzJJJJJJJJxG1JJJJJJJxH2JJJJJJJJVn",
"FyoooooooouD&ooooooouF*ooooooooFzoooooooouG*ooooooouH=ooooooooVn",
"ZeddddddddgC9dddddddgZ4ddddddddZaddddddddzA0dddddddzSqddddddddmg"
};
