/* XPM */
static char *_ad1c357c0234778dd5ce32315512c337Wuvsr1qbwtfSPTj[] = {
/* columns rows colors chars-per-pixel */
"64 64 224 2 ",
"   c #040302",
".  c #0A0301",
"X  c #0D0A05",
"o  c #0D0B0A",
"O  c #080808",
"+  c #140C05",
"@  c #120E0A",
"#  c #180801",
"$  c #15130B",
"%  c #1A1309",
"&  c #1A1613",
"*  c #1C1B1B",
"=  c #171714",
"-  c #0D1114",
";  c #220C01",
":  c #24180B",
">  c #361604",
",  c #241D14",
"<  c #1E201F",
"1  c #24221D",
"2  c #2C2518",
"3  c #372918",
"4  c #38301D",
"5  c #222223",
"6  c #2B2622",
"7  c #2C2C2B",
"8  c #2D2A23",
"9  c #332F28",
"0  c #2F312D",
"q  c #3B352B",
"w  c #373228",
"e  c #2B2F30",
"r  c #2D3132",
"t  c #353434",
"y  c #393532",
"u  c #3D3935",
"i  c #3C3B3B",
"p  c #363839",
"a  c #312F30",
"s  c #431E04",
"d  c #5C2804",
"f  c #492814",
"g  c #452D15",
"h  c #6A2400",
"j  c #773205",
"k  c #453829",
"l  c #433E3B",
"z  c #403C33",
"x  c #523C2F",
"c  c #713E23",
"v  c #3F403C",
"b  c #4A412D",
"n  c #45413E",
"m  c #4D4438",
"M  c #57483A",
"N  c #5B4A34",
"B  c #69442A",
"V  c #694836",
"C  c #61533D",
"Z  c #72513E",
"A  c #77492E",
"S  c #453F40",
"D  c #3E4241",
"F  c #444343",
"G  c #4A4544",
"H  c #4D4947",
"J  c #4B4B4A",
"K  c #444848",
"L  c #524D4C",
"P  c #534A47",
"I  c #54514E",
"U  c #5A5346",
"Y  c #4C4E51",
"T  c #545352",
"R  c #5B5453",
"E  c #555E5C",
"W  c #5B5D5D",
"Q  c #5A5856",
"!  c #584F50",
"~  c #695848",
"^  c #735343",
"/  c #615A56",
"(  c #645C5B",
")  c #695951",
"_  c #58615E",
"`  c #696259",
"'  c #766954",
"]  c #5D5F62",
"[  c #5B6262",
"{  c #626463",
"}  c #646B6B",
"|  c #6B6968",
" . c #746C6B",
".. c #756E67",
"X. c #6A706F",
"o. c #78716C",
"O. c #6C7474",
"+. c #737575",
"@. c #7D7976",
"#. c #757D7C",
"$. c #7A7B7A",
"%. c #757777",
"&. c #6E6F71",
"*. c #833F1A",
"=. c #94552C",
"-. c #90532C",
";. c #924E1F",
":. c #885A41",
">. c #915F44",
",. c #98674A",
"<. c #946A55",
"1. c #A46A47",
"2. c #B17148",
"3. c #867869",
"4. c #857C7B",
"5. c #827976",
"6. c #9E7A64",
"7. c #A37960",
"8. c #7A807C",
"9. c #BE8057",
"0. c #88827E",
"q. c #97897C",
"w. c #B48C75",
"e. c #D7986D",
"r. c #CC8F6B",
"t. c #C88656",
"y. c #817F80",
"u. c #7B8382",
"i. c #7F8887",
"p. c #828585",
"a. c #8C8382",
"s. c #848C8B",
"d. c #8A8C8C",
"f. c #878687",
"g. c #918685",
"h. c #928A86",
"j. c #948B8B",
"k. c #998E8C",
"l. c #9B8F81",
"z. c #8A918E",
"x. c #9B918F",
"c. c #989187",
"v. c #8C8E91",
"b. c #8B9493",
"n. c #8F9897",
"m. c #929595",
"M. c #9D9492",
"N. c #939C9B",
"B. c #9A9C9C",
"V. c #999998",
"C. c #A19695",
"Z. c #A39994",
"A. c #A59B99",
"S. c #AA9E9C",
"D. c #A3978E",
"F. c #9AA09F",
"G. c #AAA49B",
"H. c #B1A49B",
"J. c #9C9FA4",
"K. c #9CA4A3",
"L. c #9FA8A7",
"P. c #97A1A0",
"I. c #A3A5A5",
"U. c #ADA4A3",
"Y. c #A4A8A7",
"T. c #A4ACAB",
"R. c #AAADAC",
"E. c #A8A7A7",
"W. c #B2A6A3",
"Q. c #B4A8A7",
"!. c #B4ACAB",
"~. c #BAADAC",
"^. c #BAAEA7",
"/. c #A7B0AF",
"(. c #ACB0AF",
"). c #BBB3AE",
"_. c #B4B1AF",
"`. c #AAAFB1",
"'. c #B8AFB0",
"]. c #ACB4B3",
"[. c #AFB8B7",
"{. c #AEBABA",
"}. c #A9B4B7",
"|. c #B3B4B3",
" X c #BCB4B3",
".X c #B3B8B6",
"XX c #BABAB5",
"oX c #B3B6B9",
"OX c #B5BDBC",
"+X c #B9BEBE",
"@X c #BABDBD",
"#X c #B9B7B8",
"$X c #E3A886",
"%X c #C1B6B5",
"&X c #C3B9B7",
"*X c #C3BDBC",
"=X c #C8BEBC",
"-X c #B7C0BF",
";X c #B6C0BF",
":X c #B7C0BF",
">X c #BAC1BE",
",X c #C3C1BD",
"<X c #B6BEC1",
"1X c #BABEC1",
"2X c #B6C1C1",
"3X c #B6C1C1",
"4X c #B8C1C0",
"5X c #B9C2C1",
"6X c #B8C2C1",
"7X c #BAC3C2",
"8X c #BAC1C2",
"9X c #BBC4C3",
"0X c #B9C4C0",
"qX c #BDC5C4",
"wX c #BAC2C2",
"eX c #BEC8C7",
"rX c #BCC9CA",
"tX c #BAC5C9",
"yX c #C1C4C3",
"uX c #C3C9C4",
"iX c #C1C9CA",
"pX c #C9C7C7",
"aX c #CCD3D5",
"sX c #D1CAC9",
/* pixels */
"[ ] W [ } { [ ] E _ _ E E _ _ _ [ } } [ _ _ _ [ } [ _ [ } X.X.X.} [ } } _ W [ } } ] E [ ] E ] ] E [ [ } } X.O.#.#.X.[ _ _ E E [ ",
"+.$.p.b.m.z.i.u.u.8.#.+.+.8.8.8.z.n.n.i.u.u.s.b.N.b.z.b.F.L.K.N.n.n.s.i.$.u.b.N.v.p.8.#.%.O.#.8.u.i.b.P.K./.OX;X[.L.b.u.8.#.O.#.",
"I.].oX8XqX;XoXOXOXOX|.].]..X;X;X-XqX>X;X{.;X;X;X;X;X;X;X.X;X;X;X;XOXOXoX].].oXOXOX.X].]./.`.].#XOX2X3X3X-X-X-X-X3X-X;X;X;X/.P.N.",
"].OX2X<X;X6X-X6X8X-XOXOXOXqXqX6X-X;X;X-XqXqX;X;X3X;X;X;X;X;X;X;XOX/.I.K.T.|.OXOX1XqX1XXXOXOXOX+XOX2X3X3X-X-XqX-X6X6X-X-X3X3X;X{.",
"}.OX;X;X;X;X-X;XOXOX1X1X1XtXyX1XqXqXqX6X;X;X;X-X;X;XOX{./.F.N.N.n.b.d.s.y.s.Y.OXOX-XOXOX.XOXOX@X8X2X;XOX-XOXOX;XOXOX;X;X;X;XOX].",
"/.OX8X;X8X6X8XOX2X2X1XqXqXyXyXtXqXqX6XqX;X;X-X;XOXOX;X;XL.b.s.b.K.T.oX].K.n.J.`.OXOX+X9X>X+XOXOX;XOX;XOXOX-X-X-X;X;X;XOXOX;X;X].",
"K.].[.OX;X;X;X-X1X8XtX1X1XtX1X1X-XOX;X;X-X-XOX/.T.L./.{.;X;X{.;X+X-X6XqX2XOXI.b.i.z.K.oXOX8XqX-X8X;X;XOX-X-X-X-X;X;X3X;X;XOX/.n.",
"s.N.T.]..XoXOX+X1XqX1XtXtX2X2X<X-X;X-X;X.XOXOX(.b.F./.;XqXqX-XqXqXeXiX6X6XqXOXK.i.b.].6X6X8XqX6X;X;X;X;XOX-X-X-X;X>X6X;XOX[.F.u.",
"m.`.B.T.<X<X<X1XqX1X<X8X9X2X3X2X6X-X>X-X-X-X-X-X;X;X-XqXqXqXqXqX6X6XqXqXqXqX6X-X;XOXOX-X6X;X;X;X-X;XOXOXOX;X;X;XOX;X;X8X-XOXT.n.",
"1X<X%.| E.sXpX1XoX1X8XOX;X2X3X2X-X-X6XqXqX6X-XqX-X6XqXqXqXqXqX6X8X8X6X6XqXqXqXqX-X-X-X;XOX{.OX;X-X-X;XOX[.{..X;X-X6X;X;X;X-X;X].",
"oX1X#XR | J.1XsXyXqX+X#X>X6X3X;X-X-X6X6X6XqX8XqXqXqX6X-X-X-X-X6X-X-X-X-X>XqXqXqXqX6X.XK.F.K..X-X;X-X-X;X.XOXOX[..X;X-X-XOX.X-XOX",
"v.U.1Xm.Y ] v.1XsXyX+X+X>X>X-X6X6X6X6X-X-X-X-X6X-X-X-X-X;X-X-X;X-X-X-X-X-X-X-X-XOX-XeX;X[.[..X;X;X-X-X;X;X;X[././.].[.;X;X;XOX(.",
"v.T.<X&.i S { x.E.R.'.+X@XXXXX9X>X8X8X8X-X-X-X>X-X-X-X>X8X;X8X-X-X-X-X-X-X-X-X-X-X-X-X6X-X-X;X-X-X-X>X6X6X-X.X/.n.b.n.K.[.3X;XT.",
"`.<X1XoX} i K ] +.g.E. X&X,X*XXX+X-X-X6XqX6X-X-X-X-X6X6X-X8X;X;X-X-X6X-X-X-X;X-X6X-X-X6XiX6X;X;X;X-XqX-X-X-X;X;XOX[.].OX;X;X.XK.",
"<X<X1X1X1X$.D S !  .g.A.~.*X=XXX+X;XOXOX;X-X-X-X-X-X-X-X;XOX<XOX-X-X-X-X-X-X-X-X-XOXOXOX;X;XOXOX;X-X6XqX6XqXeXiX6XqXeXeXqX;X;X[.",
"<X<X1X1X1X<Xf.S u !  .4.j.S.'.=X,X@X.X|.|.OX-X6X-X-X-X-X8X;XOX2X-X6XqX-X-X-X;X-X;X;XOXOXOX-X>X-X-X-X-X-XqXeXqX6XeXeX6XqX6X;X;X].",
"}.<X8X2X;X8X].W 5 a J | 4.g.A.'.=X=XU.x.B.`.yXoX+XOXOX+X8X8X<X<X6X6X-X;X;XOXOX;X-X@X@X>X;X;X;X-X-X-X6XqX-X6XqX-XqXqXqX6X-X-X-X[.",
"/.oXOXOX;X8X>Xb.D 1 t J ( y.k.Q.Q.U.%X~.'.#X_.1X9X@X+XOXOXoX<XoX{.OX;X;X;X;X+X;X-X-X-X-X;X>X-X6X-XqX-XOXOX;X6XqX-X-X-X;X;X6X;X[.",
"/.{.OXOX@XOX-X-Xm.K < t G ( 5.y.y.C.Q.%X=X*X|.I.R.`.oX`.K.n.n.N.].{.OX;X;X;X3XqXqXqX-X-X;X;XoX[.>XOXOXqX6X;XOX;X-X-X;X.X.X;X.X/.",
"OX<XOXOX;XOXOXqX>XB.K 5 t S R | y.x.S.%XpXpX@X!.I.B.m.B.K.Y.`.+X.X;X;X;XOX;X0XqXqX>X;X;X>X>X[.T.n./.;XOX.X;X;X;X;X;X;XOX;X;X;X].",
"OX;X6X6X-XqX;X;XOX-XB.T 7 i J T  .4.k.C.S.~.@X&XE.!.#X1XyX-X*XyX6X8X;X;X;X;X6X0X8X6X6X;X1X8XOX].b.F./.;X;X;XOX;X;X.XOX;X;X6X-X;X",
".X;X6X8XOXqX-XOX6XXX,XY.[ i i G P  .4.y.h.A.'.'.&X&X'.#X*XpXpX>XqX>X-X-X-X-X;X;X;X3X6X;X<X<X2X2XOXL.F.K.[.;X;X;X;XOX;X6X-XqXqX6X",
"].;X;X;X;X-X-X-X-X6XXX>XR.{ t i S S ` 5.y.M.x.U.&X%X|.~.|.XX,X@XyX1X@X9X-X3X3X3X3X3X6X3XoX<X1X1X;XOXT.n.N./.;X{.OX;X6X6X6X6X-X.X",
".X6X.X;X-X;X.X-X;XoXiX>X-X(.} u l l l ( 4.y.C.S.'.!.'.*XpX=X@X,X*XyXyX@X6X3X3X0X0X;X2X3X1X<X1X<X;XOXOXOX/.K.F.F.K.T.[.[.[.[./.F.",
"OX{.OXOXOX;X;X;X;X-X-X-X;X-XT.+.F i l l R 5.k.A.S.W.%X%X~. XXX*X X1X>X@X@X>X9X-XOX8X9X8X<XOX<X<X-XqXqX-XqX;X].Y.n.N.n.N.N.N.n.i.",
"[.OXOXOX.XOX;X;X;X-X6XqX.XOX>X].4.J i u l R 5.k.C.S.S.Q. XpX,X X'.U.|.*XyX@X1X+X8X+XOX<X3XoXoX1X-X-X-X-XqXqX-X;X;X;X-X-X-X;XOX(.",
"n./.OXOX>X;X;X-X6X;X;X;XOX[.-X>X@Xp.I i i S !  .y.y.k.C.U.~.&X=X=XXX X|.|.#XyX,XOX1XqX1X<X<X<XOX-XqXqX-X;XqXqXeX6X6X6XqX-X-X;XOX",
"u.K.;X6XqX;XOX-X;XOXOX.X-X-XqXqXqXOXd.T l l n H )  .4.j.M.M.U.&X*XsX=XU.!. X|.@XpX@X1X1XtX1X<XOX;XqXqX-X;X;X-X-X6X6X-X6X6X-X;X{.",
"F.].qX6XqX6X-XqXOX;XOX.X;X6XqXiX@XyXXXm.[ F G G P R ( 0.Z.C.A.S.W.=X*X%X*X%X!.'.@X*XyX1X>XqX-X-X:X-X>XqX-X-X-X-X;XOX[.OX-X;X.X(.",
"OX3XqX-XqXeX-X-X-XOXOXOX;X;XOXqXuX+X>XqXF.| J J S P L | 4.k.C.Z.A.Q.).%X%X=X&X X!.#X@X*X9X>X-X;X;X:X;X-XqX-XqX-XOXOX[.OX;XOX{.K.",
"OX;X;X;X-X-X-X-X-X.X;X;X6XeX-XqX8XeXOX-X+XG.+.J L G L ! ) o.g.C.x.A.S.A.U.%X=X%X=XU.U.#XyX9X;X;XqX>X-X-X-XqX-X-XOXOXOX[.OXOX[.F.",
"[.OX;X6X;X;X-X6XOXOX6X;X;X6X-X-X6XqX8X9X-X-XT.$.Y G L L ! /  .4.h.x.k.A.Q.~.Q.%X X X!.I.U.@XuX-XqX>X-XqXqX-X-X-X;X;X;XOX;X3X{.P.",
"T.OX6X-X;X-XqX-X6XqXqXqX-X;X;X>X>X9XqXyX6X>X.X|.+.F F ! L P !  .5.h.M.h.C.Q.S.~.~.).&X%X~.~.!.pXuX>X>X>XOX1XoXOXXX8XqX-X6X3X3X}.",
"T.OX-X-X-X-X-X-X6X6X>X-X;XOXOXOX1X>XqX>XqX-X-X@XB.&.i i ! L S L | a.h.g.x.k.M.Z.W.Q.&XsX&X&XQ.A.>X,X>X>X1X[.`.oX@XOX.X6XqX;X3X<X",
"/..X-X6X-X;X-X-X-XqX-XqX-XOXOXOX+X8XqX-X6XqX6X-XoX$.W p 7 ! L l I | o.a.j.g.k.k.G.Q.^.,X%X).^.G.G.G.^.,X.XY.[.OX{.3XeX6X-X>X<X<X",
"[.;X-X>X-XOX-XqX;X-X-X-X-X;X;X;XOX+X-X6XqX-X-X;XOXR.| J 7 5 L L z n / o.5.g.C.M.G.H.G.G.^.H.D.q.8.' ' q.U.yXtXtXtX9X3X2XqXOXyXoX",
"OX;X;X-X-X-X-X-X;X;X-X-X-XqX-X-XOX-X8X8X;X;X;X;X-X.XV.| G 7 * J L l S Q  .5.4.a.D.G.q.D.D.9.0.' N C N q m F.OXiXtXrXtXtXuX,XXXXX",
"OX;X;X-XqX-X-X-X;X>X-X-X-X-X-XqX8X-X;X;X;X;X8X6X.XqX.Xd.{ F 6 & H ! G S L ( %.4.D.q.G.D.q.0.0.~ N g 2 4 4 v I 8XaXrX3XtXOX>X).XX",
"].OXOX;X-X-X-X-X-X-X-X-X-X-X-XqX;X;X;X;XOX;X;X6X;XiX].I.d.} F 5 & G R S t H  .5.8.q.w.q.8.' ' ' N 4 : X % 2 X X E 9XaX{.0X{.:X].",
"/..X;X;X-X-X-X-X-X-X;X-X;X-X-X-X-X;X;X;XOXOXOXOX.XF.(.OX.XF.{ G 8 & S R l i F ( ' 8.8.8.0.C C N v 4 2 % + + + X   < /.2X0X;X;X/.",
"[.[.OX-X-X-X-X;XqX-X-X-X-X-X-X-X;X-X6X;XOX[.N.u.i.F.;X-X>XqXB.{ L a & i T i t G W ..o.~ C C b k w , 8 u 2 . @ .   O   ] 1X<X<X}.",
"[.;X;X;X;X-X-X-X-X-X-X-X-XqX-X-X6X6X6X-X;X[.F.s.K.[.qX6X>XqX].K.| J i * t W S t n / ..U b b 4 4 , $ & 6 y y @ 1 R J 7 H tX1X<X<X",
"T.OX;X;X-X-X-X-X-X-X-X;X-XOXOXOX;X;X-X-X-X6X{.;X-XeXqX;XqXOXT.F.V.+.J t < 7 I n p b U m 4 b 4 2 % @ @ @ = 5 , ( A.( P ) XX@X3XL.",
"N.[.;XOX-X-X-X-X-X-XOX-X-XqXqXqX-X-X6X;X;X;X;X3X;XqX6X;X-XOX.X.X+XJ.+.R t * 0 R n 9 w q 4 4 2 , % . o o . o S ) M ~ 3.) k &XOXL.",
"K.OX6X;X-X-X;X;X;X;X;X-XOXOXOXOX{.T.L.K./.;X;X;X-X[..X;XOX;XqX-X+X+XI.+.T i 5 a I u 8 2 2 2 , : X     o = @ l ~ Z V Z l.~ M yXR.",
"F.].;X;X-X-XOXOX;X;X;XOX{.].T.K.n.b.z.d.F.[.OXOXOXK.T.OX-XqXiX6X+X1XOXY.#.T i , u n y 2 , 1 % $ X     - a & # V <.1.>.w.Z # ).(.",
"s.N.T..X;X-X>XOX;XOXOX;XOX.X].].T./..XOX+X>X;X;XqX;X;X-X;X-XeXiX8X<X1X+XI.$.L G 2 y 0 1 % $ $ X     O 5 i k f <.r.$Xr.1.V ; | .X",
"P.L..X-X-X-X-X;X;X;XOXOXOX;XOX;X6X8X9X9X-X-X;XqX-XqX-X;X6XeX6X-XqX<X8X8X+XE.p.T v w 6 1 1 $ $ X     O 6 k ^ :.h =.r.e.$Xw., Q [.",
";X6X6X6X6X6X-X-X-X-X;XOXOX-X-X-X-X-X-XqX6XqX-X-X-X-XqX-X-X-X-X6X9X2X-X-XOX>XR.d.Q v 0 1 & & @ X o   . x <.7.$X-.-.9.1.7.Z & W E.",
"{.6XqX6X-X-X-X6X6X>X-X-X-X6X-X-XOX;X-X-X-X-X-X-XqX-X-X-XOX;X-X>X2X6XqX6X.X;X>X(.d._ v 8 & o . @ o . : V >.1.2.h j r.A s 3 w $.K.",
".X;X-X6X-X-X-XqX6XqXqXqXqXqXqXqX;X;X;X-X;X;X;X-XqX-X-XOXOXOX;X;X8X2X6X-XOXOX.XR.I.z.} v 7 *     . . # Z 1.*.j h 2.e.;.A N q l V.",
"OXOX;X-X;X>X;X-X-X6X-XqXqX-XqXqXqXqX>X-X>X;X-XqXqX-X-X-X;X-X;X>X2X<X;X-XqX-X@X(.V.V.s.{ v 8 -   X . % c A =.;.;.t.2.1.A x z S I.",
"OX;X;X;X;X;X-X-X-X-X-X-X-X-X-X>XqXqXqXqX>X;X-X-X-XqXqX-XqX-X>X;X2X;X;X6X-XqXyXqX-XXX;XY.X.D 7 -     : M f c >.h -.d c f g q i B.",
"].OXOX;X-X-X-X-X-X-X-XOX;XOX-X-XqXqX6X-X-X;X;X;X-X-X-XqXqX-X;XOX;X;X8X;X;X;X-X9XqX>X>X-XY.+.K e - O o + > ^ 7.f > > ; , q i Y I.",
"K.].;X;X-X-X6XqXqX-X-X;X;X-X-X-X-X-X-X6X-X-X-X;X-XqX-X-X-X;XOXOXOX;X;X;X>X-X-X-X-XiX;XOX1XT.O.D r * O   . . k # O # o = p p Y v.",
"F.].;X;X;X-X-X-X-X-X;X;X;X-X-X-X-X-X-X-X-X-X-X-X-X-X-X;X;X;XOX;X;X-X;XOX;XOX-XqXqX-XOX-X<X<X`.#.K r 5 = 5 , o o o O * 5 r p D i.",
"T.OX-X-X>X;X-X;X-X-X-X-X-X-X-X-X;X-X-X-XqXqX6X-X>X-X-X;X;X;X-XqX8X;XOXOX;XOX;X;XqX8X2X3X8X<XoXoXs.` i t t t t r 7 r r p p r J p.",
"OXqX6X-X;X;X-X;X-X-X-X-XqX-X-X-X;X-X-X-X-XqX6X-X;X-X-X-X;X-X-X-X;XOXOX.XOXOX;X;X6X6X8X8XtX<X<XOXoX.X{ y D p i i i r p p 7 v y.XX",
".X-XOX;X;X;X-X-X-X-X>XqX6XqX6X-X;X;X;X;X-X-X;XOXOX;X-X-X-X>X-X-X;XOXOXOXOXOX;X-X-X-XqX-X1X<X<X<X2XOX#Xd.J p y a a a p p K f.+X#X",
"[.-X;X>X;X;X;X;X-X-X-X6X-XqX-X-X-X-X;X;X-X-X;X.X.XOX;X-X6X6XqX6X-X-XOXOXOX;X;X-X-X;X;X;XoX<X<X3X3XeXOX@X+XI.d.a.%.&.$.N.|.+XoX`.",
"K.{.;X;X.X;X;X;X-X;X;X;X-X-X-X-X-X>XOX.X[.OX;X;X;XOXOX;X-X>X6X-X;XOXOX;XOX;X;XOX;X;X.X.XOXOX;X8X{.tX<X<X9XOX@X#X.X0X;X;X1X1X<X`.",
"F.].OXOX;X;XqX-X6X-X;X;XqX-XqXqX;X;X[.].].[.;X-X6X-X;X;X-X-X-X-XOXOXOX-X-X-X-X-X;X;X;X;X;X8X-X-X3X3XrX<X<X9X9XpXeX0X;X0XqXyXtX}.",
"[.6XqXqXqXqXqXqXqXqXqXqXqXqXqXqXqXqX;X;X;X-XqXuXqXqX6XqX-XqXqX-X-X-X6XqXqXqXqXqX6XqX>XqXqXqX9X-XeX8X1XpXiX9XiX8XeXqXtXtX1XpXqX1X",
"6XeXqXeXeXqXuXiXiXiXuXqXiXiXiXeXqXqXqXeXeXiXiXqXiXiXqXiXiXiXeXiXeXiXeXeXiXeXeXuXuXqXuXyXuXyXuXiXeXuXpXyXtXeXtXrXtXrXrXqXiXyX*XyX"
};
