/* XPM */
static char *_c52df65c8fb4441f9109004d5024f9aOudqu9UT89vacymt[] = {
/* columns rows colors chars-per-pixel */
"64 64 234 2 ",
"   c None",
".  c #070707",
"X  c #19191A",
"o  c #180A06",
"O  c #301A0E",
"+  c #162338",
"@  c #08203D",
"#  c #242424",
"$  c #2C2C2C",
"%  c #242629",
"&  c #333333",
"*  c #3C3C3C",
"=  c #3C3B34",
"-  c #2C3135",
";  c #27241D",
":  c #581914",
">  c #4B130F",
",  c #681A17",
"<  c #4F320F",
"1  c #692812",
"2  c #4D332A",
"3  c #6D2D2D",
"4  c #344033",
"5  c #534D13",
"6  c #6B5509",
"7  c #796908",
"8  c #706716",
"9  c #57592C",
"0  c #746C2C",
"q  c #162948",
"w  c #163157",
"e  c #323248",
"r  c #0D3669",
"t  c #173C68",
"y  c #0E3B72",
"u  c #113F79",
"i  c #2F4853",
"p  c #12417B",
"a  c #1F4468",
"s  c #2D4965",
"d  c #434343",
"f  c #4B4B4B",
"g  c #474749",
"h  c #545454",
"j  c #5B5B5B",
"k  c #5F5E57",
"l  c #545141",
"z  c #6E6A53",
"x  c #646464",
"c  c gray42",
"v  c #6E6161",
"b  c #747474",
"n  c #7B7B7B",
"m  c #7E7B6B",
"M  c #68555C",
"N  c #94241F",
"B  c #8A2D19",
"V  c #8F2F2A",
"C  c #A92A22",
"Z  c #B23225",
"A  c #CC342B",
"S  c #84730A",
"D  c #8A780A",
"F  c #957D0C",
"G  c #8A7810",
"H  c #BC7A18",
"J  c #AF6918",
"K  c #B95839",
"L  c #B34932",
"P  c #8B7D2F",
"I  c #A6752C",
"U  c #B67729",
"Y  c #B96839",
"T  c #BA7839",
"R  c #AA6C32",
"E  c #C34C3C",
"W  c #BB5840",
"Q  c #B96A46",
"!  c #BB794F",
"~  c #CD4C46",
"^  c #C65649",
"/  c #D35852",
"(  c #C2654C",
")  c #C66554",
"_  c #D5695D",
"`  c #C97766",
"'  c #DA7B76",
"]  c #D0736C",
"[  c #E17872",
"{  c #95810A",
"}  c #9B860A",
"|  c #978618",
" . c #A18A0A",
".. c #AA930C",
"X. c #AF980C",
"o. c #B69D0C",
"O. c #B99D0E",
"+. c #B69415",
"@. c #BDA40C",
"#. c #BAA412",
"$. c #BC8527",
"%. c #BD9429",
"&. c #AE8834",
"*. c #BC8937",
"=. c #BC9839",
"-. c #A8912B",
";. c #92882A",
":. c #C69916",
">. c #C6AB0D",
",. c #CDB20D",
"<. c #DABD0E",
"1. c #D4B70E",
"2. c #DABC1C",
"3. c #D9B816",
"4. c #CEAA1D",
"5. c #E3BF0F",
"6. c #C59B25",
"7. c #C18C31",
"8. c #C29737",
"9. c #CBA927",
"0. c #D5B924",
"q. c #CDB739",
"w. c #D1BC37",
"e. c #C7AB30",
"r. c #DFC10F",
"t. c #DDC218",
"y. c #E3C40E",
"u. c #ECCD0D",
"i. c #E7CA0C",
"p. c #F3D30D",
"a. c #F9D90E",
"s. c #F8D70E",
"d. c #E4C613",
"f. c #E6C913",
"g. c #EBCC11",
"h. c #E2C519",
"j. c #EED111",
"k. c #F4D410",
"l. c #FBDA11",
"z. c #F8D711",
"x. c #EFD010",
"c. c #DAC125",
"v. c #918852",
"b. c #BA8A46",
"n. c #B09351",
"m. c #BDA14B",
"M. c #8B8563",
"N. c #BD9B67",
"B. c #BFB374",
"V. c #C09346",
"C. c #CCB946",
"Z. c #C9B959",
"A. c #C6A154",
"S. c #C98B6E",
"D. c #E4837C",
"F. c #C7B966",
"G. c #C9BC75",
"H. c #C1A474",
"J. c #CBC17B",
"K. c #124483",
"L. c #164B8D",
"P. c #144D94",
"I. c #134F9A",
"U. c #194F91",
"Y. c #14519C",
"T. c #1D5090",
"R. c #1E508F",
"E. c #27558E",
"W. c #345C8D",
"Q. c #3A608F",
"!. c #1754A1",
"~. c #5A7697",
"^. c #4C6A90",
"/. c #707D8D",
"(. c #68819E",
"). c #788BA3",
"_. c #6F85A0",
"`. c #838383",
"'. c #8B8B8B",
"]. c #949494",
"[. c #9C9C9C",
"{. c #8D8D91",
"}. c #8797AA",
"|. c #98A5B4",
" X c #95A1AF",
".X c gray64",
"XX c #ABABAB",
"oX c #B3B3B3",
"OX c #BBBBBB",
"+X c #A3AEBB",
"@X c #B6AF83",
"#X c #DC8989",
"$X c #D8968F",
"%X c #E79B99",
"&X c #E38D89",
"*X c #C5B985",
"=X c #CEAB8F",
"-X c #EBA19C",
";X c #D9AFA7",
":X c #EBB6B4",
">X c #F1BBB8",
",X c #EDAFAE",
"<X c #CCC389",
"1X c #CEC699",
"2X c #D2CBA7",
"3X c #D6D2B5",
"4X c #D2C7B0",
"5X c #E5C2BE",
"6X c #B3BAC2",
"7X c #BCC2CA",
"8X c #C3C3C3",
"9X c #CBCBCB",
"0X c #C4C9CF",
"qX c #DBD7C7",
"wX c #CDD1D6",
"eX c #D5D5D5",
"rX c #DBDBDB",
"tX c #D7D8D7",
"yX c #C8CDD2",
"uX c #F3C8C7",
"iX c #E2D9CE",
"pX c #F8D7D6",
"aX c #EDD0CE",
"sX c #E5E3DA",
"dX c #F5E1DF",
"fX c #E4E4E4",
"gX c #ECECEB",
"hX c #EAE9E5",
"jX c #F8E7E6",
"kX c #F4F0EE",
"lX c #F4F4F4",
"zX c #FEFEFE",
"xX c #FAF6F7",
"cX c #DDDFE1",
/* pixels */
"                                                                                                                                ",
"                                                                                                                                ",
"                                                                                                                                ",
"                                                                                                                                ",
"                                                                                                                                ",
"                                                  zXzXlXgXxXzXgXsXgXxXgXzXzXzX                                                  ",
"                                            zXgXhXlXiXZ.q.3XpXm.2.m.B.C.G.kXzXzXzXzX                                            ",
"                                        xXqXJ.C.0.Z.S.0.u.1X#X%.a.$.$.s.q.hXzXxXqX3XlXzX                                        ",
"                                    zXsXF.0.u.p.l.5.W e.p.<X#X7.p.H =.p.Z.xXxXD.=.t.Z.fXzXzX                                    ",
"                                zXzXzX=X3.l.2.%.f.k.U 8.p.G.&X7.s.U 9.p.<XzXpX^ 3.p.F.lXzXzXxXzX                                ",
"                              kX2XhXxX' 7.z.3.J 5.x.V.V.p.Z.$X7.p.I 4.f.3XzX-XT k.t.qXzXpX$XF.qXzX                              ",
"                            sXZ.t.G.zXuX) t.k.g.l.2.n.! x.C.#X*.u.I 2.c.sXxX] 9.k.F.xXxXD.T u.0.<XlX                            ",
"                          qXC.p.x.m.hXxX#X*.p.g.4.2.<.R t.c.` 6.i.I f.C.lXpX) h.t.qXzX,XQ f.s.s.f.F.kX                          ",
"                        sXC.p.f.b.W ;XzXpX` 2.t.L T j.&.0.k.9.h.3.I g.q.1X$X*.j.F.zXjX` 9.z.:.6.k.f.2XzX                        ",
"                      lX*Xi.l.4.L H q.sXzX%X*.k.+.:.z.%.*.k.a.a.6.&.j.l.j.-.0.t.4XzX&X*.p.9.L Q g.p.<XzXzX                      ",
"                    hXB.N.b.g.k.1.p.f.*XzXjX` 2.l.k.3.Y ) T H T ;XQ $.6.0.v.j.j.q.H.! h.t.2X[ 7.k.c.qXzXzXzX                    ",
"                  zX*Xu.2.b.n.f.l.x.*.] *XsX:Xb.4.*.K &X,X/ / >XpX_ / ~ W Q 6.h.z.-.9.h.*XuXb.h.u.N.qX2X3XsXzX                  ",
"                  zXH.2.z.h.b.n.d.x.J H c.F.hXD.E ~ &XjXzXxXkXzXxXxXjXpX>X[ ~ Y &.-.l.h.*XV.h.f.&.b.t.g.i.w.3X                  ",
"                zXzX&XW 9.k.g.m.n.h.j.j.z.8.sXuX%XdXxXhX7X X).(._.).|.7XgXxXpX%X) ! h.l.x.k.1.I =.g.k.f.j.a.q.sX                ",
"                2X*XiX%XU g.z.k.A.n.t.j.=.^ >XzXxXwX).W.R.P.I.I.I.I.Y.T.Q.).wXzX,X/ Y :.0.8.Q 8.p.5.F.N.U j.f.2X                ",
"              hXq.u.w.B.0.a.9.4.p.q.n.b./ -XxXfX).E.I.!.!.!.!.Y.!.!.Y.!.!.I.E.).hXpX%X=XiX' b.j.2.2XxX-X! d.g.2XzX              ",
"              eXm.t.p.p.a.t.W ) %.t.n./ ,XzX0X^.P.!.!.!.!.!.I.t t U.!.!.Y.p L.P.^.wXzXzXpX_ 0.p.*XzXaX` e.l.c.iXzX              ",
"            lXF.=.n.8.t.s.f.H =X$X! E -XzX7XW.Y.!.!.!.!.!.Y.i 6 6 p Y.U.i | 5 u !.W.0XzX,X( h.p.F.=X=.3.l.d.*XzXzXzX            ",
"            rX0.p.b.~ W *.2.u.c.*X:XD.jXwXW.Y.!.!.!.!.!.P.a 8 { } | ;.9 X.r.h.9 K.I.Q.tXpX^ :.s.p.u.p.u.:.Y $XaXzXzX            ",
"            1Xu.g.R ] ,X' ) T 4.%.;XzXgX^.Y.!.!.!.!.K.i 0 #.r.j.i.,.r.<.} O { ,.5 r I.~.gX>XS.C.e.:.$.I &.6.4.e.1XzX            ",
"          zXJ.p.k.y.9.G.4XuX%X` K [ zX}.P.!.Y.!.!.a 8 o...} r.@. ...D >.,.O 7 6 1 ^.s w  XzXzXhX] R %.h.k.g.k.s.t.4XzX          ",
"          lXZ.p.2.2.x.x.d.w.J.4X>XuXcXW.!.!.I.K.Y.- ,.,...{ ;.S ..1.r.7 i.} @.< 3 h X y Q.fXzX&XK 3.k.4.A.2Xm.<.p.Z.lX          ",
"          kXw.p.*.E Y 7.4.<.i.=.aXzX XP.!.Y.p q p + M.0 7 < n | j.i.>.{ s.i.6 O : o @ !.P.|.xX/ 6.z.H L ) ;X#X$.a.w.hX          ",
"          lXN.6.K _ ,X&X] ( Y K _ jX~.I.!.!.y @ i $ n ;.o.o 5 7 5.g.1.x.s.x.>.< N C & I.I.~.jX/ 4.p.J U 3.q.' *.p.C.kX          ",
"          zX>X~ A D.zXzXxXjXuX%X-XeXE.!.!.K.- F 5 6 D { { }  .} D O.z.z.s.z.s.S , A , L.!.W.rX] 6.a.i.i.p.e.;Xn.C.<XzX          ",
"          zXxXpX>XpXzXzXzXzXzXzXzX6XT.!.I.~.P ,.@.r.4.-.-.v.m z F F ..k.z.s.z.+.: A , y !.T.0XuXH.C.Z.G.<X3XlXkXlXzXzX          ",
"          zXzXzXzXzXzXlXzXzXzXzXzX+XI.Y.w x 0 ..} ,.B.m 9 '.7XOX< 7 F  .k.s.s.O.: V v s K.P.6XxXfX9XfXzXzXzXzXzXzXzXzX          ",
"          zXzXzXzXOX.Xn 9XlXzXzXzX|.P.i ..>.6 S ..o.v.= g & # & 5 7 r.S X.l.l.} > > - % q P.+XzXhXXX8XzXzXzXzXzXzXzXzX          ",
"          zXzXzXeX'.`.`.n oXzXzXzX|.P.9 a.u.<.y.1.1.i.F k 6X.Xb { { j.r.7 y.k.7 , N . w I.I.+XzXzXzXzXxXOX.XXXgXzXzXzX          ",
"          zXzXzX8Xx % . f hXzXzXzX6XP.a G ..7 7 { S 7 @.F l `.z 1.} j.l.F O.5.< C A $ P.!.P.6XzXzXzXzXcX% . . .XzXzXzX          ",
"          zXzXzXzX[.. # c xXzXzXzX0XE.I.4 @.S ,.a.a.<.} ..o.S 7 j.{ j.l.O.D F : A Z + Y.!.R.eXzXzXzXlXn x # f `.xXzXzX          ",
"          zXzXzXzXxXwXhXxXzXzXzXzXfXQ.!.a O.o.@.l.<.<.l.1.y.>.@.z.F x.l.,.< < N A , y !.!.^.gXzXzXzXxXOXn '.`..XlXzXzX          ",
"          zXzXzXzXzXzXzXzXzXzXzXzXzX_.Y.I.s 9 5 <.1.S f.l.a.>.,.l. .y.l.<.O , V M + P.!.I.).zXzXzXzXzXlXoX8XOXzXzXzXzX          ",
"          zXzXzXzXzXzXzXxXgXeXOXfXzX7XU.!.!.P.y i 9 < 6 F } 7 >.l.1.d.l.,.1 N ; b a !.!.R.0XzXzXeXkXzXzXzXzXzXzXzXzXzX          ",
"            zXxXtXOX[.b j h # # 8XzXlX~.!.!.U.r y P.w N N > < } l.l.z.z.F Z C o X q U.Y.~.lXzXgXg * ].rXzXzXzXzXzXzX            ",
"            zXrXg $ $ '.].f h 8XzXzXzX0XE.Y.Y.p K.!.P.& C N , , :.k.s.>.B A N q U.Y.Y.W.wXzXzXzX9X* . & c 8XlXzXzXzX            ",
"            zXzXfXtXf n * '.gXzXzXzXzXzX XP.!.Y.!.!.!.P.q . d Z Z J J < M : q P.!.!.U.|.zXzXrXOXgXfXc * k * f .XxXzX            ",
"              zXzX8X$ * OXzXzXzXeXc eXzXlX).U.!.!.!.!.!.K.- b : C C N o k s Y.!.Y.L.}.lXzXzXXX# $ c [.x f XX].n lX              ",
"              zXlXh n hXzXzXzX.X# * fXzXzXlX).U.!.Y.!.!.L.+ a K.t w w w @ w !.Y.U.}.kXzXzXzXzX8Xd # h x # # .XxXzX              ",
"                zXfXzXzXzXhXb % $ wXxXOXfXzXxX|.W.I.!.!.Y.K.Y.!.!.!.!.!.P.K.P.W.+XxXzXlX9XlXzXzXlX].* b OX].'.xX                ",
"                zXzXzXzX8Xf h f XX0Xh # 8XzXzXzXtX_.E.P.Y.!.!.!.!.!.!.Y.I.W.).rXzXzXzXfX& j tXzXzXzXeXj 2 XXzXzX                ",
"                  zXzX].& '.b c b % o .XzXtX8XlXzXzXtX|.~.Q.E.E.E.E.Q.~.|.rXzXzXzXzXzXzX].# d [.xXzXzXxX.X_.xX                  ",
"                  zXxX].OX[.X d h $ [.zXOX$ # c lXzXzXzXzXhXrXwXwXrXgXzXzXzXzXgXOX9XzXzXkXj n g x tXzXzXzXzXzX                  ",
"                    zXzXeX$ x [.* ].zXxXg n eX].eXM.6XgXzXzXzXzXzXzXzXzXzXzXoXi * # ].zXzXOXg 8Xi # .XxXzXzX                    ",
"                      zXfX8XOX& {.zXzXgX& oXzXzXgXb X e 8X9X[.oXfXfX[.n XXzXXX# 9XXX# OXzXzXb d l `.d 8XzX                      ",
"                        zXxXj '.zXzXzXxXf '.zXzXzX.X* OXhXc % h oX8XX k ; 9XxXf n zXc g lXzXcX$ '.zXgXxX                        ",
"                          zXcXxXzXzXzXzXb c zXzXzXh n zXzXj `.zXzXtX$ 8Xd ].zXoX$ rXeX# oXzXzX.Xg lXzX                          ",
"                            zXzXzX9XOXlXf n zXzXtX$ 8XzXxXf ].zXzXgX* [.g [.zXxXh b zXc x zXzXlX9XzX                            ",
"                              zXzXoX$ & * tXzXzX[.d lXzXlX* & b lXzXj X & sXzXzXoX$ tX].g xXzXzXzX                              ",
"                                zXzX8X[.rXzXzXzXh n zXzXgX& '.OXxXzXn & & OXzXzXlXj h * '.zXzXzX                                ",
"                                    zXzXzXzXzXtX$ 8XzXzXcX& 9XzXzXzX|.2 n i gXzXzX;X* ].lXzX                                    ",
"                                        zXzXzX9Xx lXzXzXeX$ OXlXzXzX9X$ 9X* ].zXzXzXgXzX                                        ",
"                                            zXzXxXzXzXzXeX* * b xXzXfXj eX9XOXzXzXzX                                            ",
"                                                  zXzXzXxXhXrXrXzXzXzXlXzXzXzX                                                  ",
"                                                                                                                                ",
"                                                                                                                                ",
"                                                                                                                                ",
"                                                                                                                                ",
"                                                                                                                                "
};
