/* XPM */
static char *_13cd8a9249c4a24b3611a6c2e736d2f491ItuzQomqzi6FH[] = {
/* columns rows colors chars-per-pixel */
"64 64 231 2 ",
"   c None",
".  c #0B0B1B",
"X  c #080717",
"o  c #0F101D",
"O  c #12121D",
"+  c #110B1C",
"@  c #0A0D24",
"#  c #0C0E2A",
"$  c #0E112E",
"%  c #121322",
"&  c #11142C",
"*  c #1A1A27",
"=  c #0E1233",
"-  c #161A37",
";  c #180F22",
":  c #2D162A",
">  c #1C2038",
",  c #272A3A",
"<  c #2C2E38",
"1  c #2D1319",
"2  c #4E1A1A",
"3  c #661E18",
"4  c #6D2119",
"5  c #581E26",
"6  c #481B26",
"7  c #58242B",
"8  c #641E20",
"9  c #171C47",
"0  c #1A1F54",
"q  c #1B2249",
"w  c #1C2254",
"e  c #1D235B",
"r  c #262B43",
"t  c #2D3244",
"y  c #353949",
"u  c #2B3556",
"i  c #343A59",
"p  c #242C58",
"a  c #1D2367",
"s  c #1C2576",
"d  c #222867",
"f  c #2B3569",
"g  c #343B66",
"h  c #2C3777",
"j  c #333C77",
"k  c #222A77",
"l  c #3D4356",
"z  c #3E404A",
"x  c #3C4666",
"c  c #35457C",
"v  c #2A4174",
"b  c #424654",
"n  c #43495A",
"m  c #4E4F52",
"M  c #444968",
"N  c #4A557E",
"B  c #51566E",
"V  c #5E6173",
"C  c #646771",
"Z  c #9B2C16",
"A  c #862513",
"S  c #A32C10",
"D  c #1E2A94",
"F  c #1F2B9C",
"G  c #1E2989",
"H  c #212E8C",
"J  c #202C86",
"K  c #2C3888",
"L  c #313E87",
"P  c #212D9C",
"I  c #212C95",
"U  c #233095",
"Y  c #2A3799",
"T  c #313D97",
"R  c #212EA4",
"E  c #222FA9",
"W  c #2531A5",
"Q  c #2532AC",
"!  c #2836AC",
"~  c #2C3AAC",
"^  c #2C38A3",
"/  c #313EA5",
"(  c #2533B4",
")  c #2837B3",
"_  c #2B3AB5",
"`  c #2534BA",
"'  c #2837BB",
"]  c #2939BC",
"[  c #323FB7",
"{  c #344987",
"}  c #37449B",
"|  c #3542A2",
" . c #3241AC",
".. c #3B46A8",
"X. c #3242B3",
"o. c #3947BA",
"O. c #495287",
"+. c #424D97",
"@. c #465494",
"#. c #707489",
"$. c #4855B6",
"%. c #4C6EB9",
"&. c #5F6880",
"*. c #2635C3",
"=. c #2A3BC5",
"-. c #2737CA",
";. c #293BCD",
":. c #2738C8",
">. c #2B3ED1",
",. c #2E42C9",
"<. c #3146CE",
"1. c #3749C9",
"2. c #2D41D1",
"3. c #344CDC",
"4. c #354AD3",
"5. c #3A53DA",
"6. c #3B58DA",
"7. c #3C53CD",
"8. c #3D64D9",
"9. c #354EE2",
"0. c #3751E5",
"q. c #3A53E4",
"w. c #3E5CE5",
"e. c #3F61E8",
"r. c #455DD4",
"t. c #4C5DDC",
"y. c #4457D6",
"u. c #505FDA",
"i. c #4B5AC7",
"p. c #4568CA",
"a. c #4765D8",
"s. c #5463DC",
"d. c #5C6ADB",
"f. c #5765D8",
"g. c #5A76DC",
"h. c #4B73D1",
"j. c #626ED8",
"k. c #6974D6",
"l. c #6977D7",
"z. c #717CD7",
"x. c #6B75CF",
"c. c #415DE6",
"v. c #4A5EE1",
"b. c #425FE8",
"n. c #4263E6",
"m. c #4364E9",
"M. c #466CEB",
"N. c #486EEB",
"B. c #4A65E3",
"V. c #4A74EB",
"C. c #4E7AEB",
"Z. c #4A78E4",
"A. c #5671E3",
"S. c #5A74E1",
"D. c #517DEA",
"F. c #5C7AEC",
"G. c #5469E4",
"H. c #6778E6",
"J. c #717EEB",
"K. c #7A859F",
"L. c #7A8299",
"P. c #7984A2",
"I. c #5C85DB",
"U. c #4784D9",
"Y. c #7D86CB",
"T. c #6885DB",
"R. c #7785D3",
"E. c #7194DA",
"W. c #7FA1DA",
"Q. c #5283EA",
"!. c #568BEB",
"~. c #588BEA",
"^. c #5A93ED",
"/. c #5E9AED",
"(. c #4D85E2",
"). c #6887E6",
"_. c #7582ED",
"`. c #7986ED",
"'. c #7C89EE",
"]. c #718DE7",
"[. c #6796E9",
"{. c #7899E5",
"}. c #7D8AF2",
"|. c #7986F1",
" X c #6097F1",
".X c #78A7EB",
"XX c #7EACF1",
"oX c #83848B",
"OX c #818698",
"+X c #8B909D",
"@X c #9699AA",
"#X c #A3A5B1",
"$X c #838ACA",
"%X c #8B95CD",
"&X c #949ACA",
"*X c #8696D5",
"=X c #9BA2C8",
"-X c #84A5DC",
";X c #A6A9C6",
":X c #B0B5CD",
">X c #838DE5",
",X c #828DED",
"<X c #8A95EC",
"1X c #8994EB",
"2X c #828DF2",
"3X c #8690F2",
"4X c #8B96F2",
"5X c #949DF1",
"6X c #919BEE",
"7X c #9BA4EF",
"8X c #9BA6ED",
"9X c #9BA4F4",
"0X c #9AA5F3",
"qX c #89AFEE",
"wX c #A4ACEE",
"eX c #ACB4ED",
"rX c #A4B1E9",
"tX c #B4BBED",
"yX c #B6BBE5",
"uX c #A2ABF5",
"iX c #B0B9F4",
"pX c #BCC4EB",
"aX c #BDC5F4",
"sX c #BEC0D1",
"dX c #C3C9EE",
"fX c #C5CAF2",
"gX c #D5D9F3",
"hX c #CDD3F5",
"jX c #E5E7F8",
"kX c #F0F1FF",
"lX c #DDE0F1",
/* pixels */
"                                                                                                                                ",
"                                                                                                                                ",
"                                                                                                                                ",
"                                                                                                                                ",
"                                                                                                                                ",
"                                                                                                                                ",
"                                                                                                                                ",
"                                                uXuX9X9X9X5X5X5X5X5X5X9X9X9XuXuX                                                ",
"                                                9X                            5X                                                ",
"                                                4X4X4X3X3X3X3X2X3X3X3X3X4X4X5X5X  uXuXuXeX                                      ",
"                        &.N O.O.O.+.+.+.+.+.....i.2X2X2X2X}.2X|.|.|.}.2X2X3X3X4X      1X$.@.+.@.O.O.N N N B B B                 ",
"                        M g j j L L L K T T T ^ | J.}.|.|.J.J.J.J.|.J.|.J.|.2X2X3X4X  k.+.L K j j j g g l i u t #.              ",
"                      #.j h h h h K K K T Y / /  .d.H.H.H.j.H.d.H.H.H.j.H.H.H.H.J.z.z.$.T K K h j h f g u i x u B               ",
"                B i j d 0 0 a d s s J H I U / / / o.o.o.o.1.=.i.1.=.1.o.[ i.[ $.[ / ^ U J J s d a a e 0 w q x x M n n b C       ",
"              &.p 9 9 9 0 e a s s G G G I P / [ [ _ _ _ _ _ _ _ [ _ _ _ ( _ ) ~ ! P I H H J G s s a 0 0 9 0 g i l y y y z       ",
"          B i r - - 9 d h f h J K K Y Y I P R W W W Q Q Q ) ) ) ( ( Q ) Q Q ! ! R R P ^ Y Y K H J h h d 9 9 9 9 > - t b b V C C ",
"        C , 9 p p d d { { } } } | .. . .! ! ) _ _ _ ` ' ' ' ' ' ] ] ' ' _ ] ' ) _ ) ) X.X.X. . .} } } { h f k e - $ , z l z b C ",
"      B < & v p.p.%.8.%.8.8.7.8.8.8.6.6.6.3.3.3.3.3.3.5.3.5.3.4.3.3.3.3.3.3.9.3.3.3.5.6.6.6.6.a.a.8.a.p.8.h.h.%.u $ > > > * * #.",
"    m - # # x -X*X*X$XR.Y.T.x.l.g.d.d.f.s.v.a.a.t.y.B.v.v.v.v.t.B.B.t.t.v.v.t.t.B.v.s.B.G.d.d.d.l.l.T.R.R.*X*X%Xx # # & o X O   ",
"    #.C V V #.;X=X&X%X$XY.Y.T.x.j.d.d.f.s.s.u.u.u.y.y.1.1.1.y.1.1.1.1.y.t.t.t.t.u.u.s.s.s.d.j.k.l.z.R.Y.$X%X&X&Xv . * 6 1 o O oX",
"< < +XsX:X:X;X&X&X%X$X$XY.R.x.k.j.j.f.s.d.u.u.t.v.y.` ( ( ( ` ( ( ` ` 1.s.t.t.t.t.t.u.s.f.f.j.j.l.l.R.Y.Y.$X%X&Xg $ 6 4 2 X o   ",
"O O OX:X;X=X=X=X&X%X$X$XR.z.l.k.j.j.f.y.y.y.y.5.c.q.2.;.` ` ` ` ` ( ' =.4.y.t.t.t.t.t.t.s.s.d.j.l.l.z.R.$X$X%X&Xg = 6 A 2 X O oX",
"O % L.:X;X=X=X&X%X%X$XY.z.z.l.k.j.s.s.o.( ( ( <.c.q.q.q.;.` ' ( ' ( ( ` ` ,.v.v.t.t.t.u.u.s.s.j.j.l.z.R.Y.$X%X&Xg $ 5 Z 8 X o   ",
"% % K.:X=X=X&X%X$X*XR.R.z.k.g.d.f.u.t.[ ) ` ( ;.5.q.q.0.4.:.=.;.=.=.;.=.=.<.5.y.y.y.y.y.t.B.s.s.d.d.g.l.T.R.>X$Xj = 7 S 7 . % oX",
"O % OXrX[.[.I.I.I.I.(.Z.Z.a.n.e.v.[ _ ) ' ` ` ` ` <.q.q.0.q.q.q.q.0.0.q.0.3.=.' *.' =.*.5.c.n.n.B.M.N.V.D.D.!.T.c & y S 8 @ +   ",
"% % P..XU.U.U.8.h.8.8.a.8.8.6.w.c._ Q ' ' ` ( ` ` ;.q.q.q.q.q.q.c.q.0.q.q.3.*.' ` ` ` ( 4.c.w.m.m.B.N.V.C.D.Q.I.j - 7 Z 5 + %   ",
"% % P..X(.(.(.(.(.Z.(.Z.M.M.8.o.[ ) ( ' ` ` ` ` ` 2.q.q.q.9.>.>.;.>.0.0.3.3.-.*.` ` ` ` ' =.5.c.e.M.M.N.V.D.!.I.j = : : ; . .   ",
"% % P.XX/.^.!.!.Q.Q.C.V.V.M.r.~ ~ ) ( ` ` ` ` *.*.>.0.0.0.9.-.-.-.>.0.0.9.3.-.` *.*.` ( ( Q <.c.m.m.M.V.V.D.Q.g.c 9 = # # @ X   ",
"% % P..X^.^.!.!.Q.Q.C.V.V.N.r. .~ ) ' ' ` ` *.*.*.;.0.q.0.9.-.>.>.>.0.9.5.3.*.*.*.=.:.=.` ( <.e.e.m.N.V.V.D.D.Q.%.@.u $ = t *   ",
"% % P..X^.^.^.!.Q.Q.Q.V.V.N.r.X._ ) ( ` ` ` ` *.*.2.q.0.0.3.-.;.;.>.0.0.9.3.-.*.*.=.=.=.` ( <.w.e.m.M.M.V.D.D.Q.^. X{ $ > n t   ",
"% % P.XX/.^.^.!.Q.Q.C.V.N.M.r. .~ ) ' ` ` *.*.*.*.>.0.0.0.9.-.>.;.>.9.9.9.3.-.-.=.:.=.,.] ( <.e.e.m.M.M.V.D.D.Q.!.^.{ $ > l r   ",
"% % P.XX^.^.!.!.Q.Q.C.Z.V.M.r.X.~ ) ) ` ` *.*.*.*.2.0.0.0.9.-.-.;.>.9.9.3.3.-.-.:.:.=.=.` ( <.w.n.m.M.V.V.Z.Q.Q.!.^.{ = > b r   ",
"% % K.XX^.^.^.!.Q.Q.D.C.V.N.r. .~ ) ( ( ` *.*.*.-.>.0.0.9.9.-.;.;.>.9.9.9.2.-.-.:.:.,.,.( ( <.e.e.M.M.M.V.C.Q.Q.!.^.{ $ > l t   ",
"% % P.XX/.^.!.!.Q.Q.D.V.V.N.r. .~ Q ' ` ` ` *.-.-.>.0.0.9.9.9.9.9.9.9.9.9.9.-.-.:.:.*.,.` ( <.e.e.e.M.V.V.C.Q.Q.!.~.{ $ > l t   ",
"o % P.XX/.^.^.!.Q.Q.D.C.V.M.r. .~ ) ` ` ` ` *.*.-.>.0.0.9.0.0.0.9.9.9.9.9.3.-.-.:.=.=.,.` ( <.e.e.m.M.M.V.C.Q.Q.!.~.{ $ > l t   ",
"O % P.XX/.^.^.!.Q.!.D.V.V.N.r./ / Q Q ( ` ` ` *.*.;.0.0.0.9.9.9.9.9.9.9.9.3.-.*.=.=.*.=.` E <.e.m.M.M.V.V.V.Q.Q.!.^.{ $ > l <   ",
"% % K.XX/./.^.!.~.Q.Q.C.V.V.r./ ~ ! Q ( ( ` ` *.*.;.9.q.0.3.;.;.-.>.9.9.9.2.-.-.*.,.X.X.' Q 4.e.m.M.N.V.V.C.Q.Q.!.^.{ @ > l <   ",
"% % P.XX/.^.^.!.Q.Q.D.C.V.V.a./ ^ ! Q Q ( ` ` ` ` ;.9.0.0.3.>.;.-.>.0.9.9.3.*.*.*.*.*.] ) W <.e.m.M.N.V.V.Q.Q.Q.!./.c $ > l t   ",
"O % K.XX/.^.^.~.!.Q.Q.D.C.V.r./ ^ ! Q Q ( ( ` ` ` =.q.q.q.9.;.>.-.>.9.q.9.3.*.` ' ] ] ] ) R <.e.m.M.N.V.V.Q.Q.Q.!.^.c # > l z   ",
"O O K.XX/.^.^.~.!.Q.Q.D.V.A.a./ ^ ^ ! Q E ( ( ` ` ;.q.q.0.9.;.;.-.>.0.0.9.3.*.` ] *.X.X.) R 7.M.m.M.N.V.C.Q.Q.!.^./.c % > b n #.",
"o % K.XX/././.^.!.Q.Q.Q.V.V.p.T ^ ^ W Q Q Q ( ( ( =.q.w.q.3.-.-.-.>.0.0.9.3.` ( ' ) ] _ Q R 1.e.M.M.N.V.D.D.Q.~.U.%.f @ - < y OX",
"O O P.XX/./.^.^.!.!.Q.(.C.C.a.T Y Y W R R Q Q Q ( ] q.w.c.5.;.-.-.;.0.0.0.4.` ( Q Q Q R R F 1.e.M.M.V.C.D.D.~.I.c - $ @ . . * L.",
"O % K.qX/./.^.^.!.!.Q.Q.Q.C.a.} Y Y Y R R R E Q Q ] c.b.c.5.;.-.>.>.q.q.q.5.( Q Q Q R R Q ! 1.M.M.V.V.C.D.Q.!.I.x $ $ ; . X O   ",
"O O K.qX/./.^.^.^.!.!.Q.Q.C.C.a.r.Y P Y W Q R R R ( t.b.c.q.q.q.q.q.c.c.w.5.( R R R R W 1.a.m.M.N.V.C.C.D.Q.!.I.g = 6 A 2 X O oX",
"O O +XqX.X.XW..X{.[.).).~.).Q.F.f.T I U ^ R R R W _ c.m.b.b.c.c.c.c.t.w.w.3.` ( ) Q Q _ 6.M.M.M.M.V.V.C.Q.Q.!.I.g & 8 S 4 X O   ",
"O O @XgXdXpXpXpXyXeXrX8X8X6X<X>X>Xx.j./ P Y P ~ f.t.n.m.c.<.,.=.=.<.,.1.,.1.c.a.B.a.B.s.A.F.F.H.).).|.[.{.4XqX{.x & 5 S 3 X O oX",
"O O #XjXlXlXhXhXfXdXdXtXeXwX7X5X5X<X,X$.I U I $.J.H.G.M.c.) R R R R R R P ..H._._._._.`.|.,X,X<X5X0X0XeXeXtXtXyXx # 5 S 3 X o   ",
"o O #XjXlXlXgXhXhXfXtXtXeXeXwX7X5X4X>Xx.i.$.i.u.J.J.a.1.o.P F F P P P X.i.f._._._._.`.`.2X,X<X4X5X0X0XeXeXtXfXyXM # 5 A 5 X O oX",
"O * #XkXjXjXlXgXdXdXaXtXtXeXwX8X5X<X<X<X,X2X'.J.H.F.7.D I D D D I I D $._.J._._.`.|.'.'.,X<X<X6X7X7XwXeXtXtXfXyXM . 6 4 2 X O   ",
"  m #X#X@X@X:XgXgXdXdXpXtXtXeXwXwX5X5X<X<X,X,X`.J.F.f.o...o.o.$.o.o...f.|.`.`.`.'.'.1X,X<X<X6X5X7XwXeXeXtXaXfXyXM @ : 2 1 X <   ",
"    z * o O V gXlXhXhXaXaXtXiXeXuXwX9X5X5X<X3X3X2X}.'.'.`.`.`.`._.`.`.|.2X`.,X'.'.3X4X<X5X5X9XuXuXeXiXiXfXfXhXpXM @ % & O X     ",
"      z * . N -X-XW.W..X{.{.].].T.).).H.H.g.g.S.g.A.g.A.A.S.A.S.A.d.A.A.A.S.A.H.S.g.g.H.g.H.T.).].].{.{.E..XW.=Xl @ , y y b     ",
"        C , - q q q q g v j j j L L L K J J J J H U U U U U U P U P U U U U U U H H H } T L K L L j j f e e w r & &             ",
"          V t y t & & u i i f f f h j h a s K } } } } | } / | | | | | | | | } T H s s K K h h h h f g p - - r y y b             ",
"                  r & - > 9 0 w 0 e e d a k Y.1X1X1X1X>X>X>X>X>X>X>X>X>X>X>X1X1X$.k s a a a a e 0 0 0 9 - p                     ",
"                  l - - - - q 9 w w e d d @.                                    z.{ k a d d e e w 9 q - q B                     ",
"                                        $X6X            9X9X9X9X9X9X9X9X9XuX    9X*Xz.Y.$X@X          @X                        ",
"                                                                                                                                ",
"                                                                                                                                ",
"                                                                                                                                ",
"                                                                                                                                ",
"                                                                                                                                ",
"                                                                                                                                ",
"                                                                                                                                "
};
