/* XPM */
static char *_e0dfa6e59734902b068c6d38edf0dd0HJmHN9IFZ984Q5eT[] = {
/* columns rows colors chars-per-pixel */
"64 64 240 2 ",
"   c None",
".  c #0B0B0E",
"X  c #080508",
"o  c #060614",
"O  c #0D0D13",
"+  c #0B0C1A",
"@  c #070819",
"#  c #0F1019",
"$  c #111114",
"%  c #13141C",
"&  c #1A1A1D",
"*  c #180D13",
"=  c #311110",
"-  c #0C0E26",
";  c #0E112A",
":  c #171926",
">  c #151938",
",  c #1A2136",
"<  c #1E2029",
"1  c #262729",
"2  c #2C2D34",
"3  c #282B39",
"4  c #2F3037",
"5  c #353539",
"6  c #2A1529",
"7  c #58180D",
"8  c #4D1816",
"9  c #681C0B",
"0  c #641E19",
"q  c #541D25",
"w  c #712118",
"e  c #141948",
"r  c #171D57",
"t  c #0F1443",
"y  c #192349",
"u  c #182345",
"i  c #1C2259",
"p  c #2C3249",
"a  c #373B4A",
"s  c #21285A",
"d  c #2C3657",
"f  c #333D54",
"g  c #353C59",
"h  c #282C42",
"j  c #171D65",
"k  c #1C2263",
"l  c #1C236B",
"z  c #1A2373",
"x  c #1C277A",
"c  c #242B67",
"v  c #2B3669",
"b  c #333C66",
"n  c #232D75",
"m  c #2A3477",
"M  c #323C75",
"N  c #374259",
"B  c #3F424A",
"V  c #3B4667",
"C  c #384877",
"Z  c #314978",
"A  c #44454B",
"S  c #424652",
"D  c #474B56",
"F  c #56575B",
"G  c #545866",
"H  c #4B547B",
"J  c #4A5170",
"K  c #616266",
"L  c #676A77",
"P  c #76777C",
"I  c #5E6377",
"U  c #8F2713",
"Y  c #A52B0E",
"T  c #1E298C",
"R  c #1D2784",
"E  c #1F2A95",
"W  c #1F2B9A",
"Q  c #222D89",
"!  c #2A3689",
"~  c #313D8A",
"^  c #212D9C",
"/  c #212D93",
"(  c #293598",
")  c #323E95",
"_  c #222EA5",
"`  c #222FA8",
"'  c #2431A5",
"]  c #2533AA",
"[  c #2836AA",
"{  c #2D3BAC",
"}  c #2D3AA4",
"|  c #2A3AB3",
" . c #2737B8",
".. c #2A38AB",
"X. c #364486",
"o. c #35489B",
"O. c #3F508B",
"+. c #3242AC",
"@. c #3546A4",
"#. c #3845B8",
"$. c #3652B9",
"%. c #3146B8",
"&. c #3E62B4",
"*. c #4A5284",
"=. c #424E94",
"-. c #49568F",
";. c #5F678C",
":. c #6E7494",
">. c #4858B1",
",. c #4D6FB5",
"<. c #6F78AC",
"1. c #2535C3",
"2. c #2839C8",
"3. c #3C4BC3",
"4. c #344AC4",
"5. c #344AD6",
"6. c #3A52D6",
"7. c #3952D9",
"8. c #3B58D8",
"9. c #364DCC",
"0. c #3E64DA",
"q. c #3F61CF",
"w. c #3E5AE4",
"e. c #3E57E1",
"r. c #3F61E4",
"t. c #4857CB",
"y. c #4659D7",
"u. c #515FD5",
"i. c #4768CB",
"p. c #5576C4",
"a. c #4768D8",
"s. c #5564DD",
"d. c #5965DC",
"f. c #5C6ADB",
"g. c #5B69D6",
"h. c #4477D8",
"j. c #5877DA",
"k. c #4C6ECC",
"l. c #616DDA",
"z. c #6671D6",
"x. c #6A74D6",
"c. c #6D7AD5",
"v. c #6577D9",
"b. c #737ED6",
"n. c #425DE4",
"m. c #4A5FE2",
"M. c #4361E5",
"N. c #4563E9",
"B. c #496AE6",
"V. c #5263E0",
"C. c #5E6CE2",
"Z. c #4B75EA",
"A. c #4F7AEB",
"S. c #4A77E6",
"D. c #527DEA",
"F. c #5478E4",
"G. c #6B78E5",
"H. c #727EE3",
"J. c #7C869E",
"K. c #7F8598",
"L. c #7A82AA",
"P. c #5A87DC",
"I. c #4784D8",
"U. c #7C87CB",
"Y. c #6888D9",
"T. c #7786D3",
"R. c #6896D9",
"E. c #6B92D2",
"W. c #7FA2DC",
"Q. c #5384EA",
"!. c #568CEB",
"~. c #598EEC",
"^. c #5888E7",
"/. c #5A93EE",
"(. c #5E9BEE",
"). c #5590E8",
"_. c #558DEB",
"`. c #619DED",
"'. c #6A99E9",
"]. c #7B88F1",
"[. c #6A93EB",
"{. c #63A2ED",
"}. c #6AA6EA",
"|. c #79A9E8",
" X c #64A2F1",
".X c #7BADF1",
"XX c #828A9C",
"oX c #838796",
"OX c #87888E",
"+X c #888FB9",
"@X c #A4A5A9",
"#X c #B5B6B9",
"$X c #9FA0A4",
"%X c #838BCB",
"&X c #8087CC",
"*X c #8C93CB",
"=X c #8A9CCE",
"-X c #959CCA",
";X c #8495D3",
":X c #9BA2C8",
">X c #81A4DC",
",X c #88ACDD",
"<X c #92B4DC",
"1X c #9AB9DC",
"2X c #8DB1DF",
"3X c #A5A9C6",
"4X c #B3B7CA",
"5X c #828DF3",
"6X c #8993F3",
"7X c #8D99ED",
"8X c #8CB2E1",
"9X c #95B7E9",
"0X c #9AA3F4",
"qX c #93AFF0",
"wX c #84B4F1",
"eX c #8BB4F1",
"rX c #88ADEE",
"tX c #AEB8F0",
"yX c #9EC2EF",
"uX c #BCC5EC",
"iX c #BBC3F3",
"pX c #BEC1D3",
"aX c #D7D8DF",
"sX c #C4CAED",
"dX c #CBD4EB",
"fX c #C6CCF2",
"gX c #C9CEF2",
"hX c #C0C6F1",
"jX c #CDD3F5",
"kX c #D2D5F3",
"lX c #D6D9F2",
"zX c #DBDEF2",
"xX c #D5DBF8",
"cX c #D5D8E2",
"vX c #DDE2F5",
"bX c #E3E5F2",
"nX c #EAEDF4",
"mX c #E6EAF7",
"MX c #EEF1FA",
"NX c #F5F6FB",
/* pixels */
"                                                                                                                                ",
"                                                                                                                                ",
"                                                                                                                                ",
"                                                                                                                                ",
"                                                                                                                                ",
"                                                                                                                                ",
"                                                                                                                                ",
"                                                    0X0X0X0X0X0X0X0X0X0X0X0XtX0X                                                ",
"                                                    0X                      0X0X                                                ",
"                                                0X6X6X6X6X6X6X5X5X6X6X6X6X6X    0X0X                                            ",
"                        ;.H *.*.*.O.=.=.=.o.=.>.t.5X5X5X5X5X5X5X].].5X5X5X5X      0X    <.=.=.*.*.*.H H H J G J                 ",
"                        J b M M M ~ ! ~ ) ) ) } +.b.5X].].].H.H.].].].].5X5X6X5X6X6X  b.=.~ ~ M M M V b g g g p L               ",
"                      L.M v v M m ~ ~ ! ) ) } @.+.z.c.G.G.G.G.G.G.G.G.G.G.G.H.H.H.H.b.>.) ~ ! m m M v v g v g f J               ",
"                J g b d r r r c l n n Q / ! } +.+.#.#.#.#.#.#.>.3.#.#.#.| >.{ >.@.} ( / Q n n l k i i i y y V D D D S A K       ",
"              ;.p > e e r r k l l x x R T / ) { { { { | { | | | | { | { | | { { } / / Q R x z z l i r r e e g V N f a a A       ",
"          F f u > > e s v m m m ! ! ( ( / T ^ ' ' ` ] ] ] ] ] ` ] ] ] ` [ ] ] _ _ / / ( ( ( ! ! ! m v s e e > , > > p S S F L L ",
"        P > u s i c c X.o.X.X.o.@.@.@.+.] ] ]  . . .[  .| | | | |  .|  .|  .|  . .] | +.+.+.@.@.o.o.o.! m c n s > ; h N A B A K ",
"      G 3 ; Z ,.,.i.q.,.h.q.q.i.q.8.y.8.8.8.7.8.7.7.7.7.5.7.7.7.7.7.5.7.7.7.5.7.7.8.8.8.8.8.0.q.i.a.i.i.k.h.k.,.d ; > , < : 1 P ",
"    D : - + V =X-X;X;X%XE.T.Y.c.z.j.f.f.s.s.a.u.u.m.V.V.V.V.V.V.V.V.V.V.m.s.u.V.V.s.s.d.f.j.z.v.v.b.T.E.T.;X=X=XN ; ; ; @ o +   ",
"    :.L I I :.3X:X-X*X*X%X&Xb.b.x.x.z.g.f.f.V.V.s.u.t.#.3.3.3.3.3.3.3.t.s.s.s.d.s.s.d.f.l.z.x.c.b.T.%X%X*X*X:X:XN ; : 8 & o % OX",
"4 4 XXpX4X4X3X:X:X-X*X%X&XT.T.c.x.z.z.l.l.d.C.d.V.y.] _ _ _ _ _ ` ` ` #.C.d.d.s.s.s.s.f.f.l.z.x.b.T.U.%X%X*X:X-Xv - 8 w 8 @ *   ",
"% % OX4X3X3X3X:X-X*X*X%X&XT.b.c.x.z.l.t.t.t.t.y.M.n.9.4.] _ ] ] ' ` ` #.t.y.d.d.s.s.s.d.f.l.z.x.c.b.T.U.%X*X-X-Xg - q U 8 @ -   ",
"% - K.4X3X3X:X:X-X*X*X%X&XU.b.x.z.z.f.#.' ' ` 4.N.n.w.w.4.^ ' _ _ ` ` ` ' %.d.d.d.s.d.d.f.l.l.z.x.b.T.U.%X*X-X-Xb ; 0 Y 0 @ %   ",
"% % oX4X:X:X=X:X*X;X;XT.T.c.c.j.z.g.g.+.] ' _ 2.8.w.r.w.5. . . . . .|  . .#.y.u.y.t.u.u.s.V.f.j.z.v.c.T.T.;X;X;Xb ; q Y 0 @ %   ",
"% - XX9XR.R.R.R.^.P.j.F.j.h.B.a.a.+.[ [ [ [ _ ' ] 4.n.N.w.n.N.n.M.n.n.n.n.5. .] ' ] ] | 8.N.B.Z.Z.Z.F.D.Q.Q./.Y.C ; 0 Y w + -   ",
"% % XX|.I.I.h.h.h.h.h.0.0.a.0.r.y.} ' ' [ ] _ ` _ | N.n.n.m.m.m.s.M.n.n.n.7.] ` ` ` _ _ 4.B.B.B.B.Z.Z.A.Q.!.~.Y.M ; q U q + &   ",
"% % J..X).).I.Q.I.Q.Q.h.Z.Z.i.#.+.( ^ ' ` ' ' ` `  .n.r.m.y.2.2.4.5.w.n.n.y.] ` _ _ ` _ ..+.6.B.Z.Z.Z.D.Q.Q.~.P.M ; : 6 * @ @   ",
"% - J..X(.(././._.!.Q.Q.D.D.k.) } ( ' ' ` ` ` ` _ 4.n.N.N.7.2.1.1.2.w.w.7.5. .` ` ` ` _ W W 4.B.N.Z.Z.D.Q.Q./.P.V > - @ @ @ @   ",
"% % J..X(././././.!.Q.Q.A.A.u.) ( ^ } _ _ _ ` _ ` | n.N.N.7.1.2.2.2.w.w.n.7. ._ ` ] ..] ' / 9.r.Z.Z.Z.A.Q.Q.~.^.,.-.d + : 3 :   ",
"% - J..X(.(././._.!.Q.Q.A.A.i.) ( ( ' ^ _ _ _ _ ` %.n.N.n.7.1.2.2.2.w.n.7.5.` ` ] | %.+.' ^ 4.Z.Z.Z.A.A.Q.Q.^.~.(.{.X.+ > D 5   ",
"% % J..X(.(./././._.Q.Q.Q.A.a.) ( ( ^ ^ ^ ` _ ` ` %.n.n.N.7.1.2.2.2.w.w.e.y. ._ ] ] ] +.+.T 4.r.Z.Z.A.Q.Q.Q.!.)./.(.O.- : A 2   ",
"% % K.wX(.(././._._.!.Q.A.A.a.o.( ( ( ' ^ _ ` _ ` | n.N.N.7.1.2.2.2.w.e.e.5.` ` ] ` +.+.' T 9.Z.Z.Z.A.A.Q.^.~././.(.C - : S 2   ",
"# % J.wX(.(.(./.~.!.!.Q.Q.D.g.~ ( ^ ( W W ^ _ _ ` %.n.N.m.5.1.1.2.2.w.w.w.e. .` ' [ { { ( T 4.Z.Z.A.A.Q.Q.!.!.~./.(.O.# : D 4   ",
"% & J.wX`.(.(./.~.~.!.Q.Q.D.k.) ! ! ! ^ W W _ _ _  .n.n.n.n.5.5.5.e.n.w.w.5.` ` [ [ } { ( T $.Z.Z.A.A.Q.!.!.~././.(.Z + < N 4   ",
"# % J.wX`.(.(././.~.!.!.Q.Q.g.~ ! ! ! / W W _ _ _ | N.N.n.N.N.N.N.n.n.w.n.5.` ` ] ' { } / R $.Z.A.A.Q.Q.!.!././.(.(.C + : S 4   ",
"% % J..X{.`.(.(././.~.!.Q.Q.p.~ ! ! Q T T W W ^ _ | n.N.n.m.y.y.n.n.n.w.e.5.` ` ' } } } / R 4.S.A.Q.Q.Q.!.~././.(.(.Z + < A 2   ",
"$ % XXwX{.`.(.(./././.!.Q.Q.p.X.! ! Q Q T T W W ^ | n.N.n.y.2.2.2.2.M.w.e.6.` ^ ^ ( } } Q x $.D.A.Q.Q.!.!.~././.(.{.Z o : A 2   ",
"# $ J.wX{.{.(.(././././.!.!.k.~ ! n Q R R T T W E { N.N.n.y.2.1.1.1.n.w.n.5.` / ( ( ( ) Q z $.S.Q.Q.Q.!.)././.(.(.}.C o : A 2   ",
"$ % XXwX{.{.(.(./././.!.~.!.p.M m n n n R R T T T [ B.N.N.y. .1. .2.M.r.y.6.^ / ( / ( ) Q z $.S.Q.Q.!.~.~././.(.(.{.C . & A 5   ",
"$ $ XXeX{.{. X(.(.(./.~.~.~.p.C m n n n z x R T T } B.Z.N.7. .1. .1.M.N.0.8./ T Q ! ~ ) n j $.Q.Q.Q.!.)./././.(. X XC X 1 A A :.",
"$ $ XXyX(.{.{.(.(.(.(./././.p.C m c c z z z x R R ( B.Z.B.y. .1. .1.w.r.y.8.T R Q ! ! m z k $.Q.!.!.~.~./.(.(.}.E.I.d o # 2 5 OX",
"$ $ XXwX{.{.{.{.`.`.(.)././.p.b c c c l l z z z z ( B.A.F.t. .`  . .B.a.a.q.T z z z z l i i &.I.!.~.~././.(.`.R.B . . X X . $ K.",
"$ $ XX.X{.{.{.{.`.(.(.(.(./.p.V b c c i k k l z z ! C.D.D.i. . . . .a.S.h.q.R z z z k j k n &.!.~./././.(.(. XR.B o X . X X .   ",
"$ $ XXyX}.{.{.{.{.(.(.(.`./.[.P.p.v y c c k j l j ! F.D.D.C.a.B.B.a.D.S.F.q.x k k r r k >.j.I.~./././.(.(.(. XR.B o 8 U 7 X $   ",
"$ $ OXyX|.wX|.|.|.|.|.|.'.W.'.|.&XM s i c i r i l ~ F.Q.D.Q.D.D.D.D.D.F.D.i.Q x x z z ! h./.!.~./.~./.(.(.(. XR.a X 9 Y 9 X .   ",
"$ $ @XnXcXdXdXcXdXdXsXsXsXsXhXtXtX+X+XV r i e M <.U.^.[.F.$.@.@.@.o.@.o.o.$.Y.Y.Y.Y.Y.R.;XrXrXrXwXrXeX9XyX9XyX<XA X 9 Y 9 X $   ",
"$ $ @XNXnXnXMXMXnXmXbXbXvXzXlXlXlXlXsXH > t e ;.tXtX'.[.Y.m r r r i r r i -.tXtXiXiXiXhXfXgXjXjXlXlXvXvXvXbXnXcXA X 9 Y 9 X .   ",
"$ $ @XNXnXnXnXnXbXbXbXbXbXzXzXlXlXkXgX*X:.<.:.+XuXtXY.>.O.i e r r e r C <.L.tXuXiXuXfXfXgXjXkXkXlXzXvXvXbXbXnXcXA X 7 U 9 X $   ",
"& & #XNXNXNXMXnXnXnXbXbXbXbXzXzXlXkXkXjXjXjXgXtXqXqX,.e t t t t t t t ;.iXhXuXhXfXfXfXgXjXdXkXlXzXzXzXbXbXbXnXaXA X 7 9 7 X $   ",
"  F $X@X@X$X#XMXnXnXnXvXbXbXbXzXvXvXlXlXkXkXjXsXtXeXU.H H H *.*.*.*.H +XgXfXgXfXgXjXjXjXlXlXvXvXzXbXbXbXbXnXnXaXA X = 7 = X 4   ",
"    5 & . O K nXMXMXMXMXmXMXmXvXvXvXvXvXxXxXxXxXxXxXjXjXfXfXfXgXfXfXgXgXjXjXxXxXxXxXvXvXvXvXvXmXmXMXnXMXNXMXNXaXF X . $ . X     ",
"      5 & . J <X<X<X<X<X<X8X<X8X8X8X8X,X,X,X>X>XW.W.>X>X>XW.>XW.W.;X>X>X|.>X>X>X>X>X>X,X8X8X8X8X8X8X2X<X<X<X1X4XB X 1 5 2 A     ",
"        K 1 & , , , , B N N N N N f N f u u u u u u y y y y y y y y y y y u y e u u u f N N d N N f N p , , < 1 $ .             ",
"          K 5 5 & O . 2 5 4 4 2 4 5 5 3 % # 3 a h a p a h f p f p f p f p a h a 3 + : 4 5 4 5 4 5 4 5 1 . $ 1 2 2 A             ",
"                  1 . $ & & $ & % & : & # 2                                     G < + : : & % : % % % $ $ 2                     ",
"                  B $ $ O $ $ $ $ % + - & F                                       S % % # % # & $ % $ $ & F                     ",
"                                                                                                                                ",
"                                                                                                                                ",
"                                                                                                                                ",
"                                                                                                                                ",
"                                                                                                                                ",
"                                                                                                                                ",
"                                                                                                                                ",
"                                                                                                                                "
};
