/* XPM */
static char *_de488be8a244102cd0665286dfc53f3N60beHvTOePocCHb[] = {
/* columns rows colors chars-per-pixel */
"64 64 231 2 ",
"   c None",
".  c #050305",
"X  c #0B0B0D",
"o  c #06050A",
"O  c #0C0C13",
"+  c #080916",
"@  c #0F1018",
"#  c #111115",
"$  c #13131A",
"%  c #1A1B1D",
"&  c #170A13",
"*  c #2E1010",
"=  c #0B0D22",
"-  c #0F1226",
";  c #1A1B25",
":  c #17192B",
">  c #151727",
",  c #141839",
"<  c #1C243A",
"1  c #26262A",
"2  c #2D2D33",
"3  c #272B39",
"4  c #323235",
"5  c #333439",
"6  c #3B3A3D",
"7  c #37383E",
"8  c #2F3035",
"9  c #311520",
"0  c #561B17",
"q  c #4F170F",
"w  c #671B0B",
"e  c #651D15",
"r  c #752010",
"t  c #12174C",
"y  c #14194D",
"u  c #171C46",
"i  c #161B53",
"p  c #191E54",
"a  c #181D5C",
"s  c #1E2A4E",
"d  c #1B2347",
"f  c #1C2354",
"g  c #1D225B",
"h  c #1E2A52",
"j  c #252D46",
"k  c #313542",
"l  c #3C3D42",
"z  c #393C47",
"x  c #232958",
"c  c #333A59",
"v  c #2A3352",
"b  c #191F62",
"n  c #161D68",
"m  c #181F71",
"M  c #1C2264",
"N  c #1B236D",
"B  c #1A2374",
"V  c #1B2479",
"C  c #1D2778",
"Z  c #242C6C",
"A  c #232767",
"S  c #2C3469",
"D  c #333866",
"F  c #242D73",
"G  c #222C7C",
"H  c #2A3474",
"J  c #2A3579",
"K  c #343E77",
"L  c #3E414B",
"P  c #3A4359",
"I  c #2A405E",
"U  c #3B4767",
"Y  c #364777",
"T  c #3A5178",
"R  c #43444B",
"E  c #4A4A4D",
"W  c #444345",
"Q  c #4C4D52",
"!  c #454956",
"~  c #555558",
"^  c #454964",
"/  c #4A5373",
"(  c #5F616C",
")  c #67676A",
"_  c #767679",
"`  c #8D2610",
"'  c #A52B0F",
"]  c #1E2B85",
"[  c #1F2D8C",
"{  c #222D84",
"}  c #2A3688",
"|  c #313D84",
" . c #313D8C",
".. c #2C3B95",
"X. c #293796",
"o. c #343E94",
"O. c #1D2BAD",
"+. c #1D2DB2",
"@. c #2734AD",
"#. c #2434B4",
"$. c #2739B8",
"%. c #2836AF",
"&. c #37448A",
"*. c #374197",
"=. c #394396",
"-. c #3A4F8A",
";. c #3449A8",
":. c #3B58AC",
">. c #3954B6",
",. c #3E4EBD",
"<. c #495693",
"1. c #5E6284",
"2. c #4E658A",
"3. c #6D718E",
"4. c #404AA3",
"5. c #4B56AB",
"6. c #497ABD",
"7. c #4A7BB6",
"8. c #567CB9",
"9. c #5668B3",
"0. c #6E77B3",
"q. c #3E5BCC",
"w. c #3F61CB",
"e. c #4D5FCA",
"r. c #435BD3",
"t. c #4162CA",
"y. c #4D65CB",
"u. c #4B79C0",
"i. c #5676C5",
"p. c #496DDB",
"a. c #456AD9",
"s. c #4C72DD",
"d. c #5977DB",
"f. c #5669CE",
"g. c #617EDE",
"h. c #6B75C7",
"j. c #4B6EE1",
"k. c #456EE1",
"l. c #4C72E2",
"z. c #4E7BEA",
"x. c #5274E2",
"c. c #537CEB",
"v. c #577CE7",
"b. c #607CE0",
"n. c #7E889C",
"m. c #4F81BE",
"M. c #5182BE",
"N. c #7984B2",
"B. c #5384C5",
"V. c #4686D5",
"C. c #4985D6",
"Z. c #5C86DC",
"A. c #548BCF",
"S. c #6686DA",
"D. c #699AD8",
"F. c #7B8ACC",
"G. c #75A3DB",
"H. c #5384EA",
"J. c #568CEC",
"K. c #598EEB",
"L. c #5C85E6",
"P. c #5B94ED",
"I. c #5E9BEE",
"U. c #5796E3",
"Y. c #5B94F1",
"T. c #6889E6",
"R. c #619DED",
"E. c #6897E8",
"W. c #7797E5",
"Q. c #708EEE",
"!. c #63A2EE",
"~. c #6BA5EB",
"^. c #72A5E9",
"/. c #848589",
"(. c #818A9C",
"). c #919398",
"_. c #8188B6",
"`. c #9598AB",
"'. c #B4B5BE",
"]. c #B9B9BD",
"[. c #A9ABB6",
"{. c #8A94C9",
"}. c #9DA2C6",
"|. c #94A6CC",
" X c #9BABCA",
".X c #9DA8C9",
"XX c #86A5DB",
"oX c #97A8D2",
"OX c #97ABCC",
"+X c #A2A5C5",
"@X c #A5A9C4",
"#X c #ABACC2",
"$X c #A2ABCD",
"%X c #AEB1C1",
"&X c #A3B3C9",
"*X c #A8B3C9",
"=X c #B4B5C2",
"-X c #A7B3D6",
";X c #8C96EA",
":X c #8F99EE",
">X c #8295EB",
",X c #929BEC",
"<X c #929CF1",
"1X c #8C98F1",
"2X c #9BA4EE",
"3X c #9AA6EB",
"4X c #99A3F1",
"5X c #84B6F1",
"6X c #88B1EE",
"7X c #A4ACEE",
"8X c #ACB4ED",
"9X c #A7B3E9",
"0X c #B4BBEE",
"qX c #B7BDEB",
"wX c #A3ADF2",
"eX c #B5BCF2",
"rX c #A8B2F3",
"tX c #BCC3EA",
"yX c #B7C3F0",
"uX c #BCC1DF",
"iX c #C5C5C9",
"pX c #CFCED2",
"aX c #C3C9EB",
"sX c #C4CAF3",
"dX c #C9CDF1",
"fX c #CCD1F4",
"gX c #D5D9F3",
"hX c #D1D6ED",
"jX c #DDE1F4",
"kX c #E7E9F7",
"lX c #F3F4FF",
/* pixels */
"                                                                                                                                ",
"                                                                                                                                ",
"                                                                                                                                ",
"                                                                                                                                ",
"                                                                                                                                ",
"                                                                                                                                ",
"                                                                                                                                ",
"                                                                                                                                ",
"                                                                                                                                ",
"                                                                                                                                ",
"                          E E E E E E Q Q Q ~ !                                           Q Q Q Q Q Q E Q Q E ~                 ",
"                          6 6 6 6 6 6 6 l 6 7 5 E                                       E l 6 6 6 6 6 6 6 6 5 4 )               ",
"                        1 8 4 5 5 5 5 5 5 4 l R R                                     _ 5 4 5 5 4 4 4 5 4 4 W 6 ~               ",
"                W 4 4 1 % # $ $ $ $ $ $ $ ; 6 E R ! z ! L ! L ! L ! R ! L ! R Q L 5 5 ; $ $ $ $ $ % $ $ % % 6 E E W W W         ",
"              ) 2 X X # # $ # # $ $ $ $ $ > 4 z z 7 k k k k k k k k k k k k k z 3 - @ $ $ $ $ $ # # # # X $ 6 6 6 5 5 5 W       ",
"          ~ 4 % # X X 1 8 1 8 2 2 2 3 1 $ + - > > : : : : : : ; : : : : : : : : = + - 2 8 8 3 2 2 2 2 1 X X # % # % 4 W W ~ _ ) ",
"          1 ; < < < 3 L P U P P U U U P v d s s s s s s h h h x h h h h s x f f s s h U U T U U U U ^ P j s < < X X 1 L W l W ) ",
"        % X I 7.7.7.m.m.M.m.m.m.M.M.m.6.7.6.7.7.6.6.6.6.6.6.6.6.6.u.u.u.6.6.6.u.6.6.B.B.B.B.B.B.B.B.B.B.m.m.B.m.8 X % % % # 1 _ ",
"      % X . ! *X&X&X@X&X&X&X&X&X&XOXOX XOXOX|.|.|.oXoXoXoXoXoXoXoXoXoXoX|.|.|.|.|.|.oXOXOXOX X X&XOX&X&X&X&X-X*Xl X X X X . X   ",
"    /.) ) ( /.].].].].].'.'.[.'.'.'.[.#X[.@X@X@X#X`.3.1.1.1.1.1.1.1.1.n.}.}.+X+X.X@X@X#X#X[.#X%X%X'.'.'.'.].iX].6 X * q * X # /.",
"4 2 ).pXiXiXiX].].'.'.'.'.'.#X'.#X#X#X*X-X-X-X*XoXN.d , , , , , , , , <.-X$X+X}.}.}.}.@X@X@X#X#X#X'.'.'.[.%X].=X7 . q ` q . X   ",
"X # /.iX].].].].'.'.'.'.[.'.'.#X#X#X@X(.3.n.3.F.W.S.-.-.i t t t y t t ^ 0.0.}.}.}.}.}.}.+X@X@X@X@X@X%X'.%X=X=X'.6 . q ` q . # /.",
"# # /.iX].].].'.'.'.'.%X#X%X#X#X#X#X}./ , u , <.E.R.P.L.| t t t t t t y y / }.}.oX.X}.}.}.}.+X+X@X@X#X&X%X'.=X'.7 o w ' w . X   ",
"X # /.iX%X&X'.&X&X&X&X&X$X XOX}..X`.`.P u u t Y i.i.K.J.:.J J H J J J H F <._._._._._._.{.XX{.|.|.|.|.|.OXOX-X XL o w ' w . # /.",
"# # ).-XG.G.D.G.D.D.D.D.D.A.Z.U.S.U x x x d t u x &.T.J.v.S.Z.S.Z.Z.Z.d.d.9.F g x M f S u.Q.E.E.I.E.R.!.R.~.~.G.P X w ' r . X   ",
"# # ).5XU.V.V.V.V.V.V.V.V.C.C.C.Z.v u f x p y i y  .T.J.L.S.S.g.g.g.T.v.Z.t.N i i y t y <.E.E.U.P.I.P.I.R.R.!.G.P + q ' w . X   ",
"# # n.5XU.U.U.U.U.U.U.U.P.P.B.<.Y x x d i i p a a &.L.H.T.f.%.%.%.5.v.v.d.w.N g a a i i Z K 9.J.P.U.P.P.R.R.!.D.L + & * & . .   ",
"# # n.5X!.!.!.!.!.!.!.!.R.R.8.c v x x i i p a a b  .L.c.T.e.@.O.O.$.l.l.s.w.B M M b a p i y :.U.K.P.P.E.P.R.!.D.P @ o o . o .   ",
"X # n.5X~.!.!.!.!.!.I.I.I.I.8.U S x x p i a b M n ..L.c.L.e.O.O.+.$.s.l.p.w.G N Z N F Z M i :.J.J.P.Y.P.R.P.R.E.8.2.j o $ 2 %   ",
"# # n.5X!.!.!.!.!.U.I.I.Y.Y.B.D D x A a a b b n N ..v.c.L.e.O.+.+.;.l.s.w.w.G C F F J &.Z i :.J.J.K.J.P.U.I.I.R.!.~.T + ; R 8   ",
"# # n.5X!.!.!.!.!.!.I.I.Y.Y.V.U S A x a b n m m m ..v.c.v.e.O.+.+.$.k.s.w.w.] B F J | J Z a :.H.J.J.K.P.P.P.I.I.E.!.T + > R 2   ",
"# # n.5X!.!.!.!.U.!.I.U.Y.Y.m.U S A A A b A A B N ..v.c.v.e.+.+.+.$.k.z.l.w.C B G G } | F a >.H.J.J.J.K.P.P.I.I.I.!.T + ; R 2   ",
"# $ (.5X!.!.!.I.I.I.P.P.K.P.i.K S Z A N N N B B V o.x.c.v.r.+.+.+.$.j.j.j.r.C V G J } | F n :.H.H.J.J.J.K.Y.Y.I.I.!.T + > R 4   ",
"# # (.5X!.!.!.I.I.R.P.P.P.P.i.K S Z Z A N N B B m X.x.c.c.f.r.r.q.q.x.k.k.r.] V G }  .} F n >.z.H.H.J.J.K.P.P.I.I.!.T + > R 8   ",
"# $ (.5X!.!.!.I.I.Y.Y.P.K.Y.i.Y H Z Z B N B B B V X.x.c.x.v.b.v.c.c.x.k.a.q.] V { {  . .G n >.c.H.H.H.J.K.P.P.P.P.!.Y + ; ! 8   ",
"# # n.5X!.!.!.I.R.P.P.Y.K.J.i.K H H F A B B B V V X.x.c.v.x.f.f.f.d.x.j.a.w.] V { { }  .G m >.x.H.H.J.J.K.P.P.P.I.!.T + ; R 8   ",
"# $ (.5X!.!.I.I.I.P.Y.P.K.Y.i.K H F F N B B B V m ..x.c.c.e.@.@.#.$.k.l.a.w.[ V J {  . .V m >.z.H.H.H.J.J.P.P.P.I.I.Y + ; L 8   ",
"# % (.5X!.!.I.I.I.P.P.K.J.J.i.K H F F F B B V V m ..x.c.c.e.@.+.+.#.p.l.a.t.] V { { } o.] m >.z.z.H.H.J.J.J.P.P.Y.I.T + ; L 8   ",
"@ $ (.5X!.!.I.I.I.P.P.K.J.J.i.K H F F m m B V V m X.x.c.c.e.@.+.O.$.j.s.p.q.{ V { { }  .G B >.z.H.H.H.H.J.K.P.P.I.R.Y + ; W l   ",
"# $ (.5X!.!.I.I.Y.P.Y.K.J.J.f.K H H F B V V V V m X.c.c.c.e.@.+.O.$.l.k.p.q.] V { } .. .G B >.z.c.H.H.H.J.J.K.P.I.!.T + ; E E 3.",
"# $ n.5XR.I.I.I.I.P.P.J.J.J.f.Y J F F F m V V V B X.x.c.v.e.@.+.O.$.p.l.a.t.G C G { } } V V ,.z.z.H.H.J.J.K.P.U.B.8.S + > 3 k /.",
"$ $ (.5X!.R.R.I.P.P.K.K.J.J.i.K F H F B V m V V m X.x.c.c.e.@.+.O.%.l.p.a.r.] V V V V C m V >.z.H.H.H.H.J.K.I.S.U > - + + + ; /.",
"@ $ (.6X!.I.I.I.I.P.K.K.J.J.i.-.| H G F m V V V V X.x.c.v.e.#.+.+.#.j.l.p.r.[ m V V V V ] { q.z.z.H.H.H.J.J.Y.S.c = + & + + @   ",
"@ $ (.5X~.!.I.!.I.P.P.U.K.J.v.d.f.} B G { G V V m X.x.c.v.x.k.a.j.j.v.l.j.r.] m B B B ] 5.a.p.z.z.H.H.H.J.J.P.U.U = 0 r q + $ /.",
"# # n.-X^.^.G.^.^.W.E.E.E.T.T.T.g.} F H G G V V { o.x.c.z.z.c.x.c.c.z.l.l.a.X.[ [ [ { @.t.z.z.z.z.H.H.H.H.J.K.S.c = e ' e + O   ",
"# % `.jXhXaXaXaXqXqXqX8X9X7X2X2X2XF.h.&.G G V o.f.h.v.c.j.,.;.;.;.;.;.;.;.q.d.d.d.x.g.v.b.Q.T.Q.Q.W.W.W.6X:X6XXXU - e ' e + # /.",
"# % [.kXkXjXjXjXgXhXfXsXsXeXqX8X7X7X2X4.V V m 4.;X1Xb.c.x.X.B B V V V V m ;.>X<X<X<X<X<X<X4XwX7X7XrXeXeXqXaXdXqX^ = e ' w + @   ",
"# # [.kXjXjXjXjXgXfXdXsXtX0XqX8X7X7X2Xh.9.9.9.h.1X1Xx.5.;.] V V V V m o.9.h.;X:X<X:X:X<X<X<X<X7X7XrXeXeXaXaXdXqX^ = 0 ` 0 + @ /.",
"% % [.lXlXkXjXgXhXhXdXsXsXeXqX8X7X7X7X,X2X<X<X;Xb.1Xr.] V B B B V m B 5.:X:X:X:X:X,X<X<X<X7X7X7X7X8X0XeXyXsXfXuX! = q e 0 o @   ",
"  ~ `.[.`.`.%XjXgXhXfXdXsXqX0X0X8X7X7X2X2X2X<X<X1Xb.f.4.4.4.;.4.;.4.4.h.<X:X:X:X<X,X<X<X,X<X2X7X8X8XqXqXsXsXfXtX^ = 9 0 9 + 5   ",
"    6 % - $ ( jXjXgXgXfXsXsXyXeX8XrXwXwX4XwX<X4X<X<X<X1X,X,X1X<X<X;X1X:X<X<X<X<X<X<XwX<XwXwXrX8XeXeXyXsXsXfXfXpX! = - - @ O     ",
"      7 : @ T XXXXXX^.XX>XG.>XW.W.W.Q.T.g.T.g.g.b.b.b.b.v.b.b.b.b.b.b.b.b.b.g.g.b.b.b.g.g.T.T.Q.Q.W.W.W.XXW.XX.Xc - 3 z z L     ",
"        ( 1 : d d s h D U K K H K | | | G { { { { { ] { ] { { ] { } { { G { { { { { { o. .| | | Y K K S h f s j : -             ",
"          ( k z j - - j c v c c S D H S a b J &.=.=.=.=.=.*.*.*.o.o.o.o.4.o.o.o.J N A J J H H D S D D x , , j j k L             ",
"                  3 : , , d u y p p g p a Z F.,X,X,X,X;X;X;X;X;X;X;X1X:X,X,X,X,X5.F n A x b a p p i u , , k                     ",
"                  ! : , : , , d d p f x A <.                                    h.| A M M g x x u d u 3 , /                     ",
"                                        {.oX                                        {.F.{.0.                                    ",
"                                                                                                                                ",
"                                                                                                                                ",
"                                                                                                                                ",
"                                                                                                                                ",
"                                                                                                                                ",
"                                                                                                                                ",
"                                                                                                                                "
};
