/* XPM */
static char *_706e00a66834fd2f4911f7b5951e8cf0t6trYznAiebYAp9[] = {
/* columns rows colors chars-per-pixel */
"64 64 212 2 ",
"   c None",
".  c #020202",
"X  c #080705",
"o  c #090807",
"O  c #050709",
"+  c #07090A",
"@  c #0B0B0B",
"#  c #170804",
"$  c #11100F",
"%  c #131313",
"&  c #1C1C1C",
"*  c #14181B",
"=  c #0F1010",
"-  c #2B0D04",
";  c #341004",
":  c #22211F",
">  c #0C1723",
",  c #0C1823",
"<  c #091C2F",
"1  c #121A21",
"2  c #0A1D31",
"3  c #12202E",
"4  c #1D242C",
"5  c #162433",
"6  c #192A3B",
"7  c #192735",
"8  c #222222",
"9  c #2D2D2C",
"0  c #272827",
"q  c #222E39",
"w  c #29323B",
"e  c #26303A",
"r  c #333231",
"t  c #3A3A3A",
"y  c #3C3937",
"u  c #302E2D",
"i  c #4A1302",
"p  c #541501",
"a  c #5B1802",
"s  c #651900",
"d  c #6B1B00",
"f  c #403F3D",
"g  c #41403F",
"h  c #172D44",
"j  c #1A334C",
"k  c #2D3945",
"l  c #283644",
"z  c #383D42",
"x  c #333F4A",
"c  c #333C44",
"v  c #0D1D7B",
"b  c #0D1876",
"n  c #121B74",
"m  c #111A79",
"M  c #111677",
"N  c #18237A",
"B  c #222675",
"V  c #372E6E",
"C  c #34414D",
"Z  c #3D464D",
"A  c #2C435A",
"S  c #344453",
"D  c #3C4B5B",
"F  c #394857",
"G  c #364E65",
"H  c #3A4D60",
"J  c #39536D",
"K  c #3A5269",
"L  c #355370",
"P  c #395470",
"I  c #434444",
"U  c #4B4A4A",
"Y  c #414549",
"T  c #46535E",
"R  c #595959",
"E  c #575756",
"W  c #454D55",
"Q  c #47596B",
"!  c #435D76",
"~  c #566A7E",
"^  c #4B637A",
"/  c #6B6A68",
"(  c #676666",
")  c #777776",
"_  c #822102",
"`  c #982601",
"'  c #BB2F00",
"]  c #B72D00",
"[  c #AB2A00",
"{  c #1B2C83",
"}  c #1E3389",
"|  c #24378B",
" . c #2B3B8D",
".. c #30408B",
"X. c #3C648D",
"o. c #3E6287",
"O. c #42599E",
"+. c #4D6F92",
"@. c #4E7DAD",
"#. c #507EAD",
"$. c #4C6DB3",
"%. c #4B7EB1",
"&. c #5272B5",
"*. c #6C7CAF",
"=. c #737EAB",
"-. c #6D7FB1",
";. c #72879B",
":. c #5882AB",
">. c #4D81B5",
",. c #4E84B9",
"<. c #5185BA",
"1. c #5486B7",
"2. c #698EB4",
"3. c #658CB2",
"4. c #6791BC",
"5. c #7689B6",
"6. c #538AC1",
"7. c #528FCA",
"8. c #498DD2",
"9. c #478CD1",
"0. c #5494D2",
"q. c #6497CA",
"w. c #6698CA",
"e. c #6A9BCC",
"r. c #6C9ED9",
"t. c #669BD6",
"y. c #789CC9",
"u. c #7AA2CB",
"i. c #6DA1D5",
"p. c #67A0D8",
"a. c #6BA1D9",
"s. c #71A4D6",
"d. c #73A6D9",
"f. c #75A9DD",
"g. c #7DACDA",
"h. c #7DA8D2",
"j. c #5A9DE2",
"k. c #5DA1E4",
"l. c #67AAED",
"z. c #69ABEC",
"x. c #68A7E5",
"c. c #74ABE3",
"v. c #7AAEE1",
"b. c #71ADE9",
"n. c #7DB1E4",
"m. c #7CB4EB",
"M. c #76B1EB",
"N. c #6AAEF2",
"B. c #66ABF0",
"V. c #6DB0F2",
"C. c #73B2F1",
"Z. c #7AB6F1",
"A. c #7EB8F2",
"S. c #848383",
"D. c #898989",
"F. c #858E97",
"G. c #838E98",
"H. c #989898",
"J. c #8C9196",
"K. c #A0A09F",
"L. c #8598B8",
"P. c #8496A7",
"I. c #8EA6BE",
"U. c #A2A2A3",
"Y. c #AAAAAA",
"T. c #A4A8AC",
"R. c #BDBCBC",
"E. c #B3B7BB",
"W. c #A9ACAF",
"Q. c #C0BFBE",
"!. c #C3C0BE",
"~. c #93AFCF",
"^. c #86ACD2",
"/. c #8BAED3",
"(. c #95BADC",
"). c #94B6D7",
"_. c #86A7CC",
"`. c #A6B5C4",
"'. c #A9B7C5",
"]. c #AAB9C6",
"[. c #A3B7CA",
"{. c #ADBDCC",
"}. c #A8BCCF",
"|. c #82B4E6",
" X c #82B6E9",
".X c #85B9EB",
"XX c #8DBEED",
"oX c #8AB6E2",
"OX c #82BAF2",
"+X c #8BBDF0",
"@X c #9CBEE1",
"#X c #B3C1CF",
"$X c #9BC6F1",
"%X c #90C1EB",
"&X c #A4CBF0",
"*X c #A8CFF4",
"=X c #ADCEF0",
"-X c #C4C4C4",
";X c #C8C9CA",
":X c #DBDBDB",
">X c #D4DFEA",
",X c #D7DDE2",
"<X c #C8DCF0",
"1X c #D5E0EA",
"2X c #D2E2F1",
"3X c #EAEAEA",
"4X c #E9EEF3",
"5X c #F3F3F3",
"6X c #F6F9FB",
"7X c #F9FBFB",
"8X c #F5F8F8",
"9X c #EBF1F5",
/* pixels */
"                                                                                                                                ",
"                                                                                                                                ",
"                                                                                                                                ",
"                                                                                                                                ",
"                                                                                                                                ",
"                                                                                                                                ",
"                                                                                                                                ",
"                                                                                                                                ",
"                                                                                                                                ",
"                                                                                                                                ",
"                          . . . . . . . . . . .                                           . . . . . . . . . . .                 ",
"                        . . . . . . . . . . . . .                                       . . . . . . . . . . . . .               ",
"                        . . . X . X . . . . . . .                                       X . . . . . . X X . . . .               ",
"                . @ @ @ + + + + + @ + @ @ @ . . . . . . . . . . . . . . . . . . X @ @ @ + @ + @ + + + + @ @ . . . . . .         ",
"                X + @ $ $ @ $ $ $ @ % @ @ = . . . . . . . . . . . . . . . . . . X @ @ @ = @ % @ @ $ $ $ @ @ X . . . . . .       ",
"          @ + X X X + 0 u 9 9 9 9 9 9 0 @ X X X X . X . X X X X . X . X . X . X X X = 0 9 9 9 9 9 9 9 : o X . . + + . . . . .   ",
"          @ 1 6 7 5 6 S D D F D D D D F 6 7 7 6 6 6 6 6 6 6 h 6 7 6 6 7 6 6 6 6 h 6 h D H H D H H H H S h h h 7 = @ O . . . . . ",
"      + + X A >.%.@.%.,.<.<.1.1.<.<.<.>.>.>.>.>.1.#.%.1.<.%.<.1.,.<.<.<.,.,.,.,.,.<.<.<.6.6.6.6.6.6.6.6.<.<.6.#.9 X + O O . . . ",
"      o O . W ].].`.`.`.`.`.'.'.'.'.'.E.].].].`.].].{.{.{.#X#X#X#X#X#X{.[.].].].].].'.'.].].].[.].].].].'.].].E.z X @ = . . .   ",
"    R / ( ( S.R.-XR.R.R.R.Q.R.Q.R.R.R.Q.R.R.R.R.Q.Y.) ( / / / / / / / J.!.R.R.R.Q.R.Q.R.Q.R.R.R.R.Q.R.R.Q.R.-XQ.t . - i - . .   ",
". $ J.:X;X;X-XR.R.R.R.R.R.R.R.R.R.R.R.-X;X;X;X;X{.P.* X O X X X + o X ( :X-XR.R.R.R.R.R.R.R.R.R.R.R.R.R.R.E.#XQ.y . i _ i . .   ",
"X $ D.-XR.R.R.R.R.R.R.R.R.R.R.R.R.R.R.H.D.D.S.L.oXs.^ T 1 O @ @ @ + X U D.H.R.R.R.R.R.R.R.R.R.R.R.R.R.R.R.R.-XR.t . i ` p . .   ",
"X $ D.-XR.Q.R.R.Q.R.R.R.R.R.R.R.R.#X!.E % * = !  XM.b.d.A X X o o o o + @ U ;X-X-X!.{.!.R.R.R.R.R.R.R.E.R.R.-XR.t . s ' d . .   ",
"X @ D.;X].].].].].].].].].].].].R.Y.K.g % $ . S 4.e.b.B.+.l q h q 6 l l q E T.U.K.K.K.T.`.[.`.[.[.[.[.[.[.[.{.`.t . s ' d . .   ",
"X = J.&Xg.d.i.d.i.a.i.i.i.t.t.p.u.Z 0 : & % @ $ * H |.C.c.g.g.g.f.f.f.s.u.#.0 & & & & q 1..XM.M.b.b.z.b.z.M.C.^.F . s ' d . .   ",
". % F.|.8.9.9.8.8.8.8.8.8.9.9.8.7.r % & 4 % @ @ . C |.C.v.).~.~.~./.v.d.h.:.> . X o . + +.|.v.b.z.z.z.l.z.z.z.d.Z X s [ s X .   ",
". $ F..Xj.j.j.j.j.k.k.k.x.x.4.Q F 0 & % = = @ @ @ C n.C.|.5. .| ..O.f.d.e.#.> @ @ @ @ @ 8 l +.b.z.l.l.l.z.z.N.s.z . # - # . .   ",
"X $ G.OXl.l.l.l.l.l.l.l.z.V.3.f 0 0 & $ @ @ @ @ o C |.C.|.*.M b v | a.a.w.@.> + @ @ @ @ X . +.x.z.l.z.z.l.z.N.i.I @ . . . . .   ",
". % G.OXl.l.l.l.l.l.l.l.z.V.2.f u 8 & = @ @ @ @ o C n.Z. X3.b { { | a.a.w.@.> @ % & 8 0 % O X.b.z.l.l.l.z.l.z.c.;.^ e . . . .   ",
". $ G.OXl.l.l.l.l.l.l.l.l.N.2.f u 8 : = @ @ @ @ + C v.Z.oX*.b { { | r.a.w.@.> @ : 8 r t 1 . +.x.B.l.l.l.l.B.l.l.B.C.J . . . .   ",
"X = G.+Xl.l.l.l.l.l.l.l.l.N.2.f u 8 : = @ @ @ @ o C c.Z.|.*.M v b } r.a.q.#.> @ & : r t : O X.x.N.l.z.l.l.z.l.l.B.N.L X . . .   ",
"X = G.+Xl.l.l.l.l.l.l.l.l.N.2.I u 8 : = @ @ @ @ o x c.Z.|.*.m v { } r.a.q.#., @ : 1 r t & O X.z.l.l.l.l.l.l.l.l.l.z.K . . . .   ",
". $ F.+Xl.l.l.l.l.l.l.l.l.N.2.f u 8 & % @ @ @ @ X x v.Z.|.*.M v b { r.a.q.@.> @ & 8 r t & O X.x.l.l.l.l.l.l.l.l.N.z.J . . . .   ",
"X $ F.+Xl.l.l.l.l.l.l.l.l.N.2.f u 8 & = @ @ = @ o k v.Z.M.y.$.$.$.$.f.t.q.@., @ & & r t & O X.x.l.l.l.l.l.l.l.l.l.N.J . . . .   ",
". $ F.+Xz.z.l.l.l.l.l.l.l.N.2.f u 8 & % @ @ @ @ X l v.Z.M.oX%X%XOXOXm.j.q.#., @ & : r t & O X.l.B.l.l.l.l.l.l.l.l.z.K X . . .   ",
"X $ F.+Xz.z.l.l.l.l.l.B.l.N.2.f u 8 & % @ @ @ @ o k v.Z.m._.L.L.L.L.v.t.q.#., @ : 1 r t & O X.l.l.l.l.l.l.l.l.l.l.N.G . . . .   ",
"X = F.+Xz.l.l.l.l.l.l.l.l.B.2.I u 8 & % @ @ @ @ X l g.Z.m.=.V B B | r.a.q.#., = & & r t & O X.x.B.l.l.l.l.l.l.l.z.z.G . . . .   ",
"X = F.+Xl.l.l.l.l.l.l.l.l.N.2.t w 8 & % @ = @ @ o l c.OXm.*.B n b { r.a.q.#.> @ & : r t & O X.x.z.l.l.z.l.l.z.B.z.l.G . . . .   ",
"X $ F.+Xl.l.l.l.l.l.l.l.l.N.2.f 9 8 & % @ @ @ @ o w v.Z.m.*.B n n N r.a.q.#.> @ : 8 r t & O X.z.z.l.l.l.l.l.l.l.l.N.G . . . .   ",
". $ F.+Xl.l.l.l.l.l.l.l.l.N.2.f u 8 & = @ @ @ @ X w c.OXm.5.B m n { r.p.e.#., @ 1 8 r t & O X.x.B.l.l.l.l.l.l.z.V.C.G . . . . . ",
"X = F.+Xz.l.l.l.l.l.l.l.l.N.2.f u 8 & % + @ @ @ X e c.OX X*.B M n | i.r.w.#.> @ & & 9 u * X X.l.l.l.l.l.l.l.N.c.4.:.k . . . .   ",
"X = F.+Xl.l.l.l.l.l.l.l.z.N.3.f 9 8 & = @ @ @ @ X e f.OX X*.B m n N r.t.w.#., @ @ @ % @ o X X.l.l.l.l.l.l.l.N.s.Z = . . . . .   ",
". $ F.+Xz.l.l.z.l.l.l.l.z.N.2.U t 0 & % @ = @ @ X e f.OX.X-.B m v } s.t.e.#., + @ @ + @ * 4 +.z.l.l.l.l.l.l.z.s.z . X # X . .   ",
"X = F.+Xz.z.l.z.z.z.l.z.b.l.x.e.3.e % & : % @ @ . q f.OX.Xc.t.0.t.r.m.f.g.1.> X o o . * +.q.j.l.z.l.l.l.l.l.l.s.z X p ` a . .   ",
"X $ J.&X|.|.|.|.oX X|.|.|.|.|.OX^.z & : 8 * @ $ * k c.OXM.Z.m.m.M.m.M.c.c.6.h 2 2 2 < j 7.N.B.l.l.k.B.B.l.l.l.s.t X d ' d X .   ",
". = U.3X,X>X>X>X1X1X>X>X1X>X>X1X,XE.H.I % % . g K.T.m.OXx.X.L P L J L P L +.u./././.^.^.@X&X$X$X&X&X$X&X&X*X*X(.g . s ] d . .   ",
"X = Y.7X5X5X8X8X5X5X8X5X5X8X5X8X5X7X5XR @ @ o ( 9X4X%X%Xg.6 . + o O o + + R 1X7X6X8X8X8X8X5X5X5X5X5X5X8X5X5X7X:XU . d ' d . .   ",
"X % Y.7X5X5X5X5X5X5X5X5X5X5X5X5X5X5X4XY.S.S.S.Y.9X9X_.~ Q % @ @ @ @ o I S.Y.5X5X5X5X5X5X5X5X5X5X5X5X5X5X5X5X5X:XU . a ` a . .   ",
". % Y.7X7X7X5X5X5X5X5X5X4X5X5X5X5X5X5X5X5X8X5X2X=X=X3.$ o . . . . . . ) 5X5X5X5X5X5X5X5X5X5X5X5X5X5X5X5X5X5X5X:XU . i d p . .   ",
"  = ) Y.T.U.!.5X5X5X5X5X5X5X5X5X5X5X5X5X5X5X5X4X2X*XI.R R R R R E E E U.8X5X5X5X5X5X5X5X5X5X5X5X5X5X5X5X5X5X5X:XU . ; a ; X .   ",
"    @ @ + @ ( 4X7X8X6X6X6X6X5X8X6X6X6X6X7X8X8X6X6X6X8X5X5X9X5X5X5X9X5X8X7X6X6X6X8X8X6X6X8X8X7X7X6X6X5X6X7X7X7X3XU X @ @ X . .   ",
"      . . X ! ).).).).(.(.(.(.@X(.(.@X(.(.(.(.).(.).(.(.(.(.(.(.(.(.(.(.(.(.).(.(.).(.(.@X(.(.(.@X@X(.(.(.(.(.E.g X @ @ X .     ",
"          @ * 5 4 2 3 k C x x x C z C c 5 3 3 3 2 3 3 3 3 3 3 3 3 3 3 3 2 4 2 4 3 3 7 x C x x x C C C k 3 3 5 0 % @             ",
"          @ @ + o o @ 9 r r r r r r r 9 @ o + o o o o o o o o o o o o o o + o o o O = 9 r r r r r r r 0 @ o o + + @             ",
"                  @ @ % % % % % % % % % @ @                                       @ @ % % % % % % % % % @ @                     ",
"                  $ @ @ @ o o @ + o + o $ @                                       @ @ @ o + + + o o + + @ @                     ",
"                                                                                                                                ",
"                                                                                                                                ",
"                                                                                                                                ",
"                                                                                                                                ",
"                                                                                                                                ",
"                                                                                                                                ",
"                                                                                                                                ",
"                                                                                                                                "
};
