/* XPM */
static char *d02536b883b44d1db563919e50150689eVis4nsbyyOWLj2D[] = {
/* columns rows colors chars-per-pixel */
"64 64 246 2 ",
"   c #041D05",
".  c #052207",
"X  c #0A250A",
"o  c #0B2C0B",
"O  c #062707",
"+  c #112D0E",
"@  c #0C330C",
"#  c #0C3B0D",
"$  c #043907",
"%  c #11330E",
"&  c #113C0F",
"*  c #143511",
"=  c #153C13",
"-  c #1A3C14",
";  c #1A3A17",
":  c #113111",
">  c #203E1B",
",  c #0C4C0E",
"<  c #0A430D",
"1  c #10470F",
"2  c #0E4D10",
"3  c #0E4310",
"4  c #144212",
"5  c #1B4416",
"6  c #134D13",
"7  c #1A4C15",
"8  c #1D4419",
"9  c #1D4D19",
"0  c #0F5011",
"q  c #145414",
"w  c #1A5516",
"e  c #175915",
"r  c #1A5C16",
"t  c #1B551A",
"y  c #1D5C1A",
"u  c #165518",
"i  c #0E510E",
"p  c #21441A",
"a  c #244B1C",
"s  c #264A1C",
"d  c #23531B",
"f  c #225C1C",
"g  c #29571D",
"h  c #1E621A",
"j  c #1C6317",
"k  c #23641D",
"l  c #29641E",
"z  c #25691D",
"x  c #2B6C1F",
"c  c #2A711F",
"v  c #274B23",
"b  c #2B5323",
"n  c #2D5B23",
"m  c #285724",
"M  c #345C2C",
"N  c #325B27",
"B  c #395F31",
"V  c #256421",
"C  c #2C6422",
"Z  c #266A21",
"A  c #2B6C22",
"S  c #2D6D29",
"D  c #336524",
"F  c #326B25",
"G  c #356529",
"H  c #3B6B2B",
"J  c #366A29",
"K  c #2D7223",
"L  c #2D7821",
"P  c #337425",
"I  c #3A7326",
"U  c #347A26",
"Y  c #33742A",
"T  c #3A742A",
"R  c #357A2A",
"E  c #3C7C2B",
"W  c #3A7A27",
"Q  c #3B6432",
"!  c #3D6B33",
"~  c #3B7B33",
"^  c #3A7734",
"/  c #417C2C",
"(  c #41762C",
")  c #426C37",
"_  c #457C33",
"`  c #477839",
"'  c #4C7A41",
"]  c #517E43",
"[  c #3C832C",
"{  c #38832A",
"}  c #3E8331",
"|  c #3E8638",
" . c #43842D",
".. c #438A2E",
"X. c #4B882E",
"o. c #438533",
"O. c #4A8434",
"+. c #448B33",
"@. c #4B8C34",
"#. c #44843A",
"$. c #4C843A",
"%. c #468A3A",
"&. c #4B8C3B",
"*. c #528B3B",
"=. c #518D36",
"-. c #4B9434",
";. c #4C9B34",
":. c #4D933A",
">. c #499536",
",. c #529335",
"<. c #539B36",
"1. c #53933B",
"2. c #549A3B",
"3. c #599C3C",
"4. c #58973F",
"5. c #45962F",
"6. c #5BA33C",
"7. c #5CAA3D",
"8. c #56A33B",
"9. c #5FB23E",
"0. c #61AA3E",
"q. c #61B23E",
"w. c #4D8A41",
"e. c #558848",
"r. c #4D9447",
"t. c #529343",
"y. c #5A9444",
"u. c #559B44",
"i. c #5B9C42",
"p. c #5B9C4B",
"a. c #58974B",
"s. c #5C9B50",
"d. c #5D8A53",
"f. c #619B4B",
"g. c #659A55",
"h. c #618B53",
"j. c #5CA343",
"k. c #5EAA44",
"l. c #5EA34C",
"z. c #57A143",
"x. c #5CA452",
"c. c #5EB044",
"v. c #61A445",
"b. c #63AC44",
"n. c #63A44C",
"m. c #64AC4A",
"M. c #6AAC4C",
"N. c #69A54E",
"B. c #65B343",
"V. c #69B545",
"C. c #6BBC46",
"Z. c #6BB44C",
"A. c #6CBB4B",
"S. c #66B448",
"D. c #71BD4D",
"F. c #65A453",
"G. c #69A554",
"H. c #6AAC54",
"J. c #6CAC5B",
"K. c #68A657",
"L. c #72AC5C",
"P. c #71A85B",
"I. c #6CB352",
"U. c #6EB458",
"Y. c #71B456",
"T. c #73BC54",
"R. c #72B45C",
"E. c #76BB5C",
"W. c #7ABC5D",
"Q. c #79BC58",
"!. c #73AA62",
"~. c #75B462",
"^. c #7AB464",
"/. c #7BBB64",
"(. c #7DBC69",
"). c #7BB567",
"_. c #70B569",
"`. c #6FC349",
"'. c #6EC247",
"]. c #73C44C",
"[. c #75CB4C",
"{. c #77CB4D",
"}. c #79D14E",
"|. c #75C352",
" X c #79C555",
".X c #7BCB55",
"XX c #7BC45B",
"oX c #7ECB5A",
"OX c #77C25A",
"+X c #7CD253",
"@X c #7FD059",
"#X c #7EC363",
"$X c #7CC16A",
"%X c #7FC370",
"&X c #82BC6B",
"*X c #84BC71",
"=X c #81CD5D",
"-X c #81C55E",
";X c #83D35C",
":X c #83D959",
">X c #82C465",
",X c #84CC64",
"<X c #83C36C",
"1X c #85CA6B",
"2X c #8ACC6D",
"3X c #89C56F",
"4X c #85D362",
"5X c #89D465",
"6X c #8BDA64",
"7X c #8CD36C",
"8X c #8CD869",
"9X c #91DC6D",
"0X c #91D66F",
"qX c #8AC674",
"wX c #8CCC74",
"eX c #89C876",
"rX c #92CD7B",
"tX c #91CF76",
"yX c #8ED273",
"uX c #92D574",
"iX c #94DB73",
"pX c #95D47B",
"aX c #96DB79",
"sX c #9ADC7C",
"dX c #98D87B",
"fX c #9DE37D",
"gX c #9AE477",
"hX c #93E36C",
"jX c #A1E57F",
"kX c #9BD682",
"lX c #9DDB82",
"zX c #9FDA89",
"xX c #8BD381",
"cX c #A1DD85",
"vX c #A2DE89",
"bX c #9DE280",
"nX c #A3E584",
"mX c #A5EA84",
"MX c #A9E68D",
"NX c #ABEC8D",
"BX c #A6E689",
"VX c #ADF28C",
"CX c #ADE991",
"ZX c #B1EE93",
"AX c #B5EE98",
"SX c #B5F297",
/* pixels */
"; v g.).) 8 d.g.' 8 * @ * = = - ` d.8 * = # @ & = n ).!.8 = v n ' h.e.g.N ` G 8 5 - 5 Q d.] b = = = = b w.e.` a = 4 ' ).g.3 o : ",
"! ^ _.!.t.E &XrX^.F.N.X.W / P P U.aXE.i.G.y.h r y V %.u.-.i.2.M.wX1X#.#.R.2X2XI.1.P.N.2XlXwXb. .T I Y O.2X2XL.j.} Z p.wX/.} y ; ",
"xX^ | Q _ Y &./.W.>XuX&Xo.K V Z l.E.f.R.rXwXi.&.K Z h y >.v.Y.W.uX1XS A U.yX2X,X>XcXvXZXpXf.U A 7 - * p p.R.{ } 5.K { l.I._.x.M ",
"xX| C y d % 4 A 2.,XwX/.[ Y K Z Z Z w.cXvXkXkXp.R Z y R I.*.` Y.R.aXG.Y ~ <X>X,XcXvX>XtXH...f # 1 4 % X n T Y R Z Z h K z.$XJ.M ",
"%XS m t 9 : @ Y | m.>X:. .1.@.U Z A n.CXkXrXpX%.Z K h 2.M.4.O.W.U.<XNXF.S %.T.I.tXAXkXH.Q.wXO.f 4 & - * p ( ,.o.h { } [ | l.t.s ",
"e.8 ; o 7 @ . d.wXpX,X{ ~ +.Y z k U F.nXeXkX).~ t C / ~ s T ( ) (.yXuXu.Y V h R p.pXdXlXD.+.R x d b M B &X*.,.P h u.U.l.r.;.o.s ",
"v ; ; 5 X o ; g.bXnXsXI.=.1.[ P ~ i.n.<XU.R.! @ * + N D p _ - Q iXuXyX#.h Z Z u z @.1.M.2.E K z ~ f.&XP.tX2Xi.k e K | m.D.j...b ",
"v p _ G * o e.3XH.wXmX#Xi.1./ _ v.( _ 4.^.e.- o o o % + p ; + G 7X:.%.| 0 Z J.R R.F.F X.=.o.E N.J.f.,XnXjX-XI q V e 2 { |.XXY.` ",
"s.y.XXt.R S e.OXyXmXiXOXz.$.9 ; *.( _ =.y.` 5 . . X % F D s G i.I.Z r q i , h ~ m.aX/.u.,. .@.M.1.f.nXgXyX[ y w a.w., h A.uXlX!.",
"<XW.OXT.H.m.U.1X9XgXiX@Xw.8 s ` ` $.f.0.M.,.C X X X 4 A C O.M.v.[ e q 0 , < | 1X%.uXfXI.O.c P O.E E Y.oXD.:.A y | r.` V c.9XlX!.",
") f.&XH.lXuXyX7X@X5X8X8XQ.M p Q v ) <X<XtXO.k t f Y f n F @.i.:.h 0 0 , , $ %.$X#XiX,X| k k 6 7 y l X.V.D.6.( L._.s.xX~ U k.I.` ",
"b n ^ &.K.nXlX#X4X5X#X@XR.B M + Q ^.P.lXuXi.f t A l.Y _ y.K.y...h 2 , , q w.y | yX#X2Xz q x 6 O @ % F 6.D.0.i.qX_.*XcXi.8.D.j.N ",
") 7 h wXK.pXbX,X4X;X=XT.N.W.G.e.pXnX] cX).` t 6 u m t ` ).*XG.l 2 2 2 , , w.^ %.v.O.+.r , 4 o O # @ l ( i.-X-XsXzXvXMXQ.C.4X2XP.",
"p.q r s.3XwX<X#X=X,X=XQ.-XI.G.mX3XP.&X) ! ` S 6 7 4 4 ) R.$Xn.& O @ < < V ~ r.<XT P r i , # O . @ d D 5 y.2XpX3XrXqXH. X,XjXnXcX",
"a.2 , 0 #.~.f.n.T.=XoXOX#Xw.k Y 8 v $.; f.3X$X&.Y :.t.E.4X,XW X O O $ 2 _.!.s.kX%.F k q q i @ .   + D <.T.7XiXQ.-Xy.k E v.BXZXpX",
"r.2 2 2 A W.&XM.M.XX4X|.~ y u 7 @ - - % F.yXyX/.^ T.6X|.I.k.9 @ X o $ q a.eX<XCXF.U c j q , , # g D M.-X0.D.0XfX2Xp.w f A G.0X) ",
"r.2 2 2 h K.#XE.Q.Q.*.J $ 4 u u @ o ; s H.,XaXsXO.G ( a 8 5 5 7 = # , , a.&XrXK.R r ..<.X.c r x <.V.-X2X-X-XaXjX>X).k A F [ A.n ",
"! 3 < | l.} I.9XoX=XG . o # 3 # u 8 &.OX4X0XsXsX) o o : X X @ y z e r K V t J.C 2 k 0..X{.C.<.X.<.0.-X2X,X4XnXsXH.&.t.K.F ..b.b ",
"8 S p.E.aXG.y.y.i._ 8 O # # # 3 0 ^ #XhX9XaXiXE.s @ @ o o X = [ k.r.o.2.[ z x P P / 0.V.0.,.,.=.X.=.N.Q..X XjX3X` ^.Y k y ..j.b ",
"Q ~ 1XbX>XW.P.M _ i.n     . # u 0 | 6X8X8XuXE.t.S # & 7 * o J M.2X1X=X,X;X XZ.0.,.X. ./ D s 5 ( X.X.0.|. X Xy.) > Q * w w Y S.n ",
"N.I.iXjXjXjXiX` m.XX_ = @ # 2 u y >.5XXXl.x.l.U.R.S l C f t V { /.pXyXoX-X=XjXsX-Xi./ I D d p D X. .B. X|.D.b + p - J o.f W T.` ",
"B f.gXgXVXiX Xv.T.u.[ o.u 6 6 V r.OX6XoX+.:.I.~.R.} z z k k Z h Y l.m.Z.dX5X0XZXSXuX,.I P C g W O. .b.=XoX.XH * O.N s ,.W n.>X&X",
") ( M.8X5XXXT.i.%.R k Y Y u y %.Z.oX6XOXc.I.m.+.Z q 2 e y e u h y u V i.I.I.0XuXZX3X/ I F F V o.H.K.:.8. X:X*.s v.G @.1.+.XX>X~.",
"h.( G XXT.m.M...K Z u u h Z E %.R m..Xz.r.u.R k r q 0 2 k y h S ^ S V [ -.N.ZXBXdX3Xf.I F z y | R.~.S k { j.1._ v.I.@X,.E 1.@.M ",
"/.=._ =.M.Z.@.Z k u q 2 r Z R 2.u.Z.oXc.2.+.+.+.f r 6 @ k y ^ !.K.S j e K >.R.2X<X/ E I P l y V %.%.0 y z Z R ;.=._ .XS./ I l - ",
"e.s *.s $.Q.~ k r 2 2 2 y h k | |. XoX,X-X X|.T O @ 6 7 k k ~ qX!.u , 0 e e r A =.E I W / x h &.Z t.R 0 h K R K m.T..XZ.o.W F - ",
") - G * $.Z.R y q # $ @ & h y h 1.,XiXBXiX.XX.@ o 1 # & W o.~ ~ ~ 0 2 0 i i q z  .[  .W P j , K.wXrXp.Z e R 8.-.B.Z.@.I T W F - ",
"Q + X X D I.k.:.r $ . . & V k y &.lXMXZXjX9X=.@ X O . & W @.{ V ^ ^ 0 2 q e e L ..U W c z e Y ~.pX~.<Xl., e W ..Y k k P  .E I p ",
"b p X @ w { u.b.m O . @ O 9 A #.H.H.&XtXjXL.x O o   O r W L >.+.g.e.C 2 e r j r r r z z j , ^ bXaXw.1Xl.e # # 1 6 w y o.f.1.O.Q ",
"v - : = 4 u Z +.K = o 4 # k P G.R.N.dXdXtXO.f 6 1 @ # q X.;.V.m.xXh.^ r j r e j e z { j i 0 u a.tXJ.m.2.P 4 O @ & u V K.^.G.G.P.",
"s - o @ # , , q h P 8 n f C E @.=.=.&XL.n.b.{ r i # @ < L q.q.H ) !.n e U { c L A U.OXr.y , , 0 F.K.:.!.J % O o # 6 C *XqX&X&X>X",
"b e.! N ! < , 2 h e.!.(.y.T 1.1.,.=.=.<.3.q.U q 1 @ @ q 5.[.C.g ) ) @ C 9.].V.E.%.m.sXbXl.u , 2 u e n P.N @ @ # 1 6 y O.f.Y.>X&X",
"v e.rXeXa.< , 0 y !.nXlX9X.Xb.3.4.,.2.6.C.].;.j S H g <.C.{.@.- M - - / / X.'.{.0.y.n.fXK.e , , 0 r w f.` 7 6 q q w r k l  .3.( ",
"' qXpX<X).#.< q 0 #.wXuX0X;X].j.4.3.6.V.[.}.}.9.m./.=.3.C.'.6.T = - D 0.D s ,.C.-X0X1XyX>X&.0 0 r / P.p.0XI.f z x x  .,. . .I p ",
") cXpXr.wX^ , 2 r Z u.5X6X;X|.;.3.3.-.:.S.+X6XgXE.L.H.i.0X8X9X@.F 6.q.}.6. .,.0.3.N.>XW.Y z w 1 A >XnX8XVX2Xc x  . .5.;.X.4.M.) ",
"P.&XkXx.~ q f z ~ k.A. X.X;XS.>.V.0.2.{ 8.C.#XbX&XpXcXM.J.sXNX>Xf.q.C.}.[.[.C.0.X./ ,.3.x k f r R wXBXjXSX0XX.-.;.U  . .X.-XsXN.",
"^.#.L.t.n.#.o.j.b.A.Z.%...j.#XY.0X=X].6.b.z.3XlXtXMX&X1.t.p.aXuXf.=.3.C.[.`.'.<.P x x / X.X. .,.b.<XBXZXZXhX[.[.[.8.-.5.;.}.0XG.",
"Q % d l #.O.x  .b.Z.;.U Y ..<XlXvXjX=XZ.2.@.w.rXBXcXy.$.iXR.2X2XE.,.<.C.'.'.q.U z f q U <.X.X.q.7.-.0XgX:X:X}.}.'.8.5.7.,.6.6.G ",
"H = w f w w r r R +.Z V E J.rXrXJ.8X5X/.R c z J.&.f._ Y R.R.2XR P @.8.'.oXoX8.U x k w k / / X.<.6.6.+X X].}.}.{.8.c { <.U { 3.s ",
"a.d w r w q w r W } z y Y s.&XvXsXnXW.U x z h z k +.A j A V o.K P 3.Q.wXkXCX~.U I x r w j W 6.6.<.7.].V.V.}..X'.-.-.5.{ j X.D.g ",
"K.d u w q q q w x W K w 7 r F.MXMXnXQ.L k z j j @.3.W j j e q k  .m.5XNXkXzXkXeX#.Z h k W 6.C.7.6.>.-.+.<..X].;.U I.r.w.R 5.}.n ",
"g.y f f r 2 , 2 q w L x 7 f F M.Z.D. X6.z k z L 2.,.O.E k j U  .8.;X9X6XE.(.vXa.V V z R  .6.B.b.8.R x l A C.C.-.-.o.w.wXJ.c.+Xn ",
") 5 F l w.t.$.S i w 5.V.O.g 5 3.b.C..X.X3.<...L  .@.@.X.l d ( 0.C.iX9X=XzX<XrXa.y z +.:.R ..D./.K.A k z y 7.k.{ 8.wXp.).kX#X6X` ",
") p ( t.J.pXqX^.r k -.F D I % O.D..X;X=X+X;X>Xf.D _ O.( a 5 g W -.C.[.C.2XE.~ ^ Y 2.j.+.Z z l.3XJ.4 4 d a A W U j.qX).tXvXuX8XwX",
"L.I &.3XlXqXa.y.y.K.W a s d X g D.=X;X=X4XaXZXeX!.` ( O.g d N o.7.[.{.].'.{.2.>.|.;Xj.A V y S t.J = * o * : 4 E [ x.lXlXJ.U.iX~.",
"wXV.@.u.rXMXpXH.y.O. .f O . o t ,.].=X=XaXkXrXcX&Xs ( _ G H *.( 0.:X{.C.C.|.:X6X:X;XS.K V V V V < w.` O @ o 7 2.P &.t.H.s.E B.a ",
"2X Xb.m.W.^.K.!.I x W D l 4 4 A M.iXiX4XW./.<XpX*X` / O.I G T / V.:X=X X0.V.=X.X|..Xk.Z y f k u 6 S %.S < $ k C.<.U A Z } +.{ = ",
"7X=X].].v.g 4 s l A ..j.O.f d } qXCXsX9X2X-XNX&Xt.O.T F s + s 1._ .X:X{.0.b.|.V.%.A.c.~ y u e A (.a.r.<Xm < K C.].C.<.+.B.C.o.; ",
"W. X].T.m.C 7 a n [ @.d - o f G ] nXuX,X=X XI.^ q 7 6 * X X H s b D.:X{.B.V..X].7.S.>.+.+.y 6 ^ *Xu.(.3XV y >.].}..XC.B.[.7.U m ",
"G.2X7X.X2.y w w z k.T.a % d d S J.gX5XoXoX Xk.k 7 3 @ o . . + X O.:X;X;XD.7.0.q.S.Z.+.r.j.} q #.rX2XlXwXY L B.}.+X[.>.{ { k f Q ",
"&XiXBXaXF.2 Y ~ k Z.( - - 5 * F hXbXaX5XoX|.m.[ u 3 3 # @ . @ p v.:X;X6X.XD.<.P t.aXR.3Xr.|.o.:.p.yX$XE.2.;.C.].[.iX/.K.r.C f M ",
"NXVXuX~.J.2 #.a.q } m.$.* ; G =.yXlXaX5X XA.6.1.A 2 3 < 4 6 W :.8XnXfXjX{.=XS.R &.kXzXtX~.oXD.[ +.#XT.uXfX8X'.OXE.E.lXZXcXr.u 4 ",
"mXVXBXE.#.(.~.#.$.U .XD.1.1.T.M.k.E.|.|.T.V.0.j.u.Y Z k k O.@.@.dXZXZXjX5X.X X:.).CX(.F.cX X.X6.-.b.D.9XnX0X<.u.t.F.F.wXvXn.f * ",
"fXnXBXaX<XyXx./.$X@.T.=X XV.m.i.I.OXS.2.3.f.0.4.2.j.A.m.} 2.W f.cX3XtXCXiXoXoXB.F.vXrXe.Y.=X=X'.-.,.M. X=Xb.{ A L wXtXpXrX<Xs.] ",
"f.4.&.n.<XwX1XBXH.P <.<.O.,.,.u.$Xr.@.@.X.3.v.@.O.X.6.v.:.3.E f.W.J.BXvXoXoX=X].i.G.rXd.L.iX.X<.g D 3X-X<. .x l k w.K.wXK.:.J.*X",
"Q l l E F.1XMXbXn./ =. .E ..o.a.%Xr.r.p.=. .P f l l F o.l.m.:.o.L.R.cXnXyX;X;X.X;XXXa._ ;X9X].G p D Y.7X>XZ. .k y y k j..XA.(.*X",
") t A 2.+.U.>X=XI.V.Z.3.@.o.t.x.r.s.x.x.#.= o . % l Y r.m.k.%.~.cX/.7XsXaXI.j.A.=.m..XD.[.C.C.=.) &X#XuXNX4XS.R R [ z.|.}.+X@X~ ",
"K.e Z m.j.:.4.G _ G Y.T.v.n.l.K.$Xu.U.r.V d @ O o 7 ^ i.2.} I.fXiXyX~.~.#XF.O.b.s s 3.;XD.V.C.V.W.MX>XnXNX4XXXwX7X|.7X@X}.@X.XN ",
").u w O.m.@.O.p b g f.i.%./.1X%XE.t.&.7 n C 7 @ X 4 S :.+.u.gXmXmXyX&.u.#XhXE.O.*.+ 5 b.b.;.b.q.=XZXBXZXZXfXbXuX1Xm.z.{.+X:X}.m ",
"~.k V u.|.1.a - H 1.v.G V z.1XyXK./.u.r 6.H : X o r h Y 2.OXfXfXgX/.%.I.gXgXv.p _ - s 1.+.K K K R.uXNXNXbX8XBXyX~.yXU.7.[.+X.Xm ",
"(.R.3XmXfX;Xt.- + = D m.r.U./.yXmX(.&.P D.Z._ R f k C E A.oX8X,X/.1X1XU.8X6Xj.J - 8 5 2.B.[ S V F 2.nXiX4XiXlXlXCX$X%.c ;.:X[.9 ",
"<X(.wXnXBXgXY.T 5 5 t +.+.>.E _ w.K k +..X|.T.T.S.:.R E 4.*.y.b ` 5XVX8Xm.} K Z 7 6.i.m.j.+.U f y o.OX5X4X5Xz.K.~.U r Z 5.}.M.v ",
"wXw.K.8XmXuXI.@.g t E } C ; ; . X O.2.B.;XZ.&.T +.+.K S E _ y.> X M yXmXI.K z z U A..X&.n A Z 4 = m #.I.oXS.[ A y w 7 A +.z.z.v ",
"P.' pXVXVXnXuXe.M Q ~.wXg.M > + + M !.sXsXR.) Q /.3X(.$XuX<X` ] : p !.mXbXyX$X/.<X<XJ.M ) g.K.' M e.wXuXaXyX(.K.e.Q m F.wXtX*X^ "
};
